<!DOCTYPE svg PUBLIC "-//W3C//DTD SVG 20010904//EN" "http://www.w3.org/TR/2001/REC-SVG-20010904/DTD/svg10.dtd">
<svg version="1.0" xmlns="http://www.w3.org/2000/svg" width="1200px" height="1200px" viewBox="0 0 12000 12000" preserveAspectRatio="xMidYMid meet">
<g id="layer101" fill="#cb9e60" stroke="none">
 <path d="M5695 11976 c-105 -26 -87 -9 -586 -566 -391 -438 -738 -820 -1079 -1190 -762 -828 -1051 -1110 -1307 -1277 -132 -86 -193 -110 -313 -123 -165 -18 -234 -59 -281 -165 -31 -69 -38 -277 -15 -423 17 -110 21 -186 9 -180 -5 2 -42 20 -84 40 -62 31 -93 40 -172 48 -178 18 -343 -13 -398 -76 -59 -67 -83 -201 -68 -380 10 -116 33 -167 119 -259 37 -38 276 -292 533 -563 257 -271 467 -497 467 -503 0 -19 -42 3 -439 229 -533 304 -524 299 -644 312 -212 22 -360 -17 -418 -109 -42 -65 -52 -128 -47 -292 6 -207 -9 -185 383 -579 178 -179 331 -341 340 -360 39 -77 38 -93 -170 -1465 -108 -715 -199 -1310 -202 -1323 -8 -32 -37 -48 -123 -68 -127 -28 -186 -71 -219 -159 -41 -109 -36 -358 9 -446 34 -66 385 -523 437 -569 59 -52 135 -91 233 -120 93 -27 165 -66 253 -138 157 -128 378 -392 537 -645 116 -183 143 -215 214 -248 70 -33 331 -96 547 -133 823 -141 2326 -221 3324 -177 896 39 1523 94 2004 177 216 37 477 100 547 133 71 33 98 65 214 248 159 253 380 517 537 645 88 72 160 111 253 138 98 29 174 68 233 120 52 46 403 503 437 569 45 88 50 337 9 446 -33 88 -92 131 -219 159 -86 20 -115 36 -123 68 -3 13 -94 608 -202 1323 -208 1372 -209 1388 -170 1465 9 19 162 181 340 360 392 394 377 372 383 579 5 164 -5 227 -47 292 -58 92 -206 131 -418 109 -120 -13 -111 -8 -644 -312 -397 -226 -439 -248 -439 -229 0 6 210 232 467 503 257 271 496 525 533 563 86 92 109 143 119 259 15 185 -14 333 -75 387 -68 60 -220 87 -391 69 -79 -8 -110 -17 -172 -48 -42 -20 -79 -38 -83 -40 -13 -6 -9 70 8 180 23 146 16 353 -15 424 -45 104 -118 146 -281 164 -120 13 -181 37 -313 123 -256 167 -545 449 -1307 1277 -341 370 -688 752 -1079 1190 -503 562 -485 545 -599 569 -69 14 -283 13 -347 -3z m2679 -3127 c-2 -4 6 -15 18 -24 22 -15 24 -14 41 7 15 18 20 19 27 8 5 -8 6 -18 3 -24 -3 -5 -1 -6 5 -2 6 3 13 2 17 -4 3 -5 -3 -10 -14 -10 -12 0 -21 4 -21 10 0 5 -7 7 -15 4 -12 -5 -13 -10 -4 -20 6 -8 15 -11 20 -8 5 3 8 0 7 -7 -5 -22 30 -22 37 0 3 12 11 21 16 21 6 0 7 -9 4 -21 -6 -16 -4 -20 6 -14 8 5 6 -1 -4 -12 -18 -21 -18 -22 7 -38 25 -16 46 -14 46 6 0 6 -4 8 -9 5 -5 -4 -7 3 -4 15 6 22 1 24 69 -37 10 -8 10 -14 1 -23 -6 -6 -7 -11 -1 -11 5 0 3 -4 -4 -9 -10 -6 9 -25 69 -69 l84 -60 12 29 12 28 68 -39 c130 -77 297 -127 373 -114 l35 7 -30 -33 c-46 -49 -59 -53 -123 -39 -78 16 -193 59 -186 70 3 5 -3 6 -12 2 -13 -5 -15 -3 -9 7 5 9 4 11 -3 6 -16 -10 -74 22 -66 36 4 7 3 8 -4 4 -15 -9 -54 12 -47 24 3 6 0 7 -7 5 -24 -9 -304 197 -293 215 3 6 0 8 -7 5 -7 -2 -42 22 -77 54 -35 32 -56 58 -48 58 9 0 14 -4 11 -8z m301 -197 c-4 -12 -3 -13 10 -2 10 8 15 9 15 1 0 -6 0 -14 0 -18 1 -13 -25 -11 -38 3 -7 8 -8 14 -2 14 5 0 10 5 10 10 0 6 -3 9 -7 9 -17 -3 -24 2 -18 11 10 16 37 -10 30 -28z m85 -49 c0 -7 7 -10 15 -7 11 4 13 2 9 -9 -3 -9 -12 -18 -20 -21 -9 -3 -12 -1 -9 4 8 12 -19 53 -28 43 -4 -3 -7 1 -7 10 0 15 3 15 20 5 11 -7 20 -18 20 -25z m1150 -877 c0 -6 -118 -96 -126 -96 -4 0 7 11 26 25 19 14 36 28 39 33 5 6 52 40 59 41 1 1 2 -1 2 -3z m-618 -186 c-2 -3 -7 1 -9 8 -3 6 -9 10 -14 6 -5 -3 -9 0 -9 6 0 6 -5 8 -10 5 -6 -4 -8 -10 -6 -14 3 -4 -1 -8 -9 -8 -8 0 -11 5 -7 11 4 6 7 16 7 21 1 6 6 9 13 8 7 -2 12 3 12 10 0 6 8 -1 19 -18 10 -16 16 -32 13 -35z m438 46 c0 -2 -19 -19 -42 -36 l-43 -32 40 36 c40 36 45 39 45 32z m-282 -183 c-10 -2 -26 -2 -35 0 -10 3 -2 5 17 5 19 0 27 -2 18 -5z"/>
 <path d="M8569 8704 c-10 -13 -10 -17 2 -25 18 -11 33 -6 37 13 4 22 -24 30 -39 12z"/>
 </g>
<g id="layer102" fill="#be848d" stroke="none">
 <path d="M5695 11976 c-105 -26 -87 -9 -586 -566 -391 -438 -738 -820 -1079 -1190 -762 -828 -1051 -1110 -1307 -1277 -132 -86 -193 -110 -313 -123 -165 -18 -234 -59 -281 -165 -31 -69 -38 -277 -15 -423 17 -110 21 -186 9 -180 -5 2 -42 20 -84 40 -62 31 -93 40 -172 48 -178 18 -343 -13 -398 -76 -59 -67 -83 -201 -68 -380 10 -116 33 -167 119 -259 37 -38 276 -292 533 -563 257 -271 467 -497 467 -503 0 -19 -42 3 -439 229 -533 304 -524 299 -644 312 -212 22 -360 -17 -418 -109 -42 -65 -52 -128 -47 -292 6 -207 -9 -185 383 -579 178 -179 331 -341 340 -360 39 -77 38 -93 -170 -1465 -108 -715 -199 -1310 -202 -1323 -8 -32 -37 -48 -123 -68 -127 -28 -186 -71 -219 -159 -41 -109 -36 -358 9 -446 34 -66 385 -523 437 -569 59 -52 135 -91 233 -120 93 -27 165 -66 253 -138 157 -128 378 -392 537 -645 116 -183 143 -215 214 -248 70 -33 331 -96 547 -133 823 -141 2326 -221 3324 -177 896 39 1523 94 2004 177 216 37 477 100 547 133 71 33 98 65 214 248 159 253 380 517 537 645 88 72 160 111 253 138 98 29 174 68 233 120 52 46 403 503 437 569 45 88 50 337 9 446 -33 88 -92 131 -219 159 -86 20 -115 36 -123 68 -3 13 -94 608 -202 1323 -208 1372 -209 1388 -170 1465 9 19 162 181 340 360 392 394 377 372 383 579 5 164 -5 227 -47 292 -58 92 -206 131 -418 109 -120 -13 -111 -8 -644 -312 -397 -226 -439 -248 -439 -229 0 6 210 232 467 503 257 271 496 525 533 563 86 92 109 143 119 259 15 185 -14 333 -75 387 -68 60 -220 87 -391 69 -79 -8 -110 -17 -172 -48 -42 -20 -79 -38 -83 -40 -13 -6 -9 70 8 180 23 146 16 353 -15 424 -45 104 -118 146 -281 164 -120 13 -181 37 -313 123 -256 167 -545 449 -1307 1277 -341 370 -688 752 -1079 1190 -503 562 -485 545 -599 569 -69 14 -283 13 -347 -3z m246 -1869 c44 -29 86 -100 98 -161 8 -45 -24 -572 -94 -1561 -17 -241 -38 -404 -56 -437 -11 -20 -12 -20 -24 -4 -31 41 -41 152 -109 1162 -40 579 -51 805 -45 840 18 97 96 184 164 184 18 0 47 -10 66 -23z m2433 -1258 c-2 -4 6 -15 18 -24 22 -15 24 -14 41 7 15 18 20 19 27 8 5 -8 6 -18 3 -24 -3 -5 -1 -6 5 -2 6 3 13 2 17 -4 3 -5 -3 -10 -14 -10 -12 0 -21 4 -21 10 0 5 -7 7 -15 4 -12 -5 -13 -10 -4 -20 6 -8 15 -11 20 -8 5 3 8 0 7 -7 -5 -22 30 -22 37 0 3 12 11 21 16 21 6 0 7 -9 4 -21 -6 -16 -4 -20 6 -14 8 5 6 -1 -4 -12 -18 -21 -18 -22 7 -38 25 -16 46 -14 46 6 0 6 -4 8 -9 5 -5 -4 -7 3 -4 15 6 22 1 24 69 -37 10 -8 10 -14 1 -23 -6 -6 -7 -11 -1 -11 5 0 3 -4 -4 -9 -10 -6 9 -25 69 -69 l84 -60 12 29 12 28 68 -39 c130 -77 297 -127 373 -114 l35 7 -30 -33 c-46 -49 -59 -53 -123 -39 -78 16 -193 59 -186 70 3 5 -3 6 -12 2 -13 -5 -15 -3 -9 7 5 9 4 11 -3 6 -16 -10 -74 22 -66 36 4 7 3 8 -4 4 -15 -9 -54 12 -47 24 3 6 0 7 -7 5 -24 -9 -304 197 -293 215 3 6 0 8 -7 5 -7 -2 -42 22 -77 54 -35 32 -56 58 -48 58 9 0 14 -4 11 -8z m301 -197 c-4 -12 -3 -13 10 -2 10 8 15 9 15 1 0 -6 0 -14 0 -18 1 -13 -25 -11 -38 3 -7 8 -8 14 -2 14 5 0 10 5 10 10 0 6 -3 9 -7 9 -17 -3 -24 2 -18 11 10 16 37 -10 30 -28z m85 -49 c0 -7 7 -10 15 -7 11 4 13 2 9 -9 -3 -9 -12 -18 -20 -21 -9 -3 -12 -1 -9 4 8 12 -19 53 -28 43 -4 -3 -7 1 -7 10 0 15 3 15 20 5 11 -7 20 -18 20 -25z m-5252 -808 c21 -17 113 -190 309 -577 294 -580 341 -678 350 -734 5 -29 3 -34 -15 -34 -11 0 -44 20 -74 44 -67 55 -612 615 -661 679 -50 66 -64 119 -82 326 -19 208 -14 242 40 290 45 39 91 41 133 6z m4867 -6 c54 -48 59 -82 40 -290 -18 -207 -32 -260 -82 -326 -49 -64 -594 -624 -661 -679 -30 -24 -63 -44 -74 -44 -18 0 -20 5 -15 34 9 56 56 154 350 734 196 387 288 560 309 577 42 35 88 33 133 -6z m1535 -63 c0 -6 -118 -96 -126 -96 -4 0 7 11 26 25 19 14 36 28 39 33 5 6 52 40 59 41 1 1 2 -1 2 -3z m-618 -186 c-2 -3 -7 1 -9 8 -3 6 -9 10 -14 6 -5 -3 -9 0 -9 6 0 6 -5 8 -10 5 -6 -4 -8 -10 -6 -14 3 -4 -1 -8 -9 -8 -8 0 -11 5 -7 11 4 6 7 16 7 21 1 6 6 9 13 8 7 -2 12 3 12 10 0 6 8 -1 19 -18 10 -16 16 -32 13 -35z m438 46 c0 -2 -19 -19 -42 -36 l-43 -32 40 36 c40 36 45 39 45 32z m-282 -183 c-10 -2 -26 -2 -35 0 -10 3 -2 5 17 5 19 0 27 -2 18 -5z m-5974 -2835 c539 -282 592 -312 607 -340 10 -18 8 -24 -10 -39 -33 -27 -86 -35 -653 -94 -475 -50 -531 -54 -561 -42 -65 28 -66 41 -12 370 48 294 62 352 92 375 38 28 76 12 537 -230z m5335 232 c32 -17 47 -77 96 -377 54 -329 53 -342 -12 -370 -30 -12 -86 -8 -561 42 -567 59 -620 67 -653 94 -18 14 -20 21 -10 38 15 30 27 36 574 324 301 158 503 259 520 259 16 0 36 -4 46 -10z m-5503 -1350 c401 -20 457 -29 462 -67 4 -30 -31 -59 -166 -135 -229 -129 -274 -176 -317 -328 -21 -76 -44 -118 -81 -152 -23 -20 -303 -183 -353 -205 -127 -55 -291 25 -291 141 0 49 107 672 120 695 15 28 56 62 86 70 16 5 58 7 94 4 36 -2 236 -12 446 -23z m5713 1 c53 -38 59 -57 116 -386 30 -176 55 -339 55 -361 0 -116 -164 -196 -291 -141 -50 22 -330 185 -353 205 -37 34 -60 76 -81 152 -43 152 -88 199 -317 328 -64 36 -129 77 -143 90 -37 34 -30 64 20 80 43 14 874 63 935 56 19 -3 46 -13 59 -23z m-5379 -1594 c0 -31 -85 -127 -112 -127 -20 0 -24 30 -8 60 10 18 96 80 112 80 4 0 8 -6 8 -13z m4534 -18 c50 -33 66 -55 66 -88 0 -14 -6 -21 -18 -21 -27 0 -112 96 -112 127 0 19 12 16 64 -18z m-3468 -184 c8 -19 -22 -65 -41 -65 -20 0 -19 39 2 62 20 22 32 23 39 3z m2376 -2 c22 -20 24 -63 3 -63 -19 0 -49 46 -41 65 7 19 15 19 38 -2z"/>
 <path d="M8569 8704 c-10 -13 -10 -17 2 -25 18 -11 33 -6 37 13 4 22 -24 30 -39 12z"/>
 </g>
<g id="layer103" fill="#fab9bf" stroke="none">
 <path d="M5695 11976 c-105 -26 -87 -9 -586 -566 -391 -438 -738 -820 -1079 -1190 -762 -828 -1051 -1110 -1307 -1277 -132 -86 -193 -110 -313 -123 -165 -18 -234 -59 -281 -165 -31 -69 -38 -277 -15 -423 17 -110 21 -186 9 -180 -5 2 -42 20 -84 40 -62 31 -93 40 -172 48 -178 18 -343 -13 -398 -76 -59 -67 -83 -201 -68 -380 10 -116 33 -167 119 -259 37 -38 276 -292 533 -563 257 -271 467 -497 467 -503 0 -19 -42 3 -439 229 -533 304 -524 299 -644 312 -212 22 -360 -17 -418 -109 -42 -65 -52 -128 -47 -292 6 -207 -9 -185 383 -579 178 -179 331 -341 340 -360 39 -77 38 -93 -170 -1465 -108 -715 -199 -1310 -202 -1323 -8 -32 -37 -48 -123 -68 -127 -28 -186 -71 -219 -159 -41 -109 -36 -358 9 -446 34 -66 385 -523 437 -569 59 -52 135 -91 233 -120 93 -27 165 -66 253 -138 157 -128 378 -392 537 -645 116 -183 143 -215 214 -248 70 -33 331 -96 547 -133 823 -141 2326 -221 3324 -177 896 39 1523 94 2004 177 216 37 477 100 547 133 71 33 98 65 214 248 159 253 380 517 537 645 88 72 160 111 253 138 98 29 174 68 233 120 52 46 403 503 437 569 45 88 50 337 9 446 -33 88 -92 131 -219 159 -86 20 -115 36 -123 68 -3 13 -94 608 -202 1323 -208 1372 -209 1388 -170 1465 9 19 162 181 340 360 392 394 377 372 383 579 5 164 -5 227 -47 292 -58 92 -206 131 -418 109 -120 -13 -111 -8 -644 -312 -397 -226 -439 -248 -439 -229 0 6 210 232 467 503 257 271 496 525 533 563 86 92 109 143 119 259 15 185 -14 333 -75 387 -68 60 -220 87 -391 69 -79 -8 -110 -17 -172 -48 -42 -20 -79 -38 -83 -40 -13 -6 -9 70 8 180 23 146 16 353 -15 424 -45 104 -118 146 -281 164 -120 13 -181 37 -313 123 -256 167 -545 449 -1307 1277 -341 370 -688 752 -1079 1190 -503 562 -485 545 -599 569 -69 14 -283 13 -347 -3z m246 -1869 c44 -29 86 -100 98 -161 8 -45 -24 -572 -94 -1561 -17 -241 -38 -404 -56 -437 -11 -20 -12 -20 -24 -4 -31 41 -41 152 -109 1162 -40 579 -51 805 -45 840 18 97 96 184 164 184 18 0 47 -10 66 -23z m2308 -1060 c390 -382 713 -589 940 -606 l84 -6 -41 -37 c-23 -21 -48 -38 -55 -38 -41 0 -184 46 -262 84 -198 97 -399 252 -660 507 -179 177 -180 177 -161 198 11 12 21 21 24 21 3 0 62 -55 131 -123z m-5296 -496 c-4 -3 -8 -12 -8 -20 0 -19 -149 -103 -232 -130 -37 -12 -88 -25 -113 -28 -42 -4 -48 -2 -79 31 l-35 36 62 0 c76 0 188 35 302 94 63 32 88 41 98 33 7 -5 9 -13 5 -16z m555 -756 c21 -17 113 -190 309 -577 294 -580 341 -678 350 -734 5 -29 3 -34 -15 -34 -11 0 -44 20 -74 44 -67 55 -612 615 -661 679 -50 66 -64 119 -82 326 -19 208 -14 242 40 290 45 39 91 41 133 6z m4867 -6 c54 -48 59 -82 40 -290 -18 -207 -32 -260 -82 -326 -49 -64 -594 -624 -661 -679 -30 -24 -63 -44 -74 -44 -18 0 -20 5 -15 34 9 56 56 154 350 734 196 387 288 560 309 577 42 35 88 33 133 -6z m1564 -43 c-48 -47 -381 -295 -426 -317 -70 -35 -112 -35 -181 0 -62 32 -120 109 -99 131 9 10 9 11 -3 6 -8 -4 -4 2 9 14 23 20 25 20 34 3 16 -29 60 -74 89 -89 61 -32 89 -21 338 121 218 124 250 142 239 131z m-7891 -137 c10 -8 21 -15 25 -15 9 -1 177 -94 177 -98 0 -2 -6 -3 -12 -4 -7 0 -24 -3 -37 -6 -40 -9 -90 26 -70 51 8 9 6 11 -10 8 -11 -2 -23 1 -26 6 -4 5 -10 7 -15 4 -5 -3 -16 5 -25 17 -8 13 -18 21 -21 19 -6 -3 -72 44 -128 92 -11 10 12 1 52 -21 41 -21 81 -46 90 -53z m348 -175 c-30 -29 -128 -28 -140 2 -4 10 -2 12 6 8 8 -5 9 -2 5 10 -4 10 -3 15 3 11 6 -3 10 -1 10 5 0 6 10 8 23 5 12 -3 36 -1 52 3 25 7 32 5 41 -11 9 -16 9 -24 0 -33z m1078 -2866 c539 -282 592 -312 607 -340 10 -18 8 -24 -10 -39 -33 -27 -86 -35 -653 -94 -475 -50 -531 -54 -561 -42 -65 28 -66 41 -12 370 48 294 62 352 92 375 38 28 76 12 537 -230z m5335 232 c32 -17 47 -77 96 -377 54 -329 53 -342 -12 -370 -30 -12 -86 -8 -561 42 -567 59 -620 67 -653 94 -18 14 -20 21 -10 38 15 30 27 36 574 324 301 158 503 259 520 259 16 0 36 -4 46 -10z m-5503 -1350 c401 -20 457 -29 462 -67 4 -30 -31 -59 -166 -135 -229 -129 -274 -176 -317 -328 -21 -76 -44 -118 -81 -152 -23 -20 -303 -183 -353 -205 -127 -55 -291 25 -291 141 0 49 107 672 120 695 15 28 56 62 86 70 16 5 58 7 94 4 36 -2 236 -12 446 -23z m5713 1 c53 -38 59 -57 116 -386 30 -176 55 -339 55 -361 0 -116 -164 -196 -291 -141 -50 22 -330 185 -353 205 -37 34 -60 76 -81 152 -43 152 -88 199 -317 328 -64 36 -129 77 -143 90 -37 34 -30 64 20 80 43 14 874 63 935 56 19 -3 46 -13 59 -23z m-5379 -1594 c0 -31 -85 -127 -112 -127 -20 0 -24 30 -8 60 10 18 96 80 112 80 4 0 8 -6 8 -13z m4534 -18 c50 -33 66 -55 66 -88 0 -14 -6 -21 -18 -21 -27 0 -112 96 -112 127 0 19 12 16 64 -18z m-3468 -184 c8 -19 -22 -65 -41 -65 -20 0 -19 39 2 62 20 22 32 23 39 3z m2376 -2 c22 -20 24 -63 3 -63 -19 0 -49 46 -41 65 7 19 15 19 38 -2z"/>
 </g>
<g id="layer104" fill="#fad2b5" stroke="none">
 <path d="M5695 11976 c-105 -26 -87 -9 -586 -566 -391 -438 -738 -820 -1079 -1190 -762 -828 -1051 -1110 -1307 -1277 -132 -86 -193 -110 -313 -123 -165 -18 -234 -59 -281 -165 -31 -69 -38 -277 -15 -423 17 -110 21 -186 9 -180 -5 2 -42 20 -84 40 -62 31 -93 40 -172 48 -178 18 -343 -13 -398 -76 -59 -67 -83 -201 -68 -380 10 -116 33 -167 119 -259 37 -38 276 -292 533 -563 257 -271 467 -497 467 -503 0 -19 -42 3 -439 229 -533 304 -524 299 -644 312 -212 22 -360 -17 -418 -109 -42 -65 -52 -128 -47 -292 6 -207 -9 -185 383 -579 178 -179 331 -341 340 -360 39 -77 38 -93 -170 -1465 -108 -715 -199 -1310 -202 -1323 -8 -32 -37 -48 -123 -68 -127 -28 -186 -71 -219 -159 -41 -109 -36 -358 9 -446 34 -66 385 -523 437 -569 59 -52 135 -91 233 -120 93 -27 165 -66 253 -138 157 -128 378 -392 537 -645 116 -183 143 -215 214 -248 70 -33 331 -96 547 -133 823 -141 2326 -221 3324 -177 896 39 1523 94 2004 177 216 37 477 100 547 133 71 33 98 65 214 248 159 253 380 517 537 645 88 72 160 111 253 138 98 29 174 68 233 120 52 46 403 503 437 569 45 88 50 337 9 446 -33 88 -92 131 -219 159 -86 20 -115 36 -123 68 -3 13 -94 608 -202 1323 -208 1372 -209 1388 -170 1465 9 19 162 181 340 360 392 394 377 372 383 579 5 164 -5 227 -47 292 -58 92 -206 131 -418 109 -120 -13 -111 -8 -644 -312 -397 -226 -439 -248 -439 -229 0 6 210 232 467 503 257 271 496 525 533 563 86 92 109 143 119 259 15 185 -14 333 -75 387 -68 60 -220 87 -391 69 -79 -8 -110 -17 -172 -48 -42 -20 -79 -38 -83 -40 -13 -6 -9 70 8 180 23 146 16 353 -15 424 -45 104 -118 146 -281 164 -120 13 -181 37 -313 123 -256 167 -545 449 -1307 1277 -341 370 -688 752 -1079 1190 -503 562 -485 545 -599 569 -69 14 -283 13 -347 -3z m233 -1820 c72 -38 138 -139 147 -228 6 -49 -112 -1834 -136 -2068 -13 -126 -37 -250 -52 -268 -27 -33 -55 65 -76 268 -24 234 -142 2019 -136 2068 7 67 42 136 92 183 65 62 107 73 161 45z m1432 -161 c19 -19 32 -35 29 -35 -3 0 -20 16 -39 35 -19 19 -32 35 -29 35 3 0 20 -16 39 -35z m150 -162 c0 -8 -9 0 -50 45 l-45 47 48 -45 c26 -24 47 -45 47 -47z m366 -393 c286 -304 541 -553 679 -663 282 -227 524 -347 672 -335 29 3 53 4 53 4 0 -1 -7 -39 -15 -86 -93 -521 -37 -858 148 -877 39 -4 59 5 292 138 138 78 257 144 265 147 8 3 -109 -124 -260 -284 -151 -159 -450 -473 -664 -699 -214 -225 -423 -445 -465 -487 -73 -74 -77 -76 -99 -62 -29 19 -24 22 -218 -165 l-148 -142 -27 28 c-14 15 -25 31 -23 34 2 4 -5 9 -16 12 -11 3 -23 13 -27 24 -7 18 -15 29 -41 58 -7 8 -10 21 -6 27 4 7 4 10 -1 6 -7 -7 -21 10 -42 52 -4 8 -13 21 -20 29 -15 15 -9 20 -282 -241 -118 -113 -148 -137 -165 -132 -12 4 -23 11 -25 16 -2 6 -67 -52 -144 -128 -77 -77 176 186 562 584 387 397 724 746 750 775 l48 52 7 135 c7 135 51 601 62 652 5 24 2 28 -23 34 -63 14 -273 130 -485 267 l-57 37 -154 -303 c-85 -166 -232 -453 -326 -637 -94 -184 -171 -329 -171 -322 0 7 -4 11 -9 8 -5 -3 -11 1 -14 8 -3 8 -1 17 6 20 9 3 9 5 0 5 -17 1 -35 -29 -203 -331 -101 -183 -146 -255 -156 -251 -8 3 -11 9 -8 14 3 5 -3 6 -12 2 -16 -6 -15 -7 2 -20 10 -7 13 -13 8 -13 -6 0 -16 6 -23 13 -11 10 -13 9 -8 -4 3 -9 0 -16 -9 -16 -8 0 20 63 76 171 49 94 267 515 484 935 l395 763 -193 213 c-107 117 -199 221 -204 232 -12 22 0 53 13 33 6 -9 9 -9 16 1 5 9 -1 23 -18 41 -15 16 -23 28 -18 28 5 0 -4 13 -19 29 -29 30 -30 61 -4 61 9 0 13 13 13 40 0 22 4 40 10 40 5 0 2 5 -8 11 -13 8 -15 14 -7 30 6 10 8 19 4 19 -3 0 0 8 7 17 10 11 10 14 2 9 -7 -4 -13 -2 -13 3 0 6 5 11 10 11 6 0 10 7 10 16 0 8 5 12 10 9 6 -3 10 0 10 7 0 10 3 9 10 -2 7 -12 11 -10 18 10 5 14 6 27 1 30 -9 6 15 96 31 115 5 6 8 15 5 18 -3 4 -2 5 1 2 10 -7 45 15 39 25 -3 5 -11 8 -18 6 -7 -1 -9 -1 -4 1 4 3 7 13 7 23 0 10 5 22 10 25 15 9 -2 36 -109 164 -156 187 -154 185 -146 228 l7 37 71 -74 c40 -41 172 -181 293 -310z m-4166 -183 c0 -2 -17 -19 -37 -38 l-38 -34 34 38 c33 34 41 42 41 34z m-269 -271 c-19 -20 -21 -28 -12 -45 9 -16 9 -27 -1 -45 -15 -28 -152 -172 -171 -179 -7 -3 -5 -6 4 -6 16 -1 34 -27 31 -43 -1 -5 3 -8 10 -8 6 0 9 -3 5 -6 -3 -4 0 -19 9 -35 11 -23 12 -29 2 -29 -7 0 -4 -6 7 -12 23 -13 55 -47 55 -59 0 -12 46 -59 52 -53 4 3 9 0 14 -7 4 -8 3 -10 -4 -5 -15 9 -16 -16 -1 -31 6 -6 18 -9 25 -6 9 3 14 -1 14 -12 0 -9 -5 -13 -11 -9 -6 3 -3 -9 7 -27 29 -57 26 -82 -13 -109 -88 -60 -121 -108 -93 -136 14 -14 -275 -172 -347 -189 -1 0 5 -49 12 -110 21 -173 44 -428 51 -573 l7 -133 448 -461 c247 -253 446 -465 442 -471 -3 -6 -2 -7 4 -4 5 3 65 -51 134 -121 l124 -127 -116 113 c-116 114 -126 119 -140 74 -3 -8 -15 -2 -34 19 -17 18 -24 29 -17 25 6 -4 12 -3 12 2 0 15 -13 22 -24 13 -7 -6 -65 43 -166 140 -85 82 -162 152 -172 155 -17 5 -60 -32 -66 -57 -2 -8 -8 -16 -13 -17 -5 -2 -7 -8 -3 -13 3 -5 -2 -9 -10 -9 -9 0 -25 -18 -36 -40 -11 -22 -24 -40 -29 -40 -5 0 -16 -16 -25 -35 -9 -19 -21 -35 -27 -35 -6 0 -7 -5 -3 -11 16 -27 -20 1 -93 71 -43 41 -105 98 -137 126 -59 52 -60 52 -76 31 -17 -21 -17 -21 -64 24 -74 70 -1234 1294 -1230 1297 1 2 119 -62 261 -143 241 -136 261 -146 300 -142 191 20 246 395 137 938 -5 25 -4 26 49 21 30 -2 81 3 118 12 90 22 286 123 407 210 106 76 311 247 371 310 19 20 37 36 40 36 2 0 -6 -11 -18 -24z m4053 -342 c9 -3 16 -12 16 -20 0 -12 -4 -12 -20 -2 -30 19 -27 34 4 22z m2 -66 c-3 -13 -85 -322 -183 -689 -138 -520 -181 -665 -193 -666 -11 -1 -16 6 -14 26 1 22 -3 27 -22 29 -18 1 -24 -3 -24 -18 0 -10 -8 -24 -17 -29 -13 -8 -14 -10 -4 -11 8 0 12 -3 8 -6 -3 -3 -11 -3 -17 1 -8 5 -7 11 2 23 11 13 11 15 -3 10 -16 -6 -46 28 -41 46 4 12 -39 57 -49 51 -4 -3 -10 -1 -13 4 -4 5 -2 12 4 16 10 6 7 45 -4 64 -4 5 1 16 9 24 20 20 19 27 -4 27 -10 0 -26 11 -35 25 -10 16 -12 25 -5 25 7 0 9 9 5 25 -4 15 -2 25 4 25 6 0 8 -4 5 -10 -3 -5 -1 -10 5 -10 6 0 8 -4 5 -10 -8 -14 8 -13 22 1 6 6 9 18 6 26 -5 12 -1 14 14 9 26 -8 39 30 17 51 -8 8 -13 18 -11 21 20 44 33 62 44 62 7 0 12 3 12 8 -4 22 3 32 22 32 11 0 17 5 14 10 -3 6 -1 10 5 10 6 0 9 4 5 9 -3 5 1 16 9 24 10 9 11 18 5 24 -16 16 1 44 25 41 15 -2 20 2 18 15 -2 9 3 17 11 17 8 0 18 7 21 16 4 10 2 13 -7 8 -8 -5 -7 -2 2 9 8 10 11 20 7 24 -3 3 1 17 10 31 9 13 11 21 5 18 -6 -4 -11 -2 -11 4 0 6 10 8 26 4 18 -5 25 -3 20 4 -7 12 3 44 13 37 4 -2 13 12 20 31 7 18 17 34 22 34 6 0 8 4 5 9 -3 5 1 14 9 21 16 13 10 34 -7 24 -5 -4 -4 4 3 17 7 13 12 27 11 32 -1 4 5 7 14 7 9 0 12 -5 8 -12 -5 -7 -3 -8 6 -3 10 6 12 4 7 -8 -3 -10 -3 -17 2 -17 17 0 18 13 3 39 -15 26 -14 30 4 53 10 13 25 23 32 20 7 -2 13 2 11 9 -3 29 2 41 15 36 8 -3 17 1 20 9 9 23 7 34 -5 34 -5 0 -7 -5 -3 -12 4 -7 3 -8 -5 -4 -17 11 -2 29 19 23 23 -6 35 20 19 39 -9 11 -9 13 3 9 11 -5 14 2 11 35 -2 30 1 40 12 40 8 0 15 2 15 4 0 2 3 12 7 22 4 12 3 15 -6 10 -9 -6 -9 -3 1 13 17 28 32 27 24 -1z m-3989 -738 c18 -10 43 -36 56 -57 42 -67 635 -1245 666 -1325 57 -140 36 -172 -61 -96 -48 38 -439 431 -684 689 -150 157 -162 189 -185 476 -14 175 -9 215 33 268 50 63 117 81 175 45z m4852 5 c40 -20 78 -69 93 -116 9 -32 9 -75 -1 -202 -23 -287 -35 -319 -185 -476 -245 -258 -636 -651 -684 -689 -97 -76 -118 -44 -61 96 31 80 624 1258 666 1325 43 69 112 94 172 62z m1837 -1438 c-11 -7 -43 -36 -72 -64 -29 -29 -57 -53 -63 -53 -6 0 -11 -4 -11 -8 0 -8 -132 -112 -143 -112 -7 0 -332 -195 -353 -212 -8 -7 -25 -23 -37 -36 -11 -12 -27 -20 -34 -18 -7 3 -10 -1 -7 -9 8 -20 -25 -78 -41 -71 -7 2 -16 -2 -19 -10 -3 -9 -11 -12 -17 -8 -8 4 -9 3 -5 -4 4 -7 3 -12 -3 -12 -5 0 -11 -10 -13 -22 -2 -15 -9 -22 -21 -21 -10 0 -16 -4 -14 -11 6 -16 -30 -59 -43 -51 -7 4 -9 -2 -4 -19 5 -21 1 -27 -22 -38 -16 -6 -38 -19 -48 -27 -17 -14 -18 -14 -11 -1 8 13 6 13 -8 1 -9 -7 -14 -17 -11 -23 3 -5 0 -16 -7 -24 -10 -12 -14 -12 -20 -2 -6 9 -9 8 -10 -7 -1 -11 -3 -26 -3 -33 -1 -14 -24 -32 -41 -32 -5 0 -3 5 5 10 13 8 12 10 -2 10 -10 0 -18 -4 -18 -9 0 -5 -10 -11 -22 -13 -14 -2 -22 -12 -25 -28 -4 -26 -21 -42 -37 -33 -5 3 -6 1 -2 -5 4 -7 3 -12 -1 -12 -5 0 -13 -10 -18 -22 -6 -15 -19 -23 -35 -24 -36 -1 -82 -22 -75 -34 4 -6 11 -8 16 -5 5 4 9 3 9 -1 0 -9 -32 -33 -45 -34 -5 0 -3 5 5 11 12 8 12 10 -5 7 -11 -2 -24 -13 -30 -26 -19 -42 -75 -35 -59 7 4 11 0 11 -14 -2 -22 -20 -36 -22 -26 -4 6 9 4 9 -8 -1 -14 -11 -18 -10 -25 3 -9 15 -11 15 -22 1 -15 -17 -36 -22 -26 -6 6 10 -27 44 -45 46 -6 1 -15 2 -20 3 -6 0 -10 9 -8 19 2 12 -3 16 -16 14 -11 -2 -15 1 -11 7 17 28 -53 -5 -335 -159 -314 -171 -359 -191 -361 -162 -1 9 -1 21 0 25 1 5 -3 6 -9 2 -6 -3 -7 -12 -3 -18 5 -8 2 -8 -9 0 -8 7 -18 11 -22 8 -3 -3 -3 -1 1 3 5 5 409 236 898 514 490 278 1025 583 1190 677 165 94 302 170 305 170 3 0 -4 -6 -14 -12z m-6804 -611 c180 -105 325 -193 323 -197 -3 -4 3 -6 12 -5 10 0 19 -7 21 -16 2 -11 -3 -18 -13 -18 -9 0 -13 -4 -10 -10 3 -5 -3 -10 -15 -10 -17 0 -19 3 -10 19 7 13 7 22 0 26 -6 3 -13 -1 -16 -9 -3 -9 -10 -16 -15 -16 -6 0 -5 8 0 19 9 16 7 20 -14 25 -15 4 -22 11 -19 20 3 8 1 17 -5 21 -21 12 -11 -34 10 -48 11 -9 16 -18 10 -21 -11 -7 -61 13 -61 26 0 4 -7 8 -16 8 -8 0 -12 4 -9 10 3 5 0 8 -7 5 -12 -4 -495 330 -563 390 l-30 26 51 -28 c27 -15 197 -113 376 -217z m5373 224 c-21 -24 -79 -65 -385 -281 -247 -174 -518 -329 -575 -329 -65 0 -56 34 20 76 11 6 229 133 485 282 256 149 467 271 469 272 2 0 -4 -9 -14 -20z m-4240 -370 c38 -38 67 -70 64 -70 -2 0 -36 32 -74 70 -38 39 -67 70 -64 70 2 0 36 -31 74 -70z m2385 -333 c0 -2 -19 -21 -42 -42 l-43 -40 40 43 c36 39 45 47 45 39z m890 -272 c0 -2 -13 -11 -30 -20 -38 -19 -40 -11 -2 9 31 17 32 18 32 11z m-4260 -476 c294 -154 551 -291 571 -305 47 -32 62 -65 44 -91 -17 -24 -66 -38 -180 -52 -196 -24 -1051 -111 -1088 -111 -75 0 -117 44 -117 120 0 74 98 639 116 669 20 34 47 49 89 50 21 1 195 -85 565 -280z m5283 270 c13 -6 31 -24 41 -40 18 -30 116 -596 116 -669 0 -76 -42 -120 -117 -120 -37 0 -892 87 -1088 111 -114 14 -163 28 -180 52 -18 26 -3 59 44 91 80 55 1107 586 1133 586 15 0 38 -5 51 -11z m-5625 -1349 c473 -24 547 -29 594 -41 38 -10 68 -32 68 -51 0 -26 -88 -91 -235 -173 -110 -63 -177 -107 -216 -146 -52 -50 -60 -63 -84 -145 -49 -162 -63 -176 -326 -327 -141 -82 -194 -101 -259 -95 -63 6 -154 51 -181 89 -44 62 -43 82 20 447 66 380 75 407 145 442 49 24 5 24 474 0z m5827 0 c71 -34 80 -61 146 -442 63 -365 64 -385 20 -447 -27 -38 -118 -83 -181 -89 -65 -6 -118 13 -259 95 -263 151 -277 165 -326 327 -24 82 -32 95 -84 145 -39 39 -106 83 -216 146 -147 82 -235 147 -235 173 0 19 30 41 68 52 20 5 165 17 322 25 157 9 350 19 430 24 244 14 269 13 315 -9z m-925 -775 c5 3 12 0 16 -6 4 -7 3 -9 -3 -6 -6 4 -13 1 -16 -7 -3 -8 -14 -13 -24 -12 -10 2 -12 1 -5 -1 7 -3 10 -9 7 -14 -4 -5 11 1 32 13 30 18 35 19 24 5 -8 -10 -12 -20 -9 -22 3 -3 11 1 18 10 16 19 50 2 50 -25 0 -14 7 -20 22 -20 21 0 21 0 2 16 -18 14 -18 15 4 4 12 -6 22 -14 22 -19 0 -4 6 -8 13 -8 11 0 190 -102 628 -358 l106 -62 24 20 c29 23 154 87 263 134 62 26 81 31 88 21 5 -9 8 -7 8 7 1 18 2 17 15 -5 7 -14 17 -24 21 -22 5 2 10 0 11 -5 2 -4 -59 -38 -135 -76 -75 -37 -129 -65 -119 -62 9 2 17 0 17 -6 0 -6 7 -9 15 -5 21 8 51 -4 35 -14 -19 -12 -3 -28 25 -25 14 2 23 -1 19 -6 -3 -5 0 -9 7 -9 8 0 9 -3 0 -13 -14 -18 -5 -26 23 -21 13 2 31 -5 44 -17 12 -11 22 -15 22 -9 0 6 5 8 11 5 6 -4 8 -13 5 -21 -3 -9 5 -16 26 -22 22 -5 32 -14 33 -29 1 -12 19 -38 41 -58 21 -20 39 -44 39 -53 0 -10 6 -16 13 -14 7 1 20 -4 28 -13 19 -18 34 -19 34 -2 0 8 4 7 10 -3 5 -8 10 -11 10 -6 0 5 9 -1 19 -13 11 -13 25 -20 31 -16 6 4 20 -2 31 -14 11 -12 17 -22 14 -22 -3 -1 -11 -2 -17 -3 -7 -1 -12 -8 -10 -14 3 -14 -21 -42 -36 -42 -5 0 -26 -18 -45 -39 -19 -22 -39 -36 -43 -33 -4 4 -4 1 0 -6 4 -7 11 -10 15 -7 5 2 16 -4 25 -14 16 -17 15 -19 -11 -36 -56 -37 -267 -253 -357 -365 -108 -134 -231 -309 -307 -433 -29 -49 -61 -93 -71 -98 -27 -14 -247 -65 -407 -93 -107 -19 -148 -23 -158 -15 -14 12 -19 34 -5 25 4 -2 14 4 21 16 11 17 10 19 -6 14 -20 -5 -186 -21 -335 -32 -82 -5 -102 -4 -123 10 -14 9 -30 14 -35 11 -6 -3 -10 3 -10 14 0 23 -42 51 -48 32 -2 -6 -8 -9 -13 -5 -14 9 -10 24 7 24 21 0 7 19 -23 31 -17 6 -23 14 -19 25 9 22 -14 50 -25 32 -6 -10 -15 -6 -36 16 -15 17 -21 24 -11 17 11 -8 18 -9 23 -1 8 13 -20 24 -41 16 -8 -3 -12 -2 -9 4 3 6 -1 10 -9 10 -18 0 -22 16 -5 22 6 2 1 15 -11 31 -18 23 -19 27 -5 27 9 0 13 5 10 10 -4 6 -15 8 -25 5 -19 -6 -36 20 -19 31 7 4 6 10 -1 19 -13 15 -2 47 14 39 6 -3 3 1 -7 9 -10 8 -26 13 -36 10 -9 -2 -23 3 -30 11 -8 9 -9 16 -4 16 5 0 10 6 10 13 0 8 -6 14 -13 14 -7 0 -11 -4 -8 -9 8 -12 -9 -9 -28 6 -22 16 -23 26 -3 26 8 0 15 5 15 11 0 7 -11 9 -26 6 -18 -3 -32 2 -45 16 -19 20 -19 22 -2 29 10 4 -26 5 -79 2 -81 -5 -100 -4 -113 10 -9 9 -13 20 -10 26 4 6 -11 10 -37 11 -24 1 74 14 217 29 143 15 270 29 281 31 20 4 16 12 -42 93 -35 49 -60 94 -57 99 3 6 2 7 -3 4 -10 -6 -109 130 -109 150 0 6 -4 15 -9 20 -5 5 -6 2 -1 -6 6 -10 4 -12 -4 -7 -9 6 -8 13 5 27 9 10 12 19 6 19 -6 0 -14 -5 -17 -10 -4 -6 -11 -8 -16 -4 -5 3 -7 10 -4 15 4 5 2 9 -4 9 -5 0 -20 14 -32 32 -13 17 -17 28 -10 24 7 -5 20 -1 31 9 19 17 18 19 -14 79 -18 33 -49 87 -69 118 -39 60 -40 82 -4 92 18 5 20 8 7 16 -13 8 -12 10 3 10 9 0 17 5 17 11 0 5 4 8 9 5 5 -3 12 1 15 10 4 10 -6 31 -25 55 -17 21 -28 43 -24 49 4 6 1 9 -5 8 -6 -2 -23 12 -38 31 -25 31 -25 33 -4 20 12 -7 22 -17 22 -22 0 -4 6 -2 14 5 12 11 12 14 0 21 -8 5 -11 14 -7 20 5 9 3 9 -8 0 -13 -10 -16 -10 -16 2 0 7 3 14 6 13 29 -3 33 3 16 22 -10 11 -16 20 -13 20 3 0 216 -238 473 -530 523 -593 460 -539 575 -497 111 41 158 84 215 197 18 36 59 104 89 150 31 46 56 87 56 91 0 4 -100 92 -222 195 -123 103 -229 192 -236 199 -16 14 -5 45 16 45 21 0 6 16 -175 182 -84 77 -153 144 -153 149 0 5 10 13 23 18 13 5 29 16 37 25 7 10 23 16 34 15 25 -1 66 11 66 20 0 3 -20 19 -45 34 -25 16 -43 33 -39 38 3 5 15 0 26 -11 16 -15 25 -17 35 -9 7 6 10 15 7 20 -3 5 2 9 11 9 9 0 13 -4 10 -10 -3 -5 -1 -10 5 -10 6 0 14 8 17 17 4 11 8 13 11 5 2 -7 8 -10 12 -7z m-885 -285 c24 -26 26 -30 10 -30 -10 0 -15 3 -12 7 4 3 -3 17 -15 30 -12 13 -19 23 -17 23 3 0 18 -13 34 -30z m-3 -63 c-24 -24 -47 -15 -30 12 7 11 18 16 30 13 19 -5 19 -5 0 -25z m-3612 -37 c-28 -27 -238 -213 -267 -237 -10 -8 -13 -12 -7 -9 11 5 44 -27 44 -43 0 -5 -7 -14 -16 -22 -13 -10 -17 -10 -26 2 -8 11 -9 11 -5 -2 7 -21 -37 -64 -54 -54 -7 5 -10 4 -6 -3 4 -5 -36 -47 -89 -92 l-96 -82 20 -22 c29 -31 104 -151 140 -222 54 -107 103 -151 212 -191 114 -42 65 -81 465 372 196 223 359 405 362 405 2 0 2 -9 -2 -19 -5 -15 -1 -19 19 -17 22 1 23 3 10 17 -13 15 -13 17 0 22 9 4 18 2 21 -3 4 -6 12 -10 18 -10 7 0 3 7 -7 15 -12 9 -29 12 -40 9 -17 -5 -14 1 12 29 l34 35 24 -25 c14 -14 29 -21 36 -17 6 4 -4 -14 -23 -40 -55 -75 -65 -91 -53 -83 6 3 21 -3 33 -14 12 -11 26 -17 31 -14 6 3 10 1 10 -4 0 -6 6 -11 13 -11 6 0 18 -4 25 -9 14 -9 7 -30 -24 -71 -26 -33 -84 -152 -78 -161 3 -5 12 -9 20 -9 31 0 8 -43 -125 -230 l-138 -195 41 -6 c22 -4 150 -17 282 -30 l241 -23 -7 -27 c-5 -15 -6 -30 -2 -33 3 -3 -20 -6 -50 -6 -37 0 -60 -5 -68 -15 -7 -8 -16 -12 -21 -9 -5 3 -9 0 -9 -5 0 -6 5 -11 10 -11 7 0 7 -7 0 -20 -6 -11 -10 -26 -9 -33 5 -38 -2 -55 -20 -50 -11 3 -21 -2 -25 -12 -3 -9 -2 -13 4 -10 6 3 10 -1 10 -9 0 -9 -4 -17 -10 -17 -5 -1 -14 -2 -19 -3 -18 -2 -24 -16 -8 -16 14 0 15 -4 5 -25 -6 -14 -14 -21 -17 -16 -7 11 -20 4 -41 -23 -8 -11 -10 -17 -3 -13 17 11 27 -11 13 -28 -9 -11 -9 -15 -1 -15 6 0 11 -7 11 -15 0 -14 -11 -19 -37 -16 -6 1 -10 -6 -8 -16 1 -10 -1 -22 -5 -28 -13 -19 -20 -46 -10 -40 16 10 12 -11 -5 -25 -8 -6 -19 -9 -24 -6 -5 4 -11 -6 -13 -21 -2 -19 -10 -29 -28 -33 -14 -3 -26 -14 -29 -25 -8 -46 -17 -48 -164 -41 -105 5 -137 3 -131 -5 4 -8 3 -9 -4 -5 -7 4 -28 -5 -47 -20 l-35 -26 -178 21 c-314 39 -731 118 -790 150 -10 5 -42 49 -71 98 -129 212 -310 452 -465 613 -56 58 -85 90 -65 72 35 -33 56 -31 43 2 -3 9 -2 16 4 16 6 0 13 -6 15 -12 4 -8 6 -7 6 3 1 9 -6 22 -14 29 -9 7 -13 15 -10 18 3 3 -4 15 -15 27 -19 20 -19 23 -5 29 9 3 13 2 10 -4 -3 -6 -3 -10 0 -10 3 0 11 14 16 30 6 17 14 30 19 30 16 0 70 65 65 78 -2 7 1 12 8 11 36 -4 48 2 45 23 -2 15 2 23 12 23 26 1 60 16 60 27 0 7 4 7 13 0 8 -7 17 -6 30 3 13 9 15 14 5 17 -10 4 -9 9 4 21 9 10 24 14 35 11 13 -4 14 -3 5 3 -10 7 -8 13 7 27 15 13 20 14 24 4 3 -9 11 -7 29 10 16 15 31 20 43 16 14 -6 16 -3 11 13 -5 15 -1 23 11 27 10 4 19 2 21 -4 3 -8 8 -7 18 1 8 7 17 9 21 6 8 -9 45 12 38 22 -2 5 11 26 31 46 28 30 38 35 44 24 7 -11 12 -11 22 -1 9 9 9 12 0 12 -7 0 -12 4 -12 8 0 12 50 33 61 26 6 -3 16 0 24 6 8 6 19 9 24 6 6 -4 15 3 21 14 6 11 15 18 20 15 6 -3 18 -1 27 4 14 8 15 11 3 11 -12 0 -11 4 4 15 10 8 22 12 27 10 4 -3 10 -1 13 4 4 5 -3 12 -14 16 -11 4 -18 11 -14 16 3 6 13 8 21 5 8 -3 23 -1 33 4 13 7 20 6 22 -1 5 -14 44 6 69 36 17 20 18 20 32 1 10 -13 16 -16 21 -7 4 7 -2 20 -16 31 l-23 19 32 -1 c18 -1 31 -6 30 -12 -1 -6 5 -10 13 -8 8 2 26 5 40 7 14 1 29 3 33 4 5 0 6 5 3 10 -3 4 3 16 13 25 13 11 21 14 26 7 10 -17 23 -13 21 7 -1 12 5 16 22 14 13 -1 31 2 40 7 12 7 21 5 32 -7 15 -15 14 -19 -10 -42z m-2212 3 c-10 -2 -26 -2 -35 0 -10 3 -2 5 17 5 19 0 27 -2 18 -5z m9010 0 c-10 -2 -26 -2 -35 0 -10 3 -2 5 17 5 19 0 27 -2 18 -5z m-2208 -114 c0 -13 -13 -11 -35 5 -18 13 -18 14 8 9 15 -3 27 -9 27 -14z m-4766 -141 c-3 -4 -15 -13 -27 -20 -19 -10 -20 -9 -10 4 7 8 11 17 8 19 -2 3 4 5 15 5 10 0 16 -4 14 -8z m436 -12 c0 -28 -153 -228 -253 -333 -57 -59 -95 -73 -132 -49 -33 22 -33 70 -1 117 26 38 235 205 314 251 52 31 72 35 72 14z m4102 -14 c79 -46 288 -213 314 -251 47 -70 17 -142 -54 -126 -43 9 -159 135 -276 299 -79 110 -74 131 16 78z m-3184 -300 c8 -107 -60 -222 -130 -222 -19 0 -39 5 -46 12 -35 35 5 126 93 214 57 56 79 55 83 -4z m2277 3 c88 -87 127 -179 93 -213 -7 -7 -27 -12 -46 -12 -68 0 -132 104 -132 215 0 71 22 73 85 10z"/>
 <path d="M7334 8289 c-3 -6 -1 -16 6 -22 10 -9 12 -8 7 5 -3 9 -1 19 6 22 9 3 9 5 0 5 -6 1 -15 -4 -19 -10z"/>
 <path d="M3242 1999 c2 -7 10 -15 17 -17 8 -3 12 1 9 9 -2 7 -10 15 -17 17 -8 3 -12 -1 -9 -9z"/>
 </g>
<g id="layer105" fill="#feefea" stroke="none">
 <path d="M5695 11976 c-105 -26 -87 -9 -586 -566 -391 -438 -738 -820 -1079 -1190 -762 -828 -1051 -1110 -1307 -1277 -132 -86 -193 -110 -313 -123 -165 -18 -234 -59 -281 -165 -31 -69 -38 -277 -15 -423 17 -110 21 -186 9 -180 -5 2 -42 20 -84 40 -62 31 -93 40 -172 48 -178 18 -343 -13 -398 -76 -59 -67 -83 -201 -68 -380 10 -116 33 -167 119 -259 37 -38 276 -292 533 -563 257 -271 467 -497 467 -503 0 -19 -42 3 -439 229 -533 304 -524 299 -644 312 -212 22 -360 -17 -418 -109 -42 -65 -52 -128 -47 -292 6 -207 -9 -185 383 -579 178 -179 331 -341 340 -360 39 -77 38 -93 -170 -1465 -108 -715 -199 -1310 -202 -1323 -8 -32 -37 -48 -123 -68 -127 -28 -186 -71 -219 -159 -41 -109 -36 -358 9 -446 34 -66 385 -523 437 -569 59 -52 135 -91 233 -120 93 -27 165 -66 253 -138 157 -128 378 -392 537 -645 116 -183 143 -215 214 -248 70 -33 331 -96 547 -133 823 -141 2326 -221 3324 -177 896 39 1523 94 2004 177 216 37 477 100 547 133 71 33 98 65 214 248 159 253 380 517 537 645 88 72 160 111 253 138 98 29 174 68 233 120 52 46 403 503 437 569 45 88 50 337 9 446 -33 88 -92 131 -219 159 -86 20 -115 36 -123 68 -3 13 -94 608 -202 1323 -208 1372 -209 1388 -170 1465 9 19 162 181 340 360 392 394 377 372 383 579 5 164 -5 227 -47 292 -58 92 -206 131 -418 109 -120 -13 -111 -8 -644 -312 -397 -226 -439 -248 -439 -229 0 6 210 232 467 503 257 271 496 525 533 563 86 92 109 143 119 259 15 185 -14 333 -75 387 -68 60 -220 87 -391 69 -79 -8 -110 -17 -172 -48 -42 -20 -79 -38 -83 -40 -13 -6 -9 70 8 180 23 146 16 353 -15 424 -45 104 -118 146 -281 164 -120 13 -181 37 -313 123 -256 167 -545 449 -1307 1277 -341 370 -688 752 -1079 1190 -503 562 -485 545 -599 569 -69 14 -283 13 -347 -3z m290 -459 c262 -297 1033 -1150 1385 -1532 649 -705 988 -1050 1185 -1208 282 -227 524 -347 672 -335 29 3 53 4 53 4 0 -1 -7 -39 -15 -86 -93 -521 -37 -858 148 -877 39 -4 59 5 292 138 138 78 257 144 265 147 8 3 -109 -124 -260 -284 -151 -159 -450 -473 -664 -699 -214 -225 -423 -445 -465 -487 -73 -74 -77 -76 -99 -62 -29 19 -24 22 -218 -165 l-148 -142 -27 28 c-14 15 -25 31 -23 34 2 4 -5 9 -16 12 -11 3 -23 13 -27 24 -7 18 -15 29 -41 58 -7 8 -10 21 -6 27 4 7 4 10 -1 6 -7 -7 -21 10 -42 52 -4 8 -13 21 -20 29 -15 15 -9 20 -282 -241 -118 -113 -148 -137 -165 -132 -12 4 -23 11 -25 16 -2 6 -67 -52 -144 -128 -77 -77 176 186 562 584 387 397 724 746 750 775 l48 52 7 135 c7 135 51 601 62 652 5 24 2 28 -23 34 -63 14 -273 130 -485 267 l-57 37 -154 -303 c-85 -166 -232 -453 -326 -637 -94 -184 -171 -329 -171 -322 0 7 -4 11 -9 8 -5 -3 -11 1 -14 8 -3 8 -1 17 6 20 9 3 9 5 0 5 -17 1 -35 -29 -203 -331 -101 -183 -146 -255 -156 -251 -8 3 -11 9 -8 14 3 5 -3 6 -12 2 -16 -6 -15 -7 2 -20 10 -7 13 -13 8 -13 -6 0 -16 6 -23 13 -11 10 -13 9 -8 -4 3 -9 0 -16 -9 -16 -8 0 20 63 76 171 49 94 267 515 484 935 l395 763 -236 260 c-129 142 -239 256 -243 251 -3 -4 -101 -361 -215 -794 -164 -616 -213 -785 -225 -786 -11 -1 -16 6 -14 26 1 22 -3 27 -22 29 -18 1 -24 -3 -24 -18 0 -10 -8 -24 -17 -29 -13 -8 -14 -10 -4 -11 8 0 12 -3 8 -6 -3 -3 -11 -3 -17 1 -8 5 -7 11 2 23 11 13 11 15 -3 10 -16 -6 -46 28 -41 46 4 12 -39 57 -49 51 -4 -3 -10 -1 -13 4 -4 5 -2 12 4 16 10 6 7 45 -4 64 -4 5 1 16 9 24 20 20 19 27 -4 27 -10 0 -26 11 -35 25 -9 14 -12 25 -6 25 16 0 12 28 -6 38 -12 6 -15 18 -12 35 3 15 2 24 -3 22 -4 -3 -10 -1 -14 5 -3 5 -1 10 4 10 6 0 11 5 11 10 0 6 -10 10 -22 10 -13 0 -34 3 -46 7 -20 5 -23 11 -20 39 2 18 0 30 -4 28 -17 -11 -28 7 -18 27 6 10 7 19 2 19 -10 0 -8 42 3 59 5 10 -14 16 -37 12 -5 0 -8 5 -8 12 0 8 -3 7 -10 -3 -8 -13 -11 -13 -27 3 -14 14 -14 17 -3 17 13 0 13 2 0 10 -11 7 -12 10 -2 10 22 0 9 33 -15 36 -12 2 -28 5 -35 6 -6 2 -14 -6 -16 -17 -2 -11 -10 -24 -18 -28 -8 -4 -14 -14 -14 -22 0 -21 -17 -27 -40 -15 -15 8 -20 8 -20 -1 0 -7 -2 -10 -5 -7 -5 5 125 557 181 768 76 286 174 582 242 733 l31 67 -242 257 c-240 254 -242 256 -246 222 -2 -19 -29 -437 -61 -929 -32 -492 -58 -875 -59 -851 -1 38 -3 43 -21 38 -11 -3 -22 -2 -25 3 -2 4 -15 7 -27 6 -16 -1 -24 -8 -26 -23 -3 -22 -32 -33 -32 -13 0 6 -6 10 -14 10 -10 0 -16 -14 -19 -42 l-4 -43 -1 48 c-2 34 2 47 12 47 8 0 17 7 20 16 4 12 2 15 -9 10 -12 -4 -15 3 -15 32 1 20 29 456 65 967 l63 930 -117 115 c-180 177 -268 286 -315 392 l-23 52 -12 -36 c-30 -91 -138 -228 -322 -408 l-117 -115 63 -930 c36 -511 64 -941 65 -955 l0 -25 -13 25 c-8 14 -20 23 -28 21 -8 -2 -33 -3 -57 -4 -23 0 -45 -4 -48 -9 -23 -37 -32 55 -78 792 -26 426 -51 806 -54 844 l-7 69 -242 -256 -242 -257 30 -66 c46 -100 114 -290 165 -459 39 -128 184 -685 184 -707 0 -5 -5 -8 -11 -8 -5 0 -7 5 -3 12 5 7 3 8 -7 2 -8 -5 -16 -9 -19 -9 -3 -1 -25 -5 -50 -10 -25 -5 -49 -8 -54 -7 -4 2 -14 -3 -22 -9 -8 -7 -17 -9 -21 -5 -3 3 -17 -1 -31 -10 -13 -9 -21 -11 -17 -4 6 9 3 9 -14 1 -23 -13 -27 -27 -9 -33 8 -3 8 -9 0 -24 -6 -10 -12 -14 -12 -9 0 6 -4 5 -8 -2 -4 -7 -23 -14 -43 -16 -19 -2 -41 -7 -49 -12 -8 -5 -25 -10 -39 -11 -13 -2 -27 -8 -31 -15 -4 -6 -13 -8 -19 -5 -6 4 -11 3 -11 -2 0 -6 -9 -8 -20 -5 -11 3 -20 1 -20 -5 0 -5 -34 -20 -75 -33 -41 -12 -75 -26 -75 -30 0 -4 -7 -10 -16 -13 -9 -4 -13 -2 -8 5 4 8 0 7 -15 0 -11 -7 -21 -19 -22 -29 0 -9 -55 189 -123 440 -67 251 -124 460 -127 463 -4 3 -112 -111 -242 -254 l-235 -259 244 -474 c135 -260 286 -551 335 -645 50 -95 88 -173 85 -173 -3 0 -14 17 -25 38 -11 20 -21 31 -22 25 -1 -7 -2 -18 -3 -25 -4 -35 -30 -2 -105 135 -126 226 -169 293 -176 274 -12 -30 -42 -14 -65 33 -12 25 -105 208 -206 407 l-184 361 -128 -80 c-195 -122 -376 -218 -439 -233 -1 0 5 -49 12 -110 21 -173 44 -428 51 -573 l7 -133 575 -592 c316 -326 524 -541 461 -479 -90 88 -117 110 -127 100 -7 -7 -12 -18 -12 -26 0 -17 -30 9 -232 202 -82 78 -156 145 -167 149 -13 7 -24 2 -42 -16 -13 -13 -25 -31 -27 -38 -2 -8 -8 -16 -13 -17 -5 -2 -7 -8 -3 -13 3 -5 -2 -9 -10 -9 -9 0 -25 -18 -36 -40 -11 -22 -24 -40 -29 -40 -5 0 -16 -16 -25 -35 -9 -19 -21 -35 -27 -35 -6 0 -7 -5 -3 -11 16 -27 -20 1 -93 71 -43 41 -105 98 -137 126 -59 52 -60 52 -76 31 -17 -21 -17 -21 -64 24 -74 70 -1234 1294 -1230 1297 1 2 119 -62 261 -143 241 -136 261 -146 300 -142 191 20 246 395 137 938 -5 25 -4 26 49 21 204 -17 552 198 951 588 342 334 1537 1631 2291 2487 58 66 97 103 110 103 13 0 52 -37 110 -103z m-47 -1321 c34 -18 124 -112 145 -152 39 -76 39 -90 -34 -1164 -92 -1371 -100 -1465 -136 -1605 -27 -108 -51 -107 -77 3 -36 157 -42 226 -131 1532 -77 1147 -78 1157 -38 1234 20 38 100 124 138 147 36 22 95 24 133 5z m-1846 -1917 c27 -15 55 -80 68 -164 19 -122 -10 -151 -73 -72 -77 95 -102 199 -55 231 27 19 33 19 60 5z m3626 -5 c47 -32 22 -136 -55 -231 -63 -78 -92 -50 -73 70 13 85 36 143 63 162 27 19 37 19 65 -1z m-2331 -171 c-2 -16 -4 -3 -4 27 0 30 2 43 4 28 2 -16 2 -40 0 -55z m170 -20 c-2 -16 -4 -5 -4 22 0 28 2 40 4 28 2 -13 2 -35 0 -50z m-160 -140 c-2 -16 -4 -5 -4 22 0 28 2 40 4 28 2 -13 2 -35 0 -50z m960 0 c-2 -16 -4 -5 -4 22 0 28 2 40 4 28 2 -13 2 -35 0 -50z m-790 -5 c-2 -13 -4 -3 -4 22 0 25 2 35 4 23 2 -13 2 -33 0 -45z m620 0 c-2 -13 -4 -3 -4 22 0 25 2 35 4 23 2 -13 2 -33 0 -45z m-2665 -55 c16 -10 44 -40 62 -68 46 -69 707 -1382 746 -1479 33 -85 37 -148 10 -154 -9 -1 -38 12 -65 29 -51 33 -394 374 -737 733 -252 264 -251 262 -278 601 -14 176 -8 215 47 276 68 75 152 99 215 62z m4847 -2 c52 -27 108 -92 122 -143 9 -33 9 -78 -1 -193 -27 -339 -26 -337 -278 -601 -343 -359 -686 -700 -737 -733 -27 -17 -56 -30 -65 -29 -27 6 -23 69 10 154 39 98 700 1410 746 1479 18 28 45 58 61 67 37 23 95 22 142 -1z m-2792 -83 c-2 -13 -4 -5 -4 17 -1 22 1 32 4 23 2 -10 2 -28 0 -40z m600 0 c-2 -13 -4 -5 -4 17 -1 22 1 32 4 23 2 -10 2 -28 0 -40z m170 -10 c-2 -13 -4 -3 -4 22 0 25 2 35 4 23 2 -13 2 -33 0 -45z m-940 -10 c-2 -13 -4 -3 -4 22 0 25 2 35 4 23 2 -13 2 -33 0 -45z m180 -125 c-3 -10 -5 -2 -5 17 0 19 2 27 5 18 2 -10 2 -26 0 -35z m580 -5 c-2 -13 -4 -5 -4 17 -1 22 1 32 4 23 2 -10 2 -28 0 -40z m170 -20 c-2 -13 -4 -5 -4 17 -1 22 1 32 4 23 2 -10 2 -28 0 -40z m-920 -5 c-3 -10 -5 -2 -5 17 0 19 2 27 5 18 2 -10 2 -26 0 -35z m180 -110 c-3 -10 -5 -2 -5 17 0 19 2 27 5 18 2 -10 2 -26 0 -35z m-1132 -673 c9 -16 13 -30 11 -30 -3 0 -12 14 -21 30 -9 17 -13 30 -11 30 3 0 12 -13 21 -30z m-2004 -940 c602 -343 1100 -630 1107 -638 6 -9 12 -13 12 -9 0 4 14 1 30 -8 17 -9 30 -18 30 -21 0 -2 -13 2 -29 11 -19 9 -32 11 -36 5 -19 -31 -138 18 -394 159 -76 42 -148 81 -323 174 l-47 25 -18 -36 c-15 -30 -23 -37 -48 -37 -16 0 -30 -5 -30 -12 0 -6 -3 -15 -7 -19 -5 -4 -8 -2 -8 5 0 7 -5 9 -12 4 -17 -10 -41 -10 -49 0 -3 4 -14 5 -23 1 -12 -5 -16 -14 -13 -31 2 -13 0 -26 -5 -29 -4 -3 -5 -10 -2 -16 5 -8 -4 -9 -29 -5 -21 3 -37 3 -38 -1 -1 -7 -7 -45 -12 -72 -2 -9 -7 -22 -12 -29 -5 -9 -4 -12 3 -8 6 5 8 -1 5 -14 -5 -19 -7 -19 -24 8 l-19 28 -1 -25 c0 -14 -3 -19 -6 -12 -2 6 -9 12 -14 12 -6 0 -7 -5 -4 -10 4 -6 3 -19 -1 -28 -4 -9 -8 -26 -8 -36 -1 -24 -26 -34 -26 -11 0 9 -4 14 -9 11 -5 -3 -7 -16 -4 -29 l6 -22 -22 24 c-11 13 -21 28 -21 33 0 5 -6 3 -14 -4 -8 -7 -12 -15 -10 -17 2 -2 -1 -10 -7 -18 -9 -10 -8 -13 2 -13 9 0 10 -3 3 -8 -6 -4 -11 -19 -11 -34 -1 -16 -2 -29 -3 -30 0 -2 -3 -30 -6 -63 -2 -33 -6 -82 -8 -110 -2 -27 -7 -58 -11 -68 -4 -10 -1 -24 6 -34 8 -9 9 -14 4 -11 -14 8 -17 -320 -3 -344 6 -13 5 -18 -4 -18 -9 0 -9 -3 2 -10 8 -5 10 -10 4 -10 -19 0 -37 27 -22 32 10 4 9 9 -3 21 -9 9 -20 13 -24 9 -5 -4 -6 0 -3 9 4 9 1 16 -6 16 -12 0 -15 -24 -5 -42 3 -6 5 -40 5 -77 -1 -38 2 -68 6 -68 3 0 5 -18 3 -40 -2 -22 0 -38 3 -36 4 2 8 -17 8 -42 1 -26 5 -67 8 -92 4 -25 8 -61 9 -82 1 -20 6 -34 11 -31 5 3 7 -6 4 -21 -3 -14 -1 -26 4 -26 5 0 6 -4 3 -10 -3 -5 -2 -10 3 -10 6 0 10 -16 10 -35 0 -20 6 -42 12 -50 10 -12 10 -15 -1 -15 -10 0 -10 -3 -3 -8 6 -4 10 -15 8 -24 -1 -10 2 -18 8 -18 5 0 8 -10 7 -22 -1 -13 1 -31 5 -40 3 -10 9 -26 13 -35 3 -10 5 -22 4 -26 0 -4 4 -18 11 -30 12 -23 14 -27 20 -64 2 -11 10 -28 17 -36 10 -13 -5 -112 -79 -544 -50 -290 -93 -535 -96 -544 -3 -12 24 -27 118 -64 118 -47 324 -145 379 -181 l27 -17 542 315 542 315 23 -21 c28 -24 24 -36 -18 -61 -66 -39 -333 -208 -345 -220 -11 -10 -8 -15 17 -26 17 -8 31 -17 31 -21 0 -5 10 -6 22 -5 25 4 78 -20 78 -34 0 -6 3 -8 8 -6 4 3 13 -1 19 -8 10 -11 -8 -33 -94 -115 -135 -128 -141 -135 -117 -161 21 -23 31 -11 -106 -125 -52 -43 -139 -116 -193 -162 l-98 -84 19 -22 c29 -31 105 -151 140 -222 17 -34 43 -76 58 -93 44 -53 130 -99 224 -120 l40 -9 506 574 c278 316 508 574 512 574 3 0 -7 -14 -23 -30 -16 -17 -25 -30 -19 -30 5 0 2 -5 -6 -10 -12 -8 -11 -10 7 -10 49 0 43 -11 -103 -197 -105 -133 -124 -161 -107 -150 5 4 20 -3 32 -14 12 -11 26 -17 31 -14 6 3 10 1 10 -4 0 -6 6 -11 13 -11 6 0 18 -4 25 -9 14 -9 7 -30 -24 -71 -26 -33 -84 -152 -78 -161 3 -5 12 -9 20 -9 31 0 8 -43 -125 -230 -76 -107 -134 -196 -127 -198 19 -4 781 -80 784 -78 1 2 34 110 74 242 39 131 75 240 79 242 4 2 6 9 3 15 -2 7 4 13 17 14 18 2 19 0 7 -14 -9 -12 -10 -17 -1 -20 8 -3 2 -36 -18 -111 -16 -59 -31 -129 -34 -155 -6 -47 -5 -48 17 -43 13 3 17 3 10 0 -6 -3 -10 -9 -7 -14 2 -4 -6 -39 -19 -78 l-24 -70 151 -6 c84 -4 173 -9 200 -12 l47 -6 0 52 c0 43 2 50 14 41 7 -6 21 -9 30 -5 11 4 16 0 16 -14 0 -12 5 -24 11 -28 7 -4 10 -25 7 -54 -3 -29 -1 -47 6 -48 6 -1 37 -3 68 -5 32 -1 60 -6 64 -10 4 -4 13 -2 21 4 7 6 13 7 13 2 0 -5 34 -8 75 -7 42 0 78 -3 81 -8 3 -4 10 -5 17 -1 6 3 42 7 79 9 38 1 72 4 75 8 3 3 13 1 23 -4 10 -5 21 -6 25 -2 3 4 34 8 68 9 34 1 70 2 81 2 17 1 17 2 2 26 -18 28 -21 39 -6 30 13 -8 13 1 -1 27 -10 18 -9 20 6 14 10 -3 24 -1 31 5 8 6 22 9 33 6 29 -7 45 8 48 50 2 21 4 47 5 58 2 17 8 20 30 17 27 -4 28 -2 29 39 2 59 7 26 15 -104 l6 -109 47 6 c25 3 114 8 197 12 l152 6 -33 98 c-30 90 -32 99 -17 114 12 12 13 16 3 16 -10 0 -11 3 -2 14 11 12 -1 68 -62 291 -12 44 -12 54 2 81 l16 31 97 -325 c54 -179 99 -326 100 -328 3 -2 765 74 784 78 10 3 -37 73 -274 407 -25 35 -40 61 -33 57 7 -5 20 -1 31 9 19 17 18 19 -14 79 -18 33 -49 87 -69 118 -39 60 -40 82 -4 92 18 5 20 8 7 16 -13 8 -12 10 3 10 9 0 17 5 17 11 0 5 4 8 9 5 5 -3 12 1 15 10 6 17 -1 27 -134 194 -117 146 -132 170 -114 187 20 21 18 28 -22 73 -20 22 -34 40 -31 40 3 0 264 -294 581 -654 l576 -654 40 9 c94 21 180 67 224 120 15 17 42 62 61 99 18 36 59 104 89 150 31 46 56 87 56 91 0 4 -100 92 -222 195 -123 103 -229 192 -236 199 -16 14 -5 45 16 45 21 0 6 16 -175 182 -84 77 -153 144 -153 149 0 5 10 13 23 18 13 5 29 16 37 25 7 10 23 16 34 15 25 -1 66 11 66 20 0 3 -71 51 -157 106 -281 177 -314 200 -301 213 7 7 20 12 31 12 12 0 16 4 11 12 -4 7 8 3 27 -8 19 -11 324 -188 678 -394 l643 -373 27 17 c58 37 243 126 366 176 72 29 131 53 132 54 0 0 -5 37 -13 81 -53 299 -234 1353 -234 1363 0 7 3 11 8 9 14 -9 52 13 52 30 0 11 -3 14 -8 7 -4 -6 -19 -13 -34 -16 -22 -4 -28 -1 -28 13 0 11 5 19 10 19 6 0 10 -4 10 -10 0 -18 18 -11 23 9 3 14 1 18 -9 14 -17 -6 -18 11 -3 39 9 16 8 23 -2 29 -11 7 -11 9 -1 9 7 0 11 4 7 9 -3 5 -1 12 5 16 6 4 10 -4 10 -19 0 -21 27 -63 35 -54 3 3 14 93 17 128 0 8 5 21 11 28 6 8 6 12 -2 12 -6 0 -11 5 -11 11 0 5 4 8 9 4 6 -3 8 5 5 19 -2 14 0 27 4 30 5 3 7 19 4 35 -5 33 -22 33 -22 0 0 -24 -15 -25 -26 -1 -9 21 -12 62 -4 62 3 0 5 29 5 65 0 36 3 65 7 65 4 0 3 13 -2 29 -4 16 -5 32 -2 36 10 10 10 355 0 355 -4 0 -8 5 -8 11 0 5 4 7 10 4 6 -4 7 1 3 12 -6 15 -9 14 -17 -9 -5 -16 -16 -28 -23 -28 -7 0 -13 -5 -13 -11 0 -5 -4 -8 -10 -4 -5 3 -7 12 -4 19 3 9 -1 13 -12 13 -11 -1 -20 6 -22 18 -2 11 -11 24 -19 28 -12 7 -12 11 -1 25 10 12 7 12 -14 -2 -16 -10 -29 -14 -29 -10 -1 5 -2 20 -4 34 -1 14 -2 36 -4 50 l-2 25 -18 -22 c-15 -18 -21 -20 -30 -9 -6 7 -12 25 -13 40 -2 23 -4 25 -14 11 -9 -12 -12 -2 -16 52 -4 65 8 113 32 128 28 17 -47 75 -96 75 -16 0 -71 -21 -122 -47 -78 -41 -94 -46 -102 -33 -5 8 -7 21 -4 29 4 11 0 11 -14 -2 -22 -20 -36 -22 -26 -4 6 9 4 9 -8 -1 -14 -11 -18 -10 -25 3 -9 15 -11 15 -22 1 -15 -17 -36 -22 -26 -6 6 10 -27 44 -45 46 -6 1 -15 2 -20 3 -6 0 -10 9 -8 19 2 12 -3 16 -16 14 -11 -2 -15 1 -11 7 17 28 -53 -5 -335 -159 -314 -171 -359 -191 -361 -162 -1 9 -1 21 0 25 1 5 -3 6 -9 2 -6 -3 -7 -12 -3 -18 5 -8 2 -8 -9 0 -8 7 -18 11 -22 8 -3 -3 -3 -1 1 3 11 13 2579 1472 2589 1472 5 0 -143 -152 -328 -337 -260 -262 -342 -350 -363 -391 -39 -80 -65 -194 -71 -312 -5 -100 5 -178 211 -1535 241 -1596 213 -1455 312 -1528 77 -56 132 -79 200 -85 l62 -5 -171 -226 c-235 -311 -225 -303 -416 -362 -116 -35 -237 -117 -385 -259 -181 -174 -379 -427 -528 -673 -29 -49 -61 -93 -71 -98 -27 -15 -248 -65 -408 -93 -755 -133 -2182 -213 -3121 -176 -1064 42 -1827 119 -2297 230 -67 16 -131 34 -140 39 -10 5 -42 49 -71 98 -209 345 -512 696 -721 835 -96 64 -153 90 -242 114 -80 20 -126 44 -164 86 -17 18 -108 135 -202 259 l-171 226 62 5 c68 6 123 29 200 85 99 73 71 -68 312 1528 206 1358 216 1435 211 1535 -6 118 -32 232 -71 312 -21 41 -104 131 -364 392 -185 186 -329 336 -320 333 9 -3 508 -285 1110 -627z m959 -120 c348 -202 466 -273 371 -225 -34 17 -35 17 -51 -5 l-17 -23 -89 47 c-83 44 -572 382 -639 441 l-30 27 35 -20 c19 -11 208 -120 420 -242z m5345 240 c-21 -24 -79 -65 -385 -281 -247 -174 -518 -329 -575 -329 -65 0 -56 34 20 76 11 6 229 133 485 282 256 149 467 271 469 272 2 0 -4 -9 -14 -20z m-4240 -370 c38 -38 67 -70 64 -70 -2 0 -36 32 -74 70 -38 39 -67 70 -64 70 2 0 36 -31 74 -70z m2385 -333 c0 -2 -19 -21 -42 -42 l-43 -40 40 43 c36 39 45 47 45 39z m890 -272 c0 -2 -13 -11 -30 -20 -38 -19 -40 -11 -2 9 31 17 32 18 32 11z m-4215 -459 c616 -322 670 -356 663 -412 -4 -35 -49 -60 -130 -73 -147 -24 -1249 -133 -1282 -127 -59 11 -98 53 -103 112 -6 58 89 664 114 725 22 55 56 79 112 79 41 0 109 -33 626 -304z m5277 284 c14 -11 33 -37 41 -59 25 -61 120 -667 114 -725 -5 -59 -44 -101 -103 -112 -33 -6 -1135 103 -1282 127 -81 13 -126 38 -130 73 -7 56 47 90 663 412 517 271 585 304 626 304 31 0 55 -7 71 -20z m-684 -1027 c-10 -2 -26 -2 -35 0 -10 3 -2 5 17 5 19 0 27 -2 18 -5z m-4760 -20 c-10 -2 -26 -2 -35 0 -10 3 -2 5 17 5 19 0 27 -2 18 -5z m4950 0 c-10 -2 -26 -2 -35 0 -10 3 -2 5 17 5 19 0 27 -2 18 -5z m90 -10 c-10 -2 -26 -2 -35 0 -10 3 -2 5 17 5 19 0 27 -2 18 -5z m-5230 -10 c-10 -2 -26 -2 -35 0 -10 3 -2 5 17 5 19 0 27 -2 18 -5z m5330 0 c-10 -2 -26 -2 -35 0 -10 3 -2 5 17 5 19 0 27 -2 18 -5z m90 -10 c-10 -2 -26 -2 -35 0 -10 3 -2 5 17 5 19 0 27 -2 18 -5z m-5610 -10 c-10 -2 -26 -2 -35 0 -10 3 -2 5 17 5 19 0 27 -2 18 -5z m5710 0 c-10 -2 -26 -2 -35 0 -10 3 -2 5 17 5 19 0 27 -2 18 -5z m-5800 -10 c-10 -2 -28 -2 -40 0 -13 2 -5 4 17 4 22 1 32 -1 23 -4z m5890 0 c-10 -2 -26 -2 -35 0 -10 3 -2 5 17 5 19 0 27 -2 18 -5z m-5990 -10 c-10 -2 -26 -2 -35 0 -10 3 -2 5 17 5 19 0 27 -2 18 -5z m6090 0 c-10 -2 -28 -2 -40 0 -13 2 -5 4 17 4 22 1 32 -1 23 -4z m-6180 -10 c-10 -2 -26 -2 -35 0 -10 3 -2 5 17 5 19 0 27 -2 18 -5z m6270 0 c-10 -2 -26 -2 -35 0 -10 3 -2 5 17 5 19 0 27 -2 18 -5z m-5693 -233 c527 -26 564 -30 600 -70 17 -19 17 -23 2 -54 -19 -41 -57 -68 -257 -181 -177 -100 -277 -171 -302 -212 -9 -16 -22 -58 -27 -92 -14 -84 -44 -144 -95 -186 -68 -55 -383 -232 -437 -245 -63 -15 -120 -7 -195 29 -98 47 -134 99 -134 192 0 71 108 687 129 734 21 46 70 92 109 101 15 3 32 7 37 9 6 2 46 2 90 -1 44 -2 260 -13 480 -24z m5713 6 c37 -19 68 -54 86 -96 19 -46 126 -665 126 -729 0 -93 -36 -145 -134 -192 -75 -36 -132 -44 -195 -29 -54 13 -369 190 -437 245 -51 42 -81 102 -95 186 -5 34 -18 76 -27 92 -25 41 -125 112 -302 212 -200 113 -238 140 -257 181 -15 31 -15 35 2 54 36 39 56 42 755 80 355 20 434 19 478 -4z m-1308 -352 c0 -2 -13 2 -30 11 -16 9 -30 18 -30 21 0 2 14 -2 30 -11 17 -9 30 -18 30 -21z m70 -40 c0 -2 -13 2 -30 11 -16 9 -30 18 -30 21 0 2 14 -2 30 -11 17 -9 30 -18 30 -21z m210 -114 c253 -141 253 -141 -10 -22 -102 47 -174 85 -172 92 1 7 -3 19 -10 28 -7 9 -8 13 -3 10 6 -3 93 -52 195 -108z m-4360 -45 c0 -2 -13 -11 -30 -20 -38 -19 -40 -11 -2 9 31 17 32 18 32 11z m270 -100 c0 -2 -13 -11 -30 -20 -38 -19 -40 -11 -2 9 31 17 32 18 32 11z m780 -258 c0 -2 -15 -16 -32 -33 l-33 -29 29 33 c28 30 36 37 36 29z m-70 -80 c0 -2 -15 -16 -32 -33 l-33 -29 29 33 c28 30 36 37 36 29z m-550 -250 c0 -36 -113 -186 -320 -426 -63 -73 -125 -146 -138 -162 -30 -37 -101 -79 -135 -79 -36 0 -85 44 -92 84 -8 42 15 100 58 144 34 36 270 229 405 331 131 100 222 144 222 108z m3643 -8 c23 -12 65 -38 92 -57 82 -59 386 -302 439 -351 59 -56 90 -119 82 -166 -8 -41 -57 -85 -93 -85 -34 0 -105 42 -135 79 -13 16 -75 89 -138 162 -159 184 -230 273 -279 348 -60 94 -52 112 32 70z m457 -60 c0 -13 -13 -11 -35 5 -18 13 -18 14 8 9 15 -3 27 -9 27 -14z m-2753 -311 c-2 -13 -4 -5 -4 17 -1 22 1 32 4 23 2 -10 2 -28 0 -40z m880 -5 c-3 -10 -5 -2 -5 17 0 19 2 27 5 18 2 -10 2 -26 0 -35z m-1466 13 c9 -19 7 -48 -10 -130 -45 -224 -101 -306 -211 -306 -78 0 -114 74 -74 153 39 77 183 258 227 286 42 27 55 26 68 -3z m2114 4 c45 -28 189 -208 229 -287 40 -79 4 -153 -74 -153 -110 0 -166 82 -211 306 -17 82 -19 111 -10 130 13 29 24 30 66 4z m-1538 -172 c-2 -13 -4 -5 -4 17 -1 22 1 32 4 23 2 -10 2 -28 0 -40z m900 -10 c-2 -13 -4 -3 -4 22 0 25 2 35 4 23 2 -13 2 -33 0 -45z m-910 -160 c-2 -13 -4 -3 -4 22 0 25 2 35 4 23 2 -13 2 -33 0 -45z m920 -5 c-2 -16 -4 -5 -4 22 0 28 2 40 4 28 2 -13 2 -35 0 -50z m-930 -160 c-2 -16 -4 -3 -4 27 0 30 2 43 4 28 2 -16 2 -40 0 -55z"/>
 <path d="M9282 3893 c-6 -2 -10 -9 -6 -14 8 -14 21 -11 28 6 6 15 1 17 -22 8z"/>
 </g>

</svg>