<!DOCTYPE svg PUBLIC "-//W3C//DTD SVG 20010904//EN" "http://www.w3.org/TR/2001/REC-SVG-20010904/DTD/svg10.dtd">
<svg version="1.0" xmlns="http://www.w3.org/2000/svg" width="500px" height="500px" viewBox="0 0 5000 5000" preserveAspectRatio="xMidYMid meet">
<g id="layer101" fill="#1c1b1a" stroke="none">
 <path d="M2445 4709 c-5 -13 2 -39 19 -71 34 -65 33 -82 -8 -130 -40 -46 -64 -109 -73 -188 l-5 -56 -77 -16 c-42 -10 -85 -20 -97 -23 -19 -6 -25 5 -65 110 -35 93 -49 119 -68 126 -41 16 -61 3 -61 -41 0 -32 26 -163 46 -231 3 -12 -18 -29 -76 -63 -44 -25 -84 -46 -89 -46 -5 0 -44 42 -86 93 -87 103 -94 110 -133 105 -23 -3 -27 -8 -30 -40 -3 -30 6 -53 39 -109 l43 -72 -22 -38 c-24 -42 -28 -79 -10 -97 8 -8 4 -20 -16 -47 -15 -19 -29 -35 -32 -35 -3 0 -55 32 -117 72 -89 56 -120 71 -152 72 -39 1 -40 0 -43 -34 -3 -31 4 -42 63 -100 36 -35 65 -70 65 -78 0 -7 -9 -31 -21 -53 -12 -25 -19 -55 -17 -77 3 -36 4 -37 41 -37 27 0 36 -4 32 -13 -3 -8 -8 -25 -11 -38 -3 -13 -11 -24 -18 -24 -6 0 -96 23 -200 50 -206 55 -261 61 -271 31 -14 -46 7 -63 161 -127 l149 -62 7 -92 c8 -106 18 -123 65 -118 27 3 33 0 33 -14 0 -11 -7 -18 -18 -18 -90 0 -719 -53 -729 -62 -17 -14 -17 -52 0 -66 11 -9 463 -42 580 -42 35 0 37 -2 37 -32 0 -60 28 -152 78 -258 56 -118 74 -139 152 -173 46 -20 64 -36 100 -88 59 -86 199 -223 289 -284 l73 -50 -6 -45 c-76 -554 31 -1040 312 -1416 126 -168 331 -354 391 -354 57 0 65 39 23 109 -45 72 -63 138 -69 247 -6 106 7 229 34 323 11 37 14 80 11 140 -5 98 -25 148 -88 225 -39 46 -52 75 -29 60 30 -18 80 -22 95 -7 13 13 12 20 -10 57 -23 39 -23 43 -9 71 9 17 27 43 42 58 25 27 26 33 26 147 0 115 1 119 22 125 17 4 27 20 41 66 l19 62 89 22 c49 13 116 35 149 49 l60 27 20 -28 c50 -69 77 -93 106 -93 54 0 57 46 10 137 -11 23 -21 44 -21 46 0 3 17 16 38 29 20 14 63 49 95 78 l57 52 154 -92 c176 -104 219 -122 242 -98 11 11 14 25 10 45 -5 23 -38 53 -149 138 -78 60 -145 111 -149 114 -4 4 6 27 23 51 16 25 44 72 61 105 17 33 32 62 33 63 2 2 96 -22 210 -53 124 -33 222 -55 244 -53 32 3 36 6 39 35 4 41 0 44 -233 138 -104 42 -193 80 -196 83 -4 4 1 44 10 89 l16 83 40 0 c143 0 631 33 637 43 10 15 10 49 0 64 -5 8 -196 27 -592 57 -322 26 -591 46 -597 46 -10 0 -13 36 -13 148 -1 298 -56 540 -185 807 -139 289 -401 605 -500 605 -25 0 -35 -5 -40 -21z m191 -406 c113 -248 214 -664 218 -900 1 -89 0 -92 -29 -123 -37 -39 -59 -36 -98 12 l-30 38 12 69 c18 99 1 184 -54 271 l-26 41 30 46 c73 110 48 305 -61 487 -43 70 -48 96 -27 122 20 24 29 16 65 -63z m-100 -1137 c25 -24 34 -43 34 -66 0 -44 -56 -100 -100 -100 -44 0 -100 56 -100 100 0 44 56 100 100 100 23 0 42 -9 66 -34z m-501 -201 c236 -10 266 -25 223 -113 -20 -40 -23 -62 -23 -157 0 -101 2 -115 29 -169 16 -32 41 -72 56 -90 26 -29 27 -35 22 -108 l-5 -77 -51 26 c-40 20 -114 66 -144 89 -2 1 6 46 17 100 22 107 17 134 -23 134 -31 0 -44 -17 -71 -91 l-22 -61 -52 68 c-84 112 -153 276 -175 422 l-7 44 38 -6 c21 -3 106 -8 188 -11z m1532 -29 c-3 -8 -11 -33 -18 -55 -7 -23 -17 -40 -23 -37 -6 2 -60 24 -121 47 l-110 44 85 6 c168 11 193 10 187 -5z m-290 -203 c100 -27 173 -51 173 -58 0 -7 -23 -42 -51 -79 -34 -46 -54 -64 -62 -58 -231 174 -265 202 -260 222 3 11 10 20 16 20 6 0 88 -21 184 -47z m-69 -318 c5 -5 -101 -75 -113 -75 -5 0 -36 50 -68 110 l-59 110 119 -71 c65 -39 120 -73 121 -74z m-329 -70 c57 -75 58 -81 20 -94 -18 -6 -34 -11 -35 -11 -2 0 -4 15 -4 34 0 18 -7 53 -15 76 -24 68 -20 67 34 -5z m-703 -308 c38 -13 86 -27 107 -31 31 -6 37 -10 32 -24 -4 -9 -11 -60 -15 -112 -4 -52 -13 -117 -20 -145 -16 -63 -16 -235 -1 -300 7 -27 25 -82 42 -123 16 -40 29 -83 29 -94 0 -21 0 -21 -21 -2 -31 28 -105 152 -138 231 -54 131 -76 231 -92 406 -8 99 -6 217 5 217 1 0 34 -11 72 -23z"/>
 </g>
<g id="layer102" fill="#423f38" stroke="none">
 <path d="M2445 4709 c-5 -13 2 -39 19 -71 34 -65 33 -82 -8 -130 -40 -46 -64 -109 -73 -188 l-5 -56 -77 -16 c-42 -10 -85 -20 -97 -23 -19 -6 -25 5 -65 110 -35 93 -49 119 -68 126 -41 16 -61 3 -61 -41 0 -32 26 -163 46 -231 3 -12 -18 -29 -76 -63 -44 -25 -84 -46 -89 -46 -5 0 -44 42 -86 93 -87 103 -94 110 -133 105 -23 -3 -27 -8 -30 -40 -3 -30 6 -53 39 -109 l43 -72 -22 -38 c-24 -42 -28 -79 -10 -97 8 -8 4 -20 -16 -47 -15 -19 -29 -35 -32 -35 -3 0 -55 32 -117 72 -89 56 -120 71 -152 72 -39 1 -40 0 -43 -34 -3 -31 4 -42 63 -100 36 -35 65 -70 65 -78 0 -7 -9 -31 -21 -53 -12 -25 -19 -55 -17 -77 3 -36 4 -37 41 -37 27 0 36 -4 32 -13 -3 -8 -8 -25 -11 -38 -3 -13 -11 -24 -18 -24 -6 0 -96 23 -200 50 -206 55 -261 61 -271 31 -14 -46 7 -63 161 -127 l149 -62 7 -92 c8 -106 18 -123 65 -118 27 3 33 0 33 -14 0 -11 -7 -18 -18 -18 -90 0 -719 -53 -729 -62 -17 -14 -17 -52 0 -66 11 -9 463 -42 580 -42 35 0 37 -2 37 -32 0 -60 28 -152 78 -258 56 -118 74 -139 152 -173 46 -20 64 -36 100 -88 59 -86 199 -223 289 -284 l73 -50 -6 -45 c-76 -554 31 -1040 312 -1416 126 -168 331 -354 391 -354 57 0 65 39 23 109 -45 72 -63 138 -69 247 -6 106 7 229 34 323 11 37 14 80 11 140 -5 98 -25 148 -88 225 -39 46 -52 75 -29 60 30 -18 80 -22 95 -7 13 13 12 20 -10 57 -23 39 -23 43 -9 71 9 17 27 43 42 58 25 27 26 33 26 147 0 115 1 119 22 125 17 4 27 20 41 66 l19 62 89 22 c49 13 116 35 149 49 l60 27 20 -28 c50 -69 77 -93 106 -93 54 0 57 46 10 137 -11 23 -21 44 -21 46 0 3 17 16 38 29 20 14 63 49 95 78 l57 52 154 -92 c176 -104 219 -122 242 -98 11 11 14 25 10 45 -5 23 -38 53 -149 138 -78 60 -145 111 -149 114 -4 4 6 27 23 51 16 25 44 72 61 105 17 33 32 62 33 63 2 2 96 -22 210 -53 124 -33 222 -55 244 -53 32 3 36 6 39 35 4 41 0 44 -233 138 -104 42 -193 80 -196 83 -4 4 1 44 10 89 l16 83 40 0 c143 0 631 33 637 43 10 15 10 49 0 64 -5 8 -196 27 -592 57 -322 26 -591 46 -597 46 -10 0 -13 36 -13 148 -1 298 -56 540 -185 807 -139 289 -401 605 -500 605 -25 0 -35 -5 -40 -21z m301 -305 c218 -290 344 -632 368 -1001 4 -65 2 -82 -10 -87 -10 -4 -14 2 -14 20 0 14 -4 23 -9 20 -5 -3 -11 4 -14 15 -4 14 -11 20 -21 16 -8 -3 -16 -2 -18 3 -2 5 -10 10 -18 12 -18 4 -28 24 -30 63 l-2 30 -8 -30 -7 -30 -12 30 c-16 41 -35 79 -42 85 -3 3 -16 64 -29 135 -28 164 -68 320 -121 472 -50 142 -134 313 -153 313 -21 0 -74 -47 -91 -81 -27 -52 -19 -95 36 -189 62 -108 90 -195 90 -278 0 -84 -21 -120 -81 -138 -53 -16 -73 -17 -65 -5 11 18 -18 24 -31 7 -11 -16 -13 -14 -16 16 -2 25 -7 32 -20 30 -12 -2 -16 2 -12 13 8 20 -6 19 -21 -2 -11 -15 -15 -12 -38 24 -15 23 -30 44 -35 47 -5 3 5 21 23 40 56 60 75 116 86 250 13 154 29 211 76 266 35 40 38 49 38 103 l0 59 71 -75 c39 -41 97 -110 130 -153z m-110 -101 c113 -248 214 -664 218 -900 1 -89 0 -92 -29 -123 -37 -39 -59 -36 -98 12 l-30 38 12 69 c18 99 1 184 -54 271 l-26 41 30 46 c73 110 48 305 -61 487 -43 70 -48 96 -27 122 20 24 29 16 65 -63z m-486 -153 c12 -9 90 -221 95 -256 2 -19 6 -38 9 -42 2 -4 -8 -7 -23 -8 -20 -1 -30 6 -39 25 -14 29 -70 247 -70 271 1 8 -2 33 -6 55 l-7 40 17 -40 c10 -22 21 -42 24 -45z m-274 -155 c63 -62 164 -190 164 -208 0 -10 -8 -17 -20 -17 -11 0 -20 -7 -20 -15 0 -37 -30 -6 -87 90 -35 58 -63 110 -63 117 0 6 -6 19 -14 27 -8 9 -28 43 -45 76 l-31 60 37 -45 c21 -25 56 -63 79 -85z m-72 19 c8 -21 8 -21 -28 -30 l-29 -7 19 26 c22 31 30 33 38 11z m-225 -208 c36 -24 74 -46 83 -49 24 -8 218 -135 218 -142 0 -3 -11 -18 -25 -33 -14 -15 -25 -33 -25 -40 0 -19 -69 41 -230 198 -137 134 -139 141 -21 66z m-21 -38 c18 -18 15 -24 -19 -48 -38 -28 -44 -22 -23 24 19 39 24 42 42 24z m-203 -270 c77 -20 190 -48 250 -63 61 -15 112 -29 114 -31 3 -3 -5 -11 -17 -20 -17 -12 -20 -19 -12 -39 5 -14 8 -25 6 -25 -11 0 -186 75 -212 91 -17 10 -38 19 -46 19 -7 0 -32 9 -53 21 -22 11 -74 34 -115 51 -65 26 -113 51 -70 36 8 -3 78 -21 155 -40z m67 -75 c4 -2 -4 -25 -16 -51 -13 -26 -26 -54 -29 -62 -3 -8 -6 15 -6 51 -1 36 2 68 5 72 5 5 26 1 46 -10z m1114 -257 c25 -24 34 -43 34 -66 0 -44 -56 -100 -100 -100 -44 0 -100 56 -100 100 0 44 56 100 100 100 23 0 42 -9 66 -34z m-934 -32 c-12 -21 -4 -53 17 -78 16 -18 13 -18 -89 -12 -126 7 -187 11 -390 25 -85 6 -180 11 -210 12 -97 1 -41 8 240 30 233 18 364 29 428 37 9 2 10 -3 4 -14z m2098 -60 c364 -26 483 -41 365 -43 -33 -1 -132 -6 -220 -11 -88 -5 -223 -12 -300 -15 -77 -2 -182 -7 -233 -11 -81 -5 -91 -4 -86 10 3 9 11 13 16 10 6 -4 5 3 -1 15 -7 11 -19 21 -28 21 -12 0 -13 3 -3 15 10 12 9 16 -2 20 -8 3 -19 5 -24 4 -9 -2 -64 18 -64 23 0 4 98 -2 580 -38z m-2317 -136 c4 -57 9 -114 12 -128 l6 -25 -15 25 c-20 32 -43 111 -51 178 -7 50 -6 52 18 52 23 0 24 -2 30 -102z m652 27 c236 -10 266 -25 223 -113 -20 -40 -23 -62 -23 -157 0 -101 2 -115 29 -169 16 -32 41 -72 56 -90 26 -29 27 -35 22 -108 l-5 -77 -51 26 c-40 20 -114 66 -144 89 -2 1 6 46 17 100 22 107 17 134 -23 134 -31 0 -44 -17 -71 -91 l-22 -61 -52 68 c-84 112 -153 276 -175 422 l-7 44 38 -6 c21 -3 106 -8 188 -11z m1532 -29 c-3 -8 -11 -33 -18 -55 -7 -23 -17 -40 -23 -37 -6 2 -60 24 -121 47 l-110 44 85 6 c168 11 193 10 187 -5z m48 -87 c-9 -35 -21 -69 -26 -75 -14 -17 2 -25 138 -79 68 -27 121 -50 119 -52 -2 -2 -61 12 -132 32 -134 36 -170 42 -159 25 10 -15 -35 -105 -99 -198 -31 -46 -54 -88 -51 -93 4 -5 42 -36 86 -69 43 -34 79 -63 79 -65 0 -3 -41 20 -90 50 -50 30 -95 55 -101 55 -6 0 -43 -29 -84 -64 -94 -82 -163 -129 -179 -123 -10 4 -12 -1 -9 -14 7 -24 -4 -24 -31 -1 -20 16 -20 16 -7 -1 12 -15 8 -19 -45 -43 -76 -34 -189 -70 -241 -79 -37 -6 -43 -4 -44 12 -1 17 -7 -2 -30 -89 -5 -21 -13 -38 -18 -38 -4 0 -16 18 -26 40 -11 24 -25 40 -35 40 -35 0 -84 -78 -73 -118 2 -11 22 -34 43 -51 30 -24 39 -39 44 -74 9 -59 -6 -120 -39 -159 -16 -18 -34 -46 -41 -63 l-13 -30 -1 42 c0 51 -12 60 -41 31 -47 -50 -63 -136 -35 -201 7 -18 30 -52 51 -77 84 -99 108 -210 71 -330 -41 -138 -42 -403 -1 -520 8 -24 14 -44 12 -46 -1 -2 -34 24 -72 57 -254 218 -443 561 -506 915 -27 153 -32 486 -9 639 l15 100 8 -220 c4 -121 8 -233 10 -250 1 -17 -3 -30 -10 -30 -6 0 -15 -3 -19 -8 -4 -4 4 -7 17 -7 22 0 26 -8 47 -83 30 -107 108 -264 174 -351 73 -94 82 -99 119 -58 40 45 39 95 -6 211 -53 137 -63 217 -41 343 10 57 19 133 20 169 2 49 10 81 29 121 15 30 27 71 27 90 l0 34 63 -8 c82 -10 171 -8 227 7 36 9 44 15 42 31 -2 17 7 22 50 33 29 7 93 26 141 43 86 29 89 29 110 11 11 -10 17 -13 14 -7 -10 16 18 25 33 11 10 -10 10 -8 1 10 -6 12 -11 24 -11 26 0 2 38 27 84 55 88 54 146 98 146 112 0 9 -444 280 -471 287 -11 3 -19 2 -19 -1 0 -4 23 -50 51 -103 53 -97 49 -111 -14 -46 -43 46 -64 152 -35 181 15 15 70 15 119 2 19 -5 120 -74 224 -152 l188 -142 49 54 c62 70 142 196 135 214 -3 7 -18 17 -34 20 -15 4 -59 16 -96 28 -56 17 -66 23 -56 34 9 11 8 19 -6 34 -10 11 -15 20 -12 20 4 0 52 -18 107 -40 55 -22 109 -40 118 -40 14 0 24 18 42 75 28 90 38 92 15 4z m-338 -116 c100 -27 173 -51 173 -58 0 -7 -23 -42 -51 -79 -34 -46 -54 -64 -62 -58 -231 174 -265 202 -260 222 3 11 10 20 16 20 6 0 88 -21 184 -47z m-69 -318 c5 -5 -101 -75 -113 -75 -5 0 -36 50 -68 110 l-59 110 119 -71 c65 -39 120 -73 121 -74z m-329 -70 c57 -75 58 -81 20 -94 -18 -6 -34 -11 -35 -11 -2 0 -4 15 -4 34 0 18 -7 53 -15 76 -24 68 -20 67 34 -5z m-828 -198 c-8 -8 -11 -5 -12 9 -4 55 14 93 19 40 2 -21 -1 -43 -7 -49z m125 -110 c38 -13 86 -27 107 -31 31 -6 37 -10 32 -24 -4 -9 -11 -60 -15 -112 -4 -52 -13 -117 -20 -145 -16 -63 -16 -235 -1 -300 7 -27 25 -82 42 -123 16 -40 29 -83 29 -94 0 -21 0 -21 -21 -2 -31 28 -105 152 -138 231 -54 131 -76 231 -92 406 -8 99 -6 217 5 217 1 0 34 -11 72 -23z"/>
 </g>
<g id="layer103" fill="#58554c" stroke="none">
 <path d="M2445 4709 c-5 -13 2 -39 19 -71 34 -65 33 -82 -8 -130 -40 -46 -64 -109 -73 -188 l-5 -56 -77 -16 c-42 -10 -85 -20 -97 -23 -19 -6 -25 5 -65 110 -35 93 -49 119 -68 126 -41 16 -61 3 -61 -41 0 -32 26 -163 46 -231 3 -12 -18 -29 -76 -63 -44 -25 -84 -46 -89 -46 -5 0 -44 42 -86 93 -87 103 -94 110 -133 105 -23 -3 -27 -8 -30 -40 -3 -30 6 -53 39 -109 l43 -72 -22 -38 c-24 -42 -28 -79 -10 -97 8 -8 4 -20 -16 -47 -15 -19 -29 -35 -32 -35 -3 0 -55 32 -117 72 -89 56 -120 71 -152 72 -39 1 -40 0 -43 -34 -3 -31 4 -42 63 -100 36 -35 65 -70 65 -78 0 -7 -9 -31 -21 -53 -12 -25 -19 -55 -17 -77 3 -36 4 -37 41 -37 27 0 36 -4 32 -13 -3 -8 -8 -25 -11 -38 -3 -13 -11 -24 -18 -24 -6 0 -96 23 -200 50 -206 55 -261 61 -271 31 -14 -46 7 -63 161 -127 l149 -62 7 -92 c8 -106 18 -123 65 -118 27 3 33 0 33 -14 0 -11 -7 -18 -18 -18 -90 0 -719 -53 -729 -62 -17 -14 -17 -52 0 -66 11 -9 463 -42 580 -42 35 0 37 -2 37 -32 0 -60 28 -152 78 -258 56 -118 74 -139 152 -173 46 -20 64 -36 100 -88 59 -86 199 -223 289 -284 l73 -50 -6 -45 c-76 -554 31 -1040 312 -1416 126 -168 331 -354 391 -354 57 0 65 39 23 109 -45 72 -63 138 -69 247 -6 106 7 229 34 323 11 37 14 80 11 140 -5 98 -25 148 -88 225 -39 46 -52 75 -29 60 30 -18 80 -22 95 -7 13 13 12 20 -10 57 -23 39 -23 43 -9 71 9 17 27 43 42 58 25 27 26 33 26 147 0 115 1 119 22 125 17 4 27 20 41 66 l19 62 89 22 c49 13 116 35 149 49 l60 27 20 -28 c50 -69 77 -93 106 -93 54 0 57 46 10 137 -11 23 -21 44 -21 46 0 3 17 16 38 29 20 14 63 49 95 78 l57 52 154 -92 c176 -104 219 -122 242 -98 11 11 14 25 10 45 -5 23 -38 53 -149 138 -78 60 -145 111 -149 114 -4 4 6 27 23 51 16 25 44 72 61 105 17 33 32 62 33 63 2 2 96 -22 210 -53 124 -33 222 -55 244 -53 32 3 36 6 39 35 4 41 0 44 -233 138 -104 42 -193 80 -196 83 -4 4 1 44 10 89 l16 83 40 0 c143 0 631 33 637 43 10 15 10 49 0 64 -5 8 -196 27 -592 57 -322 26 -591 46 -597 46 -10 0 -13 36 -13 148 -1 298 -56 540 -185 807 -139 289 -401 605 -500 605 -25 0 -35 -5 -40 -21z m249 -239 c167 -199 292 -439 360 -690 44 -165 58 -265 61 -464 2 -103 6 -190 8 -192 4 -4 66 -9 532 -44 386 -29 497 -39 501 -43 2 -1 -108 -9 -244 -17 -313 -17 -280 -16 -532 -24 l-215 -8 -19 30 c-11 16 -35 36 -53 43 -59 23 -98 84 -70 110 8 8 12 21 9 31 -3 11 1 18 10 18 22 0 36 20 31 41 -3 10 -12 19 -20 19 -7 0 -13 6 -12 13 6 47 -39 84 -91 74 l-27 -6 -17 135 c-35 284 -98 541 -183 749 -52 128 -102 225 -115 225 -19 0 -67 -41 -87 -74 -28 -44 -26 -92 4 -146 67 -120 97 -186 111 -247 20 -88 12 -147 -32 -214 -21 -34 -34 -66 -34 -87 0 -24 -3 -31 -12 -25 -19 11 -68 10 -68 -2 0 -5 -4 -4 -9 3 -4 7 -21 16 -37 21 -24 6 -32 16 -45 57 -21 64 -46 113 -72 142 l-21 22 37 38 c59 61 77 116 88 264 10 142 26 194 78 253 34 39 46 81 36 128 l-7 32 47 -45 c26 -25 75 -79 109 -120z m-58 -167 c113 -248 214 -664 218 -900 1 -89 0 -92 -29 -123 -37 -39 -59 -36 -98 12 l-30 38 12 69 c18 99 1 184 -54 271 l-26 41 30 46 c73 110 48 305 -61 487 -43 70 -48 96 -27 122 20 24 29 16 65 -63z m-485 -148 c36 -79 99 -246 99 -265 0 -8 8 -37 19 -65 35 -93 36 -98 13 -84 -16 10 -23 10 -35 0 -13 -10 -18 -4 -31 46 -9 32 -21 66 -26 75 -11 20 -57 207 -70 288 -6 30 -12 69 -15 85 -5 30 -5 30 7 5 6 -14 24 -52 39 -85z m-255 -181 c51 -52 154 -179 154 -188 0 -4 12 -23 26 -42 21 -27 23 -34 10 -34 -9 0 -25 -9 -36 -20 -20 -20 -20 -20 -37 8 -10 15 -23 32 -30 37 -16 14 -143 227 -143 241 0 6 -8 18 -17 25 -9 8 -14 9 -10 3 4 -6 -8 -15 -28 -22 -40 -12 -41 -10 -19 24 10 14 23 23 30 20 9 -3 3 15 -13 47 -16 29 -30 57 -32 62 -2 6 21 -19 51 -55 31 -36 73 -83 94 -106z m-301 -175 c172 -102 270 -165 294 -187 14 -14 36 -31 49 -40 l23 -15 -30 -15 c-17 -8 -33 -22 -36 -33 -6 -17 -10 -16 -53 11 -26 16 -123 104 -217 196 -93 92 -156 158 -140 148 17 -10 66 -39 110 -65z m-32 -37 c16 -17 14 -20 -28 -50 -25 -17 -45 -30 -45 -27 0 11 45 95 50 95 4 0 14 -8 23 -18z m-183 -268 c265 -67 410 -106 410 -113 0 -4 -9 -15 -21 -25 -13 -11 -19 -25 -16 -37 3 -10 1 -19 -4 -19 -15 0 -243 92 -259 105 -23 19 -67 27 -67 12 -1 -6 -13 -39 -27 -72 l-26 -60 0 77 c0 49 4 78 11 80 7 2 -15 16 -47 30 -176 77 -176 77 46 22z m1156 -328 c25 -24 34 -43 34 -66 0 -44 -56 -100 -100 -100 -44 0 -100 56 -100 100 0 44 56 100 100 100 23 0 42 -9 66 -34z m-865 -30 c-18 -21 -9 -66 18 -88 l25 -19 -94 6 c-52 3 -187 12 -300 20 -113 8 -263 17 -333 21 -70 4 -126 8 -124 10 2 2 129 13 283 25 153 11 308 24 344 28 36 5 94 9 129 10 52 1 61 -1 52 -13z m-291 -158 c1 -35 7 -94 14 -131 11 -58 11 -66 0 -55 -21 21 -52 116 -60 186 l-7 62 27 0 c25 0 26 -2 26 -62z m655 -13 c236 -10 266 -25 223 -113 -20 -40 -23 -62 -23 -157 0 -101 2 -115 29 -169 16 -32 41 -72 56 -90 26 -29 27 -35 22 -108 l-5 -77 -51 26 c-40 20 -114 66 -144 89 -2 1 6 46 17 100 22 107 17 134 -23 134 -31 0 -44 -17 -71 -91 l-22 -61 -52 68 c-84 112 -153 276 -175 422 l-7 44 38 -6 c21 -3 106 -8 188 -11z m1590 -82 c-9 -43 -22 -86 -27 -97 -15 -27 1 -37 150 -97 73 -30 130 -55 125 -56 -4 -1 -71 15 -148 36 -77 21 -144 36 -150 34 -5 -3 -27 -40 -48 -83 -20 -43 -57 -105 -82 -139 -25 -34 -45 -63 -45 -66 0 -2 45 -38 100 -80 55 -42 100 -78 100 -80 0 -2 -48 25 -107 60 -60 36 -112 65 -117 65 -4 0 -34 -23 -65 -52 -52 -48 -144 -119 -186 -143 -16 -9 -16 -14 -5 -35 13 -25 13 -25 -8 -6 -22 19 -23 19 -89 -12 -88 -39 -182 -70 -244 -78 -47 -6 -49 -8 -59 -48 -22 -84 -24 -85 -54 -33 -30 51 -34 53 -58 35 -59 -48 -62 -102 -9 -150 67 -60 70 -160 7 -242 -20 -26 -39 -59 -43 -74 -6 -24 -7 -25 -14 -7 -4 11 -8 32 -8 48 -1 15 -5 27 -9 27 -27 0 -72 -89 -72 -142 1 -44 29 -103 75 -158 81 -96 98 -179 65 -315 -42 -174 -43 -415 -1 -525 11 -29 19 -55 17 -58 -7 -7 -144 117 -203 183 -218 248 -354 549 -398 882 -32 242 -5 683 51 833 l13 35 -5 -40 c-2 -22 -10 -71 -16 -110 -17 -107 -21 -327 -8 -439 29 -246 120 -465 259 -625 34 -39 52 -37 81 11 27 45 25 85 -10 174 -57 142 -73 264 -50 359 6 22 14 88 19 148 7 86 14 118 36 161 26 51 27 59 18 120 -7 52 -7 69 4 77 7 6 13 8 13 5 0 -4 6 -1 14 6 10 11 31 12 87 7 79 -7 141 8 167 40 11 14 14 14 22 1 5 -8 10 -26 10 -40 1 -49 11 -53 81 -35 123 30 222 69 227 87 5 20 11 22 32 8 8 -5 17 -6 20 -1 3 4 32 22 65 40 33 18 84 51 114 73 51 39 53 41 35 58 -32 29 -456 282 -463 275 -3 -4 18 -51 47 -106 29 -54 50 -99 46 -99 -10 0 -68 44 -86 65 -21 26 -38 91 -38 149 0 54 13 61 96 50 40 -5 65 -14 88 -34 17 -14 107 -84 200 -155 l170 -128 38 44 c46 53 148 202 148 217 0 10 -66 33 -225 77 -77 22 -76 21 -64 52 7 19 6 28 -3 34 -7 4 -10 10 -8 13 3 3 75 -22 160 -55 85 -33 159 -58 166 -55 11 4 64 157 64 185 0 8 3 12 6 8 3 -3 -2 -41 -11 -84z m-58 53 c-3 -8 -11 -33 -18 -55 -7 -23 -17 -40 -23 -37 -6 2 -60 24 -121 47 l-110 44 85 6 c168 11 193 10 187 -5z m-290 -203 c100 -27 173 -51 173 -58 0 -7 -23 -42 -51 -79 -34 -46 -54 -64 -62 -58 -231 174 -265 202 -260 222 3 11 10 20 16 20 6 0 88 -21 184 -47z m-69 -318 c5 -5 -101 -75 -113 -75 -5 0 -36 50 -68 110 l-59 110 119 -71 c65 -39 120 -73 121 -74z m-329 -70 c57 -75 58 -81 20 -94 -18 -6 -34 -11 -35 -11 -2 0 -4 15 -4 34 0 18 -7 53 -15 76 -24 68 -20 67 34 -5z m-703 -308 c38 -13 86 -27 107 -31 31 -6 37 -10 32 -24 -4 -9 -11 -60 -15 -112 -4 -52 -13 -117 -20 -145 -16 -63 -16 -235 -1 -300 7 -27 25 -82 42 -123 16 -40 29 -83 29 -94 0 -21 0 -21 -21 -2 -31 28 -105 152 -138 231 -54 131 -76 231 -92 406 -8 99 -6 217 5 217 1 0 34 -11 72 -23z"/>
 </g>
<g id="layer104" fill="#847d70" stroke="none">
 <path d="M2445 4709 c-5 -13 2 -39 19 -71 34 -65 33 -82 -8 -130 -40 -46 -64 -109 -73 -188 l-5 -56 -77 -16 c-42 -10 -85 -20 -97 -23 -19 -6 -25 5 -65 110 -35 93 -49 119 -68 126 -41 16 -61 3 -61 -41 0 -32 26 -163 46 -231 3 -12 -18 -29 -76 -63 -44 -25 -84 -46 -89 -46 -5 0 -44 42 -86 93 -87 103 -94 110 -133 105 -23 -3 -27 -8 -30 -40 -3 -30 6 -53 39 -109 l43 -72 -22 -38 c-24 -42 -28 -79 -10 -97 8 -8 4 -20 -16 -47 -15 -19 -29 -35 -32 -35 -3 0 -55 32 -117 72 -89 56 -120 71 -152 72 -39 1 -40 0 -43 -34 -3 -31 4 -42 63 -100 36 -35 65 -70 65 -78 0 -7 -9 -31 -21 -53 -12 -25 -19 -55 -17 -77 3 -36 4 -37 41 -37 27 0 36 -4 32 -13 -3 -8 -8 -25 -11 -38 -3 -13 -11 -24 -18 -24 -6 0 -96 23 -200 50 -206 55 -261 61 -271 31 -14 -46 7 -63 161 -127 l149 -62 7 -92 c8 -106 18 -123 65 -118 27 3 33 0 33 -14 0 -11 -7 -18 -18 -18 -90 0 -719 -53 -729 -62 -17 -14 -17 -52 0 -66 11 -9 463 -42 580 -42 35 0 37 -2 37 -32 0 -60 28 -152 78 -258 56 -118 74 -139 152 -173 46 -20 64 -36 100 -88 59 -86 199 -223 289 -284 l73 -50 -6 -45 c-76 -554 31 -1040 312 -1416 126 -168 331 -354 391 -354 57 0 65 39 23 109 -45 72 -63 138 -69 247 -6 106 7 229 34 323 11 37 14 80 11 140 -5 98 -25 148 -88 225 -39 46 -52 75 -29 60 30 -18 80 -22 95 -7 13 13 12 20 -10 57 -23 39 -23 43 -9 71 9 17 27 43 42 58 25 27 26 33 26 147 0 115 1 119 22 125 17 4 27 20 41 66 l19 62 89 22 c49 13 116 35 149 49 l60 27 20 -28 c50 -69 77 -93 106 -93 54 0 57 46 10 137 -11 23 -21 44 -21 46 0 3 17 16 38 29 20 14 63 49 95 78 l57 52 154 -92 c176 -104 219 -122 242 -98 11 11 14 25 10 45 -5 23 -38 53 -149 138 -78 60 -145 111 -149 114 -4 4 6 27 23 51 16 25 44 72 61 105 17 33 32 62 33 63 2 2 96 -22 210 -53 124 -33 222 -55 244 -53 32 3 36 6 39 35 4 41 0 44 -233 138 -104 42 -193 80 -196 83 -4 4 1 44 10 89 l16 83 40 0 c143 0 631 33 637 43 10 15 10 49 0 64 -5 8 -196 27 -592 57 -322 26 -591 46 -597 46 -10 0 -13 36 -13 148 -1 298 -56 540 -185 807 -139 289 -401 605 -500 605 -25 0 -35 -5 -40 -21z m191 -166 c188 -212 312 -423 394 -672 63 -190 82 -307 89 -541 l6 -205 532 -41 c479 -36 630 -53 502 -55 -95 -1 -498 -25 -503 -30 -3 -2 -14 -49 -26 -104 -12 -55 -24 -109 -27 -121 -4 -19 12 -28 166 -90 93 -37 168 -70 167 -72 -2 -2 -79 17 -170 42 -92 25 -172 46 -180 46 -7 0 -29 -33 -49 -73 -20 -41 -59 -105 -87 -142 -27 -38 -46 -72 -42 -76 4 -3 55 -43 115 -88 59 -46 107 -85 107 -87 0 -3 -3 -3 -7 -1 -5 3 -61 37 -126 76 -65 39 -121 71 -124 71 -3 0 -35 -28 -72 -62 -36 -35 -92 -80 -124 -101 -61 -41 -64 -48 -42 -87 22 -38 18 -46 -7 -14 -12 16 -25 33 -29 37 -3 5 -25 -1 -47 -12 -65 -33 -164 -68 -245 -86 l-75 -17 -12 -46 c-18 -77 -24 -79 -59 -22 -32 51 -32 52 -53 34 -24 -22 -48 -67 -48 -89 0 -9 20 -35 45 -57 l45 -41 0 -78 c0 -73 -2 -79 -35 -119 -19 -23 -40 -59 -47 -81 -14 -48 -28 -34 -28 29 0 23 -4 42 -10 42 -5 0 -21 -20 -35 -43 -45 -78 -32 -166 36 -244 88 -101 107 -194 69 -343 -26 -108 -37 -308 -21 -410 7 -41 23 -99 36 -128 30 -65 19 -61 -79 28 -373 338 -568 823 -543 1350 9 187 58 504 81 528 9 8 7 -36 -5 -108 -30 -180 -27 -451 6 -610 36 -173 115 -348 210 -463 65 -78 81 -78 111 -2 18 50 21 36 -45 217 -40 109 -45 182 -21 318 11 67 18 130 15 139 -7 23 19 120 44 162 18 31 19 41 10 103 -6 38 -9 104 -7 147 2 63 7 83 26 106 12 15 25 36 29 46 3 9 10 17 15 17 5 0 7 4 4 8 -3 5 4 19 14 30 15 15 28 20 48 17 15 -3 37 -7 49 -8 12 -2 26 -6 29 -10 4 -4 17 -7 29 -7 29 0 47 -23 72 -91 14 -37 18 -60 12 -66 -15 -15 11 -133 29 -133 24 0 134 29 210 56 l72 26 -20 33 c-18 30 -19 65 -1 65 4 0 17 -18 30 -40 l22 -40 62 31 c75 38 176 110 177 126 0 11 -442 283 -461 283 -6 0 14 -46 44 -102 67 -129 72 -142 49 -129 -9 5 -40 31 -69 58 -55 51 -70 86 -80 183 -5 52 -4 56 19 67 22 10 66 9 153 -2 17 -2 36 -4 43 -4 10 -1 10 -5 0 -21 -7 -10 -10 -21 -8 -23 88 -70 353 -267 360 -267 21 0 163 187 182 241 5 13 -15 22 -110 48 -65 18 -154 44 -200 59 l-83 26 -29 59 -29 59 27 -7 c15 -4 123 -44 240 -91 118 -46 215 -84 217 -84 7 0 65 190 65 212 0 21 -2 21 -122 15 -68 -4 -194 -10 -281 -13 l-158 -7 -28 29 c-31 33 -74 68 -113 92 -31 18 -53 63 -45 91 3 11 1 21 -4 23 -5 2 1 23 13 48 26 52 27 102 3 280 -32 250 -92 497 -166 683 -45 112 -104 233 -118 242 -16 9 -89 -63 -101 -101 -16 -46 -9 -68 51 -172 90 -158 112 -285 65 -372 -63 -115 -62 -102 -16 -193 27 -55 42 -100 45 -137 3 -30 3 -49 -1 -42 -3 6 -10 10 -15 7 -4 -3 -20 1 -33 10 -14 9 -30 14 -36 10 -5 -3 -13 0 -16 9 -3 8 -18 18 -34 21 -16 3 -34 12 -40 20 -6 8 -24 16 -39 20 -28 6 -28 8 -34 93 -7 105 -26 171 -67 236 l-31 49 29 31 c17 17 40 51 52 75 20 40 20 45 6 53 -9 5 -28 31 -41 59 -28 53 -29 51 35 67 l35 8 6 71 c8 82 34 147 79 193 31 31 32 36 28 95 -3 48 -1 62 9 58 7 -3 47 -43 89 -90z m0 -240 c113 -248 214 -664 218 -900 1 -89 0 -92 -29 -123 -37 -39 -59 -36 -98 12 l-30 38 12 69 c18 99 1 184 -54 271 l-26 41 30 46 c73 110 48 305 -61 487 -43 70 -48 96 -27 122 20 24 29 16 65 -63z m-508 -86 c69 -167 213 -559 227 -622 6 -25 5 -28 -6 -17 -7 6 -30 12 -50 12 l-37 0 -31 118 c-18 64 -38 135 -46 157 -12 38 -42 164 -80 340 -10 44 -20 87 -23 95 -3 8 -1 11 3 7 5 -4 24 -45 43 -90z m-241 -228 c50 -57 105 -122 123 -144 93 -120 190 -247 190 -250 0 -2 -17 -3 -37 -3 -24 0 -41 -6 -50 -18 -12 -17 -14 -17 -28 2 -8 10 -31 46 -51 79 -20 33 -45 69 -54 80 -23 27 -140 224 -140 235 0 18 -21 21 -56 10 -19 -7 -37 -10 -39 -8 -3 2 8 21 22 42 21 28 25 41 17 54 -6 9 -20 35 -33 57 l-23 40 33 -36 c19 -19 75 -82 126 -140z m-328 -167 c47 -29 94 -58 105 -62 25 -11 178 -110 307 -200 68 -48 88 -66 73 -68 -23 -4 -53 -40 -54 -64 0 -33 -18 -26 -84 32 -37 33 -70 60 -74 60 -4 0 -61 51 -126 114 l-120 114 -53 -39 c-29 -22 -53 -37 -53 -34 0 3 13 32 30 64 l29 59 -57 52 c-65 58 -44 51 77 -28z m81 -393 c198 -53 312 -92 280 -97 -29 -4 -60 -29 -60 -49 0 -7 -4 -13 -10 -13 -41 0 -231 69 -348 127 -63 32 -70 28 -107 -63 -30 -73 -41 -56 -32 50 l6 72 -107 43 c-59 24 -111 47 -116 52 -9 8 224 -50 494 -122z m896 -263 c25 -24 34 -43 34 -66 0 -44 -56 -100 -100 -100 -44 0 -100 56 -100 100 0 44 56 100 100 100 23 0 42 -9 66 -34z m-766 -14 c9 -4 16 -23 17 -46 2 -21 8 -44 13 -52 9 -10 1 -14 -36 -20 -47 -7 -231 0 -331 12 l-53 7 0 -44 c0 -24 7 -86 15 -138 9 -52 14 -96 12 -98 -7 -7 -34 42 -52 93 -9 27 -20 77 -22 112 -3 34 -11 66 -17 69 -10 6 -362 31 -460 32 -100 2 -2 14 305 38 593 46 585 46 609 35z m265 -187 c236 -10 266 -25 223 -113 -20 -40 -23 -62 -23 -157 0 -101 2 -115 29 -169 16 -32 41 -72 56 -90 26 -29 27 -35 22 -108 l-5 -77 -51 26 c-40 20 -114 66 -144 89 -2 1 6 46 17 100 22 107 17 134 -23 134 -31 0 -44 -17 -71 -91 l-22 -61 -52 68 c-84 112 -153 276 -175 422 l-7 44 38 -6 c21 -3 106 -8 188 -11z m1532 -29 c-3 -8 -11 -33 -18 -55 -7 -23 -17 -40 -23 -37 -6 2 -60 24 -121 47 l-110 44 85 6 c168 11 193 10 187 -5z m-290 -203 c100 -27 173 -51 173 -58 0 -7 -23 -42 -51 -79 -34 -46 -54 -64 -62 -58 -231 174 -265 202 -260 222 3 11 10 20 16 20 6 0 88 -21 184 -47z m-69 -318 c5 -5 -101 -75 -113 -75 -5 0 -36 50 -68 110 l-59 110 119 -71 c65 -39 120 -73 121 -74z m-329 -70 c57 -75 58 -81 20 -94 -18 -6 -34 -11 -35 -11 -2 0 -4 15 -4 34 0 18 -7 53 -15 76 -24 68 -20 67 34 -5z m-703 -308 c38 -13 86 -27 107 -31 31 -6 37 -10 32 -24 -4 -9 -11 -60 -15 -112 -4 -52 -13 -117 -20 -145 -16 -63 -16 -235 -1 -300 7 -27 25 -82 42 -123 16 -40 29 -83 29 -94 0 -21 0 -21 -21 -2 -31 28 -105 152 -138 231 -54 131 -76 231 -92 406 -8 99 -6 217 5 217 1 0 34 -11 72 -23z"/>
 </g>
<g id="layer105" fill="#7b8288" stroke="none">
 <path d="M2445 4709 c-5 -13 2 -39 19 -71 34 -65 33 -82 -8 -130 -40 -46 -64 -109 -73 -188 l-5 -56 -77 -16 c-42 -10 -85 -20 -97 -23 -19 -6 -25 5 -65 110 -35 93 -49 119 -68 126 -41 16 -61 3 -61 -41 0 -32 26 -163 46 -231 3 -12 -18 -29 -76 -63 -44 -25 -84 -46 -89 -46 -5 0 -44 42 -86 93 -87 103 -94 110 -133 105 -23 -3 -27 -8 -30 -40 -3 -30 6 -53 39 -109 l43 -72 -22 -38 c-24 -42 -28 -79 -10 -97 8 -8 4 -20 -16 -47 -15 -19 -29 -35 -32 -35 -3 0 -55 32 -117 72 -89 56 -120 71 -152 72 -39 1 -40 0 -43 -34 -3 -31 4 -42 63 -100 36 -35 65 -70 65 -78 0 -7 -9 -31 -21 -53 -12 -25 -19 -55 -17 -77 3 -36 4 -37 41 -37 27 0 36 -4 32 -13 -3 -8 -8 -25 -11 -38 -3 -13 -11 -24 -18 -24 -6 0 -96 23 -200 50 -206 55 -261 61 -271 31 -14 -46 7 -63 161 -127 l149 -62 7 -92 c8 -106 18 -123 65 -118 27 3 33 0 33 -14 0 -11 -7 -18 -18 -18 -90 0 -719 -53 -729 -62 -17 -14 -17 -52 0 -66 11 -9 463 -42 580 -42 35 0 37 -2 37 -32 0 -60 28 -152 78 -258 56 -118 74 -139 152 -173 46 -20 64 -36 100 -88 59 -86 199 -223 289 -284 l73 -50 -6 -45 c-76 -554 31 -1040 312 -1416 126 -168 331 -354 391 -354 57 0 65 39 23 109 -45 72 -63 138 -69 247 -6 106 7 229 34 323 11 37 14 80 11 140 -5 98 -25 148 -88 225 -39 46 -52 75 -29 60 30 -18 80 -22 95 -7 13 13 12 20 -10 57 -23 39 -23 43 -9 71 9 17 27 43 42 58 25 27 26 33 26 147 0 115 1 119 22 125 17 4 27 20 41 66 l19 62 89 22 c49 13 116 35 149 49 l60 27 20 -28 c50 -69 77 -93 106 -93 54 0 57 46 10 137 -11 23 -21 44 -21 46 0 3 17 16 38 29 20 14 63 49 95 78 l57 52 154 -92 c176 -104 219 -122 242 -98 11 11 14 25 10 45 -5 23 -38 53 -149 138 -78 60 -145 111 -149 114 -4 4 6 27 23 51 16 25 44 72 61 105 17 33 32 62 33 63 2 2 96 -22 210 -53 124 -33 222 -55 244 -53 32 3 36 6 39 35 4 41 0 44 -233 138 -104 42 -193 80 -196 83 -4 4 1 44 10 89 l16 83 40 0 c143 0 631 33 637 43 10 15 10 49 0 64 -5 8 -196 27 -592 57 -322 26 -591 46 -597 46 -10 0 -13 36 -13 148 -1 298 -56 540 -185 807 -139 289 -401 605 -500 605 -25 0 -35 -5 -40 -21z m202 -179 c222 -247 377 -555 443 -877 24 -121 41 -344 33 -448 -6 -72 -5 -74 18 -79 13 -3 245 -21 514 -41 270 -20 508 -40 530 -45 l40 -8 -50 -1 c-117 -4 -515 -28 -518 -32 -2 -2 -13 -49 -26 -104 -13 -55 -25 -109 -28 -120 -4 -18 16 -28 166 -89 94 -38 169 -71 167 -73 -2 -3 -80 16 -173 41 -93 25 -174 46 -179 46 -6 0 -21 -24 -35 -52 -13 -29 -50 -92 -81 -140 -32 -47 -58 -90 -58 -95 1 -4 46 -42 101 -83 55 -41 110 -83 122 -93 21 -18 21 -18 -11 -2 -19 9 -81 46 -139 81 l-104 65 -76 -67 c-42 -36 -100 -82 -130 -101 -29 -20 -53 -40 -53 -45 0 -5 9 -28 21 -51 l20 -42 -36 42 -36 43 -57 -29 c-62 -31 -194 -75 -258 -85 -40 -7 -41 -8 -58 -67 -9 -34 -21 -57 -26 -54 -6 4 -19 24 -30 46 -24 46 -41 49 -69 12 -40 -50 -38 -70 12 -121 35 -37 46 -56 51 -92 8 -62 -5 -108 -47 -163 -19 -25 -38 -61 -42 -78 -10 -43 -25 -19 -25 40 l0 44 -21 -19 c-31 -27 -49 -76 -49 -131 0 -52 14 -81 79 -163 76 -96 87 -183 46 -350 -8 -36 -18 -119 -22 -185 -7 -136 5 -227 42 -318 13 -32 19 -57 15 -55 -27 9 -159 132 -222 205 -205 237 -334 507 -390 809 -42 230 -24 658 36 883 29 107 34 70 11 -83 -19 -127 -19 -383 0 -506 34 -224 115 -412 241 -558 l37 -43 23 22 c37 35 49 86 31 134 -88 235 -99 300 -72 430 10 44 18 115 20 158 2 64 9 91 33 140 28 56 30 67 22 112 -26 147 3 330 60 386 26 25 30 26 80 16 29 -6 71 -20 94 -32 35 -18 45 -32 69 -89 20 -47 25 -71 18 -80 -7 -8 -6 -32 2 -75 l12 -63 38 6 c44 7 215 62 236 75 12 8 10 16 -12 50 -15 22 -24 47 -21 56 13 32 -10 72 -86 150 -68 69 -83 90 -100 144 -11 35 -20 77 -20 93 0 51 16 57 134 55 58 -1 106 1 106 6 0 4 4 7 10 7 12 0 2 -29 -17 -51 -13 -15 -5 -24 69 -81 206 -160 271 -208 278 -208 30 0 196 238 178 255 -3 3 -78 25 -167 50 -256 71 -296 86 -297 115 -2 32 -28 92 -37 84 -4 -4 -10 2 -14 12 -7 20 -18 31 -79 79 -59 46 -94 86 -94 106 0 11 -5 19 -12 19 -7 0 4 17 24 38 64 65 69 101 43 312 -24 193 -70 406 -124 568 -48 145 -138 353 -159 366 -17 10 -89 -61 -102 -99 -13 -39 -3 -89 28 -132 65 -92 112 -226 112 -318 0 -52 -5 -70 -35 -119 -41 -69 -44 -103 -10 -154 34 -52 55 -117 55 -171 0 -63 -8 -73 -48 -62 -18 6 -34 10 -37 11 -3 0 -20 7 -38 15 -18 7 -45 17 -60 20 -15 4 -27 11 -27 15 0 5 -13 11 -30 15 -16 4 -32 11 -36 16 -7 12 -72 39 -94 39 -18 0 -21 7 -81 231 -50 188 -131 540 -126 545 4 4 77 -171 127 -306 41 -111 159 -436 166 -458 6 -21 21 -5 27 30 13 85 -23 238 -74 310 l-21 30 30 31 c17 18 40 52 51 77 17 38 18 46 5 53 -18 10 -66 104 -56 110 4 3 25 10 48 16 l41 11 6 74 c6 79 24 125 77 191 29 37 32 45 28 98 -3 38 -1 56 6 54 6 -2 53 -50 103 -107z m-11 -227 c113 -248 214 -664 218 -900 1 -89 0 -92 -29 -123 -37 -39 -59 -36 -98 12 l-30 38 12 69 c18 99 1 184 -54 271 l-26 41 30 46 c73 110 48 305 -61 487 -43 70 -48 96 -27 122 20 24 29 16 65 -63z m-668 -409 c79 -95 265 -330 270 -342 1 -4 -18 -6 -43 -5 -34 1 -48 -4 -59 -18 -12 -18 -15 -17 -39 20 -15 22 -45 70 -68 108 -23 37 -45 70 -49 73 -9 6 -134 219 -143 243 -4 12 -13 16 -24 13 -82 -24 -83 -23 -40 36 l19 26 -31 55 c-17 30 -31 58 -31 61 0 7 73 -77 238 -270z m-405 -71 c181 -110 426 -269 493 -320 l31 -23 -33 -36 c-19 -19 -34 -44 -34 -55 0 -27 -9 -24 -60 22 -25 22 -67 58 -95 80 -27 23 -100 88 -162 145 -61 57 -115 104 -118 104 -4 0 -30 -16 -56 -35 -27 -19 -49 -33 -49 -30 0 3 11 28 25 55 14 27 25 55 25 62 0 7 -26 37 -57 66 -63 58 -64 59 90 -35z m-255 -306 c92 -24 217 -56 277 -71 61 -15 175 -48 254 -73 l145 -46 -34 -16 c-28 -13 -39 -25 -57 -59 -4 -8 -204 63 -322 113 -143 62 -138 63 -175 -29 -29 -71 -39 -59 -34 42 l3 76 -96 41 c-118 50 -146 63 -136 64 5 1 83 -19 175 -42z m1228 -351 c25 -24 34 -43 34 -66 0 -44 -56 -100 -100 -100 -44 0 -100 56 -100 100 0 44 56 100 100 100 23 0 42 -9 66 -34z m-770 -11 l70 -6 -4 -31 c-3 -20 2 -39 17 -59 l22 -29 -148 0 c-81 0 -188 5 -237 11 -63 8 -91 8 -99 0 -10 -10 2 -157 20 -246 6 -27 4 -29 -10 -17 -25 21 -58 120 -64 195 -3 37 -11 71 -17 74 -10 7 -372 31 -475 32 -103 2 -14 12 310 37 375 29 480 37 519 42 14 2 57 0 96 -3z m269 -190 c236 -10 266 -25 223 -113 -20 -40 -23 -62 -23 -157 0 -101 2 -115 29 -169 16 -32 41 -72 56 -90 26 -29 27 -35 22 -108 l-5 -77 -51 26 c-40 20 -114 66 -144 89 -2 1 6 46 17 100 22 107 17 134 -23 134 -31 0 -44 -17 -71 -91 l-22 -61 -52 68 c-84 112 -153 276 -175 422 l-7 44 38 -6 c21 -3 106 -8 188 -11z m1242 -232 c100 -27 173 -51 173 -58 0 -7 -23 -42 -51 -79 -34 -46 -54 -64 -62 -58 -231 174 -265 202 -260 222 3 11 10 20 16 20 6 0 88 -21 184 -47z m-398 -388 c57 -75 58 -81 20 -94 -18 -6 -34 -11 -35 -11 -2 0 -4 15 -4 34 0 18 -7 53 -15 76 -24 68 -20 67 34 -5z m-703 -308 c38 -13 86 -27 107 -31 31 -6 37 -10 32 -24 -4 -9 -11 -60 -15 -112 -4 -52 -13 -117 -20 -145 -16 -63 -16 -235 -1 -300 7 -27 25 -82 42 -123 16 -40 29 -83 29 -94 0 -21 0 -21 -21 -2 -31 28 -105 152 -138 231 -54 131 -76 231 -92 406 -8 99 -6 217 5 217 1 0 34 -11 72 -23z"/>
 <path d="M3290 2986 c-200 -11 -236 -19 -172 -40 15 -5 121 -47 236 -93 115 -46 210 -82 212 -81 6 7 53 156 59 191 l7 37 -68 -2 c-38 -1 -161 -6 -274 -12z m277 -50 c-3 -8 -11 -33 -18 -55 -7 -23 -17 -40 -23 -37 -6 2 -60 24 -121 47 l-110 44 85 6 c168 11 193 10 187 -5z"/>
 <path d="M2911 2543 c44 -87 97 -186 117 -220 l36 -62 65 34 c79 42 166 106 166 123 0 11 -439 282 -457 282 -4 0 29 -71 73 -157z m297 -128 c5 -5 -101 -75 -113 -75 -5 0 -36 50 -68 110 l-59 110 119 -71 c65 -39 120 -73 121 -74z"/>
 </g>
<g id="layer106" fill="#c39a7c" stroke="none">
 <path d="M2445 4709 c-5 -13 2 -39 19 -71 34 -65 33 -82 -8 -130 -40 -46 -64 -109 -73 -188 l-5 -56 -77 -16 c-42 -10 -85 -20 -97 -23 -19 -6 -25 5 -65 110 -35 93 -49 119 -68 126 -41 16 -61 3 -61 -41 0 -32 26 -163 46 -231 3 -12 -18 -29 -76 -63 -44 -25 -84 -46 -89 -46 -5 0 -44 42 -86 93 -87 103 -94 110 -133 105 -23 -3 -27 -8 -30 -40 -3 -30 6 -53 39 -109 l43 -72 -22 -38 c-24 -42 -28 -79 -10 -97 8 -8 4 -20 -16 -47 -15 -19 -29 -35 -32 -35 -3 0 -55 32 -117 72 -89 56 -120 71 -152 72 -39 1 -40 0 -43 -34 -3 -31 4 -42 63 -100 36 -35 65 -70 65 -78 0 -7 -9 -31 -21 -53 -12 -25 -19 -55 -17 -77 3 -36 4 -37 41 -37 27 0 36 -4 32 -13 -3 -8 -8 -25 -11 -38 -3 -13 -11 -24 -18 -24 -6 0 -96 23 -200 50 -206 55 -261 61 -271 31 -14 -46 7 -63 161 -127 l149 -62 7 -92 c8 -106 18 -123 65 -118 27 3 33 0 33 -14 0 -11 -7 -18 -18 -18 -90 0 -719 -53 -729 -62 -17 -14 -17 -52 0 -66 11 -9 463 -42 580 -42 35 0 37 -2 37 -32 0 -60 28 -152 78 -258 56 -118 74 -139 152 -173 46 -20 64 -36 100 -88 59 -86 199 -223 289 -284 l73 -50 -6 -45 c-76 -554 31 -1040 312 -1416 126 -168 331 -354 391 -354 57 0 65 39 23 109 -45 72 -63 138 -69 247 -6 106 7 229 34 323 11 37 14 80 11 140 -5 98 -25 148 -88 225 -39 46 -52 75 -29 60 30 -18 80 -22 95 -7 13 13 12 20 -10 57 -23 39 -23 43 -9 71 9 17 27 43 42 58 25 27 26 33 26 147 0 115 1 119 22 125 17 4 27 20 41 66 l19 62 89 22 c49 13 116 35 149 49 l60 27 20 -28 c50 -69 77 -93 106 -93 54 0 57 46 10 137 -11 23 -21 44 -21 46 0 3 17 16 38 29 20 14 63 49 95 78 l57 52 154 -92 c176 -104 219 -122 242 -98 11 11 14 25 10 45 -5 23 -38 53 -149 138 -78 60 -145 111 -149 114 -4 4 6 27 23 51 16 25 44 72 61 105 17 33 32 62 33 63 2 2 96 -22 210 -53 124 -33 222 -55 244 -53 32 3 36 6 39 35 4 41 0 44 -233 138 -104 42 -193 80 -196 83 -4 4 1 44 10 89 l16 83 40 0 c143 0 631 33 637 43 10 15 10 49 0 64 -5 8 -196 27 -592 57 -322 26 -591 46 -597 46 -10 0 -13 36 -13 148 -1 298 -56 540 -185 807 -139 289 -401 605 -500 605 -25 0 -35 -5 -40 -21z m202 -179 c222 -247 377 -555 443 -877 24 -121 41 -344 33 -448 -6 -72 -5 -74 18 -79 13 -3 245 -21 514 -41 270 -20 508 -40 530 -45 l40 -8 -50 -1 c-117 -4 -515 -28 -518 -32 -2 -2 -13 -49 -26 -104 -13 -55 -25 -109 -28 -120 -4 -18 16 -28 166 -89 94 -38 169 -71 167 -73 -2 -3 -80 16 -173 41 -93 25 -174 46 -179 46 -6 0 -21 -24 -35 -52 -13 -29 -50 -92 -81 -140 -32 -47 -58 -90 -58 -95 1 -4 46 -42 101 -83 55 -41 110 -83 122 -93 21 -18 21 -18 -11 -2 -19 9 -81 46 -139 81 l-104 65 -76 -67 c-42 -36 -100 -82 -130 -101 -29 -20 -53 -40 -53 -45 0 -5 9 -28 21 -51 l20 -42 -36 42 -36 43 -57 -29 c-62 -31 -194 -75 -258 -85 -40 -7 -41 -8 -58 -67 -9 -34 -21 -57 -26 -54 -6 4 -19 24 -30 46 -24 46 -41 49 -69 12 -40 -50 -38 -70 12 -121 35 -37 46 -56 51 -92 8 -62 -5 -108 -47 -163 -19 -25 -38 -61 -42 -78 -10 -43 -25 -19 -25 40 l0 44 -21 -19 c-31 -27 -49 -76 -49 -131 0 -52 14 -81 79 -163 76 -96 87 -183 46 -350 -8 -36 -18 -119 -22 -185 -7 -136 5 -227 42 -318 13 -32 19 -57 15 -55 -27 9 -159 132 -222 205 -205 237 -334 507 -390 809 -42 230 -24 658 36 883 29 107 34 70 11 -83 -19 -127 -19 -383 0 -506 34 -224 115 -412 241 -558 l37 -43 23 22 c37 35 49 86 31 134 -88 235 -99 300 -72 430 10 44 18 115 20 158 2 61 9 90 32 138 26 52 29 67 22 103 -16 83 -10 224 13 299 22 75 67 134 93 123 7 -2 30 -8 50 -12 20 -3 55 -16 78 -29 36 -18 46 -32 70 -89 20 -47 25 -71 18 -80 -7 -8 -6 -32 2 -75 l12 -63 38 6 c44 7 215 62 236 75 12 8 10 16 -12 50 -15 22 -24 47 -21 56 13 32 -10 72 -86 150 -68 69 -83 90 -100 144 -11 35 -20 77 -20 93 0 51 16 57 134 55 58 -1 106 1 106 6 0 4 4 7 10 7 12 0 2 -29 -17 -51 -13 -15 -5 -24 69 -81 206 -160 271 -208 278 -208 30 0 196 238 178 255 -3 3 -63 21 -134 41 -217 59 -325 96 -332 113 -3 9 -18 27 -34 40 -15 13 -28 30 -28 37 0 8 -4 14 -10 14 -5 0 -10 4 -10 10 0 5 7 7 15 4 8 -4 15 -1 15 6 0 13 -11 24 -76 75 -59 46 -94 86 -94 106 0 11 -5 19 -12 19 -7 0 4 17 24 38 64 65 69 101 43 312 -24 193 -70 406 -124 568 -48 145 -138 353 -159 366 -17 10 -89 -61 -102 -99 -13 -39 -3 -89 28 -132 65 -92 112 -226 112 -318 0 -52 -5 -70 -35 -119 -41 -69 -44 -103 -10 -154 57 -87 70 -184 33 -258 -19 -38 -23 -42 -42 -32 -12 6 -31 23 -44 39 -14 17 -29 26 -35 22 -7 -4 -6 1 2 10 11 14 11 17 -1 17 -18 0 -68 23 -68 32 0 3 -13 9 -30 13 -16 4 -32 11 -36 16 -7 12 -72 39 -94 39 -18 0 -20 6 -81 231 -58 218 -132 539 -126 546 2 2 12 -18 22 -44 10 -27 30 -75 45 -108 35 -75 100 -243 100 -257 0 -6 27 -86 61 -177 33 -91 63 -172 65 -179 2 -7 8 -11 13 -8 31 20 13 203 -29 292 -17 34 -36 67 -44 73 -12 10 -9 16 15 41 l30 29 -20 20 c-31 31 -94 162 -83 173 8 8 58 23 143 42 25 5 26 10 32 80 6 79 24 125 77 191 29 37 32 45 28 98 -3 38 -1 56 6 54 6 -2 53 -50 103 -107z m-11 -227 c113 -248 214 -664 218 -900 1 -89 0 -92 -29 -123 -37 -39 -59 -36 -98 12 l-30 38 12 69 c18 99 1 184 -54 271 l-26 41 30 46 c73 110 48 305 -61 487 -43 70 -48 96 -27 122 20 24 29 16 65 -63z m-668 -409 c79 -95 265 -330 270 -342 1 -4 -18 -6 -43 -5 -34 1 -48 -4 -59 -18 -12 -18 -15 -17 -39 20 -15 22 -45 70 -68 108 -23 37 -45 70 -49 73 -9 6 -134 219 -143 243 -4 12 -13 16 -24 13 -82 -24 -83 -23 -40 36 l19 26 -31 55 c-17 30 -31 58 -31 61 0 7 73 -77 238 -270z m-405 -71 c181 -110 426 -269 493 -320 l31 -23 -33 -36 c-19 -19 -34 -44 -34 -55 0 -27 -9 -24 -60 22 -25 22 -67 58 -95 80 -27 23 -100 88 -162 145 -61 57 -115 104 -118 104 -4 0 -30 -16 -56 -35 -27 -19 -49 -33 -49 -30 0 3 11 28 25 55 14 27 25 55 25 62 0 7 -26 37 -57 66 -63 58 -64 59 90 -35z m-255 -306 c92 -24 217 -56 277 -71 61 -15 175 -48 254 -73 l145 -46 -34 -16 c-28 -13 -39 -25 -57 -59 -4 -8 -204 63 -322 113 -143 62 -138 63 -175 -29 -29 -71 -39 -59 -34 42 l3 76 -96 41 c-118 50 -146 63 -136 64 5 1 83 -19 175 -42z m1228 -351 c25 -24 34 -43 34 -66 0 -44 -56 -100 -100 -100 -44 0 -100 56 -100 100 0 44 56 100 100 100 23 0 42 -9 66 -34z m-770 -11 l70 -6 -4 -31 c-3 -20 2 -39 17 -59 l22 -29 -148 0 c-81 0 -188 5 -237 11 -63 8 -91 8 -99 0 -10 -10 2 -157 20 -246 6 -27 4 -29 -10 -17 -25 21 -58 120 -64 195 -3 37 -11 71 -17 74 -10 7 -372 31 -475 32 -103 2 -14 12 310 37 375 29 480 37 519 42 14 2 57 0 96 -3z m269 -190 c236 -10 266 -25 223 -113 -20 -40 -23 -62 -23 -157 0 -101 2 -115 29 -169 16 -32 41 -72 56 -90 26 -29 27 -35 22 -108 l-5 -77 -51 26 c-40 20 -114 66 -144 89 -2 1 6 46 17 100 22 107 17 134 -23 134 -31 0 -44 -17 -71 -91 l-22 -61 -52 68 c-84 112 -153 276 -175 422 l-7 44 38 -6 c21 -3 106 -8 188 -11z m1242 -232 c100 -27 173 -51 173 -58 0 -7 -23 -42 -51 -79 -34 -46 -54 -64 -62 -58 -231 174 -265 202 -260 222 3 11 10 20 16 20 6 0 88 -21 184 -47z m-398 -388 c57 -75 58 -81 20 -94 -18 -6 -34 -11 -35 -11 -2 0 -4 15 -4 34 0 18 -7 53 -15 76 -24 68 -20 67 34 -5z m-703 -308 c38 -13 86 -27 107 -31 31 -6 37 -10 32 -24 -4 -9 -11 -60 -15 -112 -4 -52 -13 -117 -20 -145 -16 -63 -16 -235 -1 -300 7 -27 25 -82 42 -123 16 -40 29 -83 29 -94 0 -21 0 -21 -21 -2 -31 28 -105 152 -138 231 -54 131 -76 231 -92 406 -8 99 -6 217 5 217 1 0 34 -11 72 -23z"/>
 <path d="M3290 2986 c-200 -11 -236 -19 -172 -40 15 -5 121 -47 236 -93 115 -46 210 -82 212 -81 6 7 53 156 59 191 l7 37 -68 -2 c-38 -1 -161 -6 -274 -12z m277 -50 c-3 -8 -11 -33 -18 -55 -7 -23 -17 -40 -23 -37 -6 2 -60 24 -121 47 l-110 44 85 6 c168 11 193 10 187 -5z"/>
 <path d="M2911 2543 c44 -87 97 -186 117 -220 l36 -62 65 34 c79 42 166 106 166 123 0 11 -439 282 -457 282 -4 0 29 -71 73 -157z m297 -128 c5 -5 -101 -75 -113 -75 -5 0 -36 50 -68 110 l-59 110 119 -71 c65 -39 120 -73 121 -74z"/>
 </g>
<g id="layer107" fill="#9f9a8e" stroke="none">
 <path d="M2460 4716 c0 -3 13 -21 30 -39 16 -19 34 -52 40 -73 l10 -39 -5 38 c-3 27 0 37 8 34 7 -2 54 -50 104 -107 103 -114 196 -247 272 -390 28 -52 51 -90 51 -85 0 18 -119 226 -175 305 -72 102 -187 232 -268 303 -37 32 -67 56 -67 53z"/>
 <path d="M2503 4488 c-25 -28 -63 -89 -63 -103 0 -5 12 10 26 35 14 25 35 55 46 68 12 12 19 22 16 22 -2 0 -14 -10 -25 -22z"/>
 <path d="M2555 4427 c-25 -24 -45 -51 -45 -58 0 -8 5 -6 12 6 15 28 50 65 70 76 15 8 24 -3 57 -68 22 -43 40 -75 41 -70 0 13 -69 145 -80 152 -6 4 -31 -13 -55 -38z"/>
 <path d="M2042 4430 c3 -8 11 -41 18 -73 8 -32 17 -53 21 -46 4 7 12 -3 19 -25 7 -21 14 -35 16 -33 6 5 -59 174 -71 184 -4 5 -6 1 -3 -7z"/>
 <path d="M2423 4270 c0 -30 2 -43 4 -27 2 15 2 39 0 55 -2 15 -4 2 -4 -28z"/>
 <path d="M2510 4289 c0 -8 9 -27 21 -44 33 -49 81 -146 101 -205 13 -39 17 -45 13 -20 -7 49 -135 303 -135 269z"/>
 <path d="M2691 4295 c0 -5 6 -21 14 -35 8 -14 14 -20 14 -15 0 6 -6 21 -14 35 -8 14 -14 21 -14 15z"/>
 <path d="M1670 4248 c0 -8 71 -128 76 -128 2 0 1 8 -2 18 -6 17 8 3 124 -127 99 -111 362 -437 370 -459 1 -4 -18 -6 -43 -5 -34 1 -48 -4 -59 -18 -12 -18 -15 -17 -39 20 -15 22 -45 70 -68 108 -23 37 -45 70 -49 73 -9 6 -134 219 -143 243 -3 9 -12 17 -19 17 -9 0 -9 -3 1 -9 12 -8 0 -25 -56 -85 -93 -97 -112 -125 -92 -136 39 -23 344 -226 385 -257 l31 -23 -33 -36 c-19 -19 -34 -44 -34 -55 0 -27 -9 -24 -60 22 -25 22 -67 58 -95 80 -27 23 -100 88 -162 145 -61 57 -115 104 -118 104 -4 0 -30 -16 -56 -35 -27 -19 -49 -33 -49 -30 0 3 11 28 25 55 14 27 25 56 25 63 0 8 -23 33 -51 57 -27 23 -48 44 -46 47 3 2 43 -20 90 -50 85 -55 137 -85 126 -73 -12 13 -284 184 -287 181 -5 -4 136 -138 149 -143 16 -6 10 -31 -26 -102 -19 -38 -35 -72 -35 -76 0 -3 20 12 44 33 108 95 136 82 76 -38 -24 -46 -48 -100 -56 -121 l-13 -37 52 -15 c29 -8 72 -20 97 -26 25 -6 110 -32 189 -57 l145 -46 -34 -16 c-28 -13 -39 -25 -57 -59 -3 -7 -196 60 -308 107 -63 27 -113 46 -111 42 2 -3 -2 -40 -10 -81 -7 -41 -13 -99 -14 -128 l0 -53 53 5 c125 13 220 17 275 10 58 -6 58 -6 54 -36 -3 -20 3 -39 18 -60 l23 -31 -204 7 c-112 4 -222 8 -244 9 l-40 2 -1 -48 -1 -47 4 45 c4 42 6 45 33 45 28 0 28 -1 40 -86 11 -78 11 -88 -4 -96 -11 -6 -16 -24 -16 -61 0 -63 -9 -78 -44 -80 -14 -1 -26 -6 -26 -10 0 -35 91 -147 120 -147 6 0 25 -7 42 -16 21 -11 28 -12 22 -3 -4 7 -9 28 -11 47 -6 52 14 36 82 -64 74 -111 216 -254 317 -319 43 -28 79 -57 81 -65 3 -8 5 1 6 20 1 19 10 68 20 108 34 130 40 103 15 -65 -8 -58 -13 -123 -11 -146 3 -35 4 -32 5 17 2 42 5 57 15 53 73 -33 176 -68 238 -82 l77 -18 -24 -51 c-13 -28 -24 -62 -23 -76 0 -17 4 -11 13 20 7 25 22 62 33 82 17 31 19 46 12 80 -16 85 -10 225 13 301 22 75 67 134 93 123 7 -2 30 -8 50 -12 20 -3 55 -16 78 -29 36 -18 46 -32 70 -89 20 -48 25 -71 18 -80 -7 -9 -6 -32 3 -77 8 -35 15 -53 15 -39 1 14 -3 41 -9 59 -7 24 -6 39 1 48 13 15 12 18 -30 128 -17 44 -31 82 -31 85 0 3 34 -55 76 -128 42 -73 78 -131 80 -129 2 1 -21 86 -51 187 -30 101 -53 185 -51 187 2 2 68 -79 146 -181 79 -102 145 -186 147 -186 5 0 -4 15 -29 52 -10 14 -15 33 -12 42 13 33 -10 72 -86 151 -68 69 -83 90 -100 144 -11 35 -20 77 -20 93 0 51 16 57 134 55 58 -1 106 1 106 6 0 4 4 7 10 7 11 0 2 -29 -17 -51 -12 -15 -7 -22 49 -66 125 -98 273 -210 288 -217 22 -11 7 1 -179 143 l-162 124 21 22 c11 11 23 35 26 53 5 24 11 31 23 28 92 -28 244 -67 247 -64 2 3 -39 17 -92 32 -120 35 -164 53 -164 69 0 6 -14 23 -30 36 -17 13 -30 29 -30 37 0 8 -4 14 -10 14 -5 0 -10 4 -10 10 0 5 7 7 15 4 8 -4 15 -1 15 6 0 13 -11 24 -76 75 -59 46 -94 86 -94 106 0 11 -5 19 -12 19 -7 0 4 17 24 38 48 48 58 79 57 160 l-2 67 -7 -84 c-7 -83 -9 -86 -48 -123 -50 -46 -87 -50 -132 -12 -17 15 -42 48 -55 74 -24 47 -24 49 -8 82 31 60 22 137 -25 231 -23 45 -42 92 -42 104 0 12 14 44 30 70 17 26 30 51 30 57 0 5 -16 -16 -35 -48 -41 -69 -44 -103 -10 -154 57 -87 70 -184 33 -258 -19 -38 -23 -42 -42 -32 -12 6 -31 23 -44 39 -14 17 -29 26 -35 22 -7 -4 -6 1 2 10 11 14 11 17 -1 17 -18 0 -68 23 -68 32 0 3 -13 9 -30 13 -16 4 -32 11 -36 16 -7 12 -72 39 -94 39 -14 0 -24 22 -46 105 -16 59 -30 102 -32 97 -2 -6 6 -45 17 -88 11 -43 19 -79 18 -81 -7 -7 -178 210 -174 220 3 7 28 25 55 40 l51 28 10 -33 c5 -18 10 -26 10 -18 1 9 -7 40 -18 70 -10 30 -28 98 -39 150 -33 150 -52 228 -47 194 2 -18 7 -43 10 -57 6 -23 2 -28 -47 -53 -29 -15 -81 -45 -116 -67 -35 -22 -67 -36 -71 -31 -4 5 -45 54 -91 109 -95 115 -110 132 -110 123z m362 -615 c88 -149 93 -157 78 -148 -8 5 -59 37 -114 72 l-98 64 18 22 c42 50 58 67 63 67 4 0 27 -35 53 -77z m-105 -209 c46 -42 82 -79 79 -81 -3 -4 -196 45 -204 52 -4 3 30 105 36 105 3 0 43 -34 89 -76z m-29 -198 l104 -43 -84 -6 c-155 -13 -148 -15 -148 43 0 34 4 50 13 50 6 -1 58 -20 115 -44z m644 -3 c53 -26 83 -99 66 -160 -29 -105 -161 -141 -239 -64 -75 76 -46 200 56 236 42 14 72 11 117 -12z m-512 -217 c243 -14 271 -22 290 -81 10 -32 9 -41 -19 -97 -59 -118 -39 -238 63 -368 41 -52 42 -56 30 -85 -7 -16 -13 -65 -14 -108 0 -77 -1 -78 -22 -71 -55 17 -135 57 -200 100 -78 52 -75 34 -36 192 11 46 18 86 15 88 -2 2 -16 -38 -31 -88 -15 -51 -30 -99 -32 -106 -7 -23 -39 3 -103 84 -106 131 -179 313 -197 487 -7 66 -6 67 17 66 13 0 121 -6 239 -13z"/>
 <path d="M2726 4210 c3 -14 11 -32 16 -40 6 -10 7 -7 2 10 -3 14 -11 32 -16 40 -6 10 -7 7 -2 -10z"/>
 <path d="M2289 4201 c-37 -10 -80 -23 -98 -29 -26 -9 -32 -8 -41 6 -17 30 -11 4 9 -35 23 -46 91 -221 91 -235 0 -6 27 -86 61 -177 33 -91 63 -172 65 -180 8 -25 23 2 26 44 1 22 0 63 -2 90 -3 43 -4 39 -9 -33 l-6 -83 -62 162 c-35 90 -62 164 -60 165 1 1 11 4 22 8 24 7 58 -40 86 -119 10 -27 18 -42 19 -31 0 23 -55 139 -74 155 -12 10 -9 16 15 41 l30 29 -20 20 c-33 33 -94 162 -82 174 5 5 43 18 83 28 41 10 60 17 43 17 -16 0 -60 -8 -96 -17z"/>
 <path d="M1766 4079 c15 -31 15 -32 -16 -76 -18 -24 -31 -46 -29 -47 2 -2 22 3 44 10 37 12 37 13 6 8 -36 -7 -36 -5 2 47 18 25 18 28 3 58 -9 17 -19 31 -22 31 -2 0 3 -14 12 -31z"/>
 <path d="M2781 4050 c0 -8 4 -24 9 -35 5 -13 9 -14 9 -5 0 8 -4 24 -9 35 -5 13 -9 14 -9 5z"/>
 <path d="M2976 4025 c38 -109 83 -228 83 -218 1 16 -58 183 -76 213 -9 15 -12 17 -7 5z"/>
 <path d="M2801 3985 c0 -5 8 -41 19 -80 11 -38 18 -54 15 -34 -6 39 -33 130 -34 114z"/>
 <path d="M2653 3920 c0 -36 2 -50 4 -32 2 17 2 47 0 65 -2 17 -4 3 -4 -33z"/>
 <path d="M3061 3785 c0 -5 6 -32 13 -60 8 -27 14 -41 14 -30 0 21 -25 107 -27 90z"/>
 <path d="M2883 3575 c0 -22 2 -30 4 -17 2 12 2 30 0 40 -3 9 -5 -1 -4 -23z"/>
 <path d="M1023 3593 c8 -7 138 -63 147 -63 3 1 -6 7 -20 15 -16 9 -19 15 -10 15 8 1 -14 10 -50 20 -74 22 -76 22 -67 13z"/>
 <path d="M3113 3525 c0 -22 2 -30 4 -17 2 12 2 30 0 40 -3 9 -5 -1 -4 -23z"/>
 <path d="M1215 3540 c11 -5 27 -9 35 -9 9 0 8 4 -5 9 -11 5 -27 9 -35 9 -9 0 -8 -4 5 -9z"/>
 <path d="M2893 3490 c0 -25 2 -35 4 -22 2 12 2 32 0 45 -2 12 -4 2 -4 -23z"/>
 <path d="M1250 3495 c14 -8 30 -14 35 -14 6 0 -1 6 -15 14 -14 8 -29 14 -35 14 -5 0 1 -6 15 -14z"/>
 <path d="M1365 3500 c11 -5 27 -9 35 -9 9 0 8 4 -5 9 -11 5 -27 9 -35 9 -9 0 -8 -4 5 -9z"/>
 <path d="M3123 3395 c0 -44 2 -61 4 -37 2 23 2 59 0 80 -2 20 -4 1 -4 -43z"/>
 <path d="M1420 3388 c-11 -18 -25 -50 -32 -70 -6 -21 -15 -35 -19 -32 -5 3 -9 -4 -9 -15 0 -12 5 -21 10 -21 6 0 10 4 10 10 0 22 44 124 61 141 11 11 14 19 9 19 -6 0 -19 -15 -30 -32z"/>
 <path d="M1353 3350 c0 -30 2 -43 4 -27 2 15 2 39 0 55 -2 15 -4 2 -4 -28z"/>
 <path d="M3123 3185 c0 -33 2 -45 4 -27 2 18 2 45 0 60 -2 15 -4 0 -4 -33z"/>
 <path d="M1358 3133 c18 -2 45 -2 60 0 15 2 0 4 -33 4 -33 0 -45 -2 -27 -4z"/>
 <path d="M1218 3123 c18 -2 45 -2 60 0 15 2 0 4 -33 4 -33 0 -45 -2 -27 -4z"/>
 <path d="M3163 3123 c15 -2 39 -2 55 0 15 2 2 4 -28 4 -30 0 -43 -2 -27 -4z"/>
 <path d="M1068 3113 c17 -2 47 -2 65 0 17 2 3 4 -33 4 -36 0 -50 -2 -32 -4z"/>
 <path d="M3293 3113 c15 -2 39 -2 55 0 15 2 2 4 -28 4 -30 0 -43 -2 -27 -4z"/>
 <path d="M928 3103 c17 -2 47 -2 65 0 17 2 3 4 -33 4 -36 0 -50 -2 -32 -4z"/>
 <path d="M3423 3103 c15 -2 39 -2 55 0 15 2 2 4 -28 4 -30 0 -43 -2 -27 -4z"/>
 <path d="M720 3091 c-37 -6 -24 -8 72 -15 64 -5 122 -6 130 -3 7 3 -18 6 -57 8 -62 2 -66 3 -30 9 38 7 38 7 -15 7 -30 0 -75 -3 -100 -6z"/>
 <path d="M3553 3093 c15 -2 39 -2 55 0 15 2 2 4 -28 4 -30 0 -43 -2 -27 -4z"/>
 <path d="M3683 3083 c15 -2 39 -2 55 0 15 2 2 4 -28 4 -30 0 -43 -2 -27 -4z"/>
 <path d="M3813 3073 c15 -2 39 -2 55 0 15 2 2 4 -28 4 -30 0 -43 -2 -27 -4z"/>
 <path d="M1003 3063 c20 -2 54 -2 75 0 20 2 3 4 -38 4 -41 0 -58 -2 -37 -4z"/>
 <path d="M3938 3063 c18 -2 45 -2 60 0 15 2 0 4 -33 4 -33 0 -45 -2 -27 -4z"/>
 <path d="M1183 3053 c20 -2 54 -2 75 0 20 2 3 4 -38 4 -41 0 -58 -2 -37 -4z"/>
 <path d="M4068 3053 c18 -2 45 -2 60 0 15 2 0 4 -33 4 -33 0 -45 -2 -27 -4z"/>
 <path d="M4195 3040 c22 -6 10 -8 -50 -10 -44 -1 -71 -5 -61 -7 11 -3 76 -2 145 3 110 7 119 9 76 15 -27 4 -70 7 -95 7 -40 0 -42 -1 -15 -8z"/>
 <path d="M1323 2995 c0 -27 2 -38 4 -22 2 15 2 37 0 50 -2 12 -4 0 -4 -28z"/>
 <path d="M3918 3013 c23 -2 61 -2 85 0 23 2 4 4 -43 4 -47 0 -66 -2 -42 -4z"/>
 <path d="M3728 3003 c23 -2 59 -2 80 0 20 2 1 4 -43 4 -44 0 -61 -2 -37 -4z"/>
 <path d="M3523 2993 c20 -2 54 -2 75 0 20 2 3 4 -38 4 -41 0 -58 -2 -37 -4z"/>
 <path d="M3328 2983 c23 -2 61 -2 85 0 23 2 4 4 -43 4 -47 0 -66 -2 -42 -4z"/>
 <path d="M3085 2970 c-3 -6 2 -13 12 -17 10 -3 74 -28 143 -54 68 -27 126 -47 127 -45 2 2 -56 28 -129 57 l-133 54 80 6 80 5 -87 2 c-50 1 -89 -2 -93 -8z"/>
 <path d="M1392 2900 c0 -19 2 -27 5 -17 2 9 2 25 0 35 -3 9 -5 1 -5 -18z"/>
 <path d="M1406 2818 c3 -27 3 -48 -1 -48 -3 0 -14 15 -25 33 -11 17 -20 27 -20 22 0 -16 49 -85 61 -85 5 0 7 10 4 23 -3 12 -9 40 -15 62 l-9 40 5 -47z"/>
 <path d="M3380 2847 c0 -7 181 -79 186 -74 2 2 -33 18 -78 36 -46 18 -89 35 -95 38 -7 3 -13 3 -13 0z"/>
 <path d="M3345 2761 c11 -4 36 -11 55 -15 24 -4 29 -3 15 3 -11 4 -36 11 -55 15 -24 4 -29 3 -15 -3z"/>
 <path d="M3455 2732 c31 -14 83 -24 65 -13 -8 5 -31 11 -50 15 -24 4 -28 3 -15 -2z"/>
 <path d="M2920 2525 c82 -159 159 -294 147 -255 -3 8 -52 103 -110 210 -58 107 -104 196 -102 198 2 2 100 -53 217 -124 231 -138 236 -141 226 -130 -10 12 -451 276 -460 276 -4 0 33 -79 82 -175z"/>
 <path d="M3675 2670 c11 -5 27 -9 35 -9 9 0 8 4 -5 9 -11 5 -27 9 -35 9 -9 0 -8 -4 5 -9z"/>
 <path d="M3849 2655 c29 -14 55 -24 58 -22 2 3 -15 12 -39 22 -69 28 -78 27 -19 0z"/>
 <path d="M3785 2640 c11 -5 27 -9 35 -9 9 0 8 4 -5 9 -11 5 -27 9 -35 9 -9 0 -8 -4 5 -9z"/>
 <path d="M3930 2619 c11 -8 6 -9 -20 -5 -50 8 -28 0 74 -28 100 -28 103 -21 7 18 -69 28 -85 32 -61 15z"/>
 <path d="M3410 2412 c0 -4 33 -31 73 -60 96 -70 147 -116 122 -107 -11 3 -17 3 -13 0 15 -15 163 -103 167 -99 3 3 -4 11 -15 18 -11 8 -91 69 -177 135 -86 66 -157 117 -157 113z"/>
 <path d="M3410 2352 c98 -61 120 -73 120 -69 0 7 -148 97 -158 97 -4 0 13 -13 38 -28z"/>
 <path d="M3120 2165 c1 -5 7 -21 15 -35 25 -43 16 -45 -20 -4 -20 21 -8 2 27 -43 34 -45 64 -80 66 -79 2 2 -17 42 -42 87 -25 46 -46 80 -46 74z"/>
 <path d="M2005 2060 c-4 -34 -5 -63 -2 -66 2 -3 7 23 11 57 4 33 5 63 3 66 -3 2 -8 -23 -12 -57z"/>
 <path d="M2716 1980 c-9 -35 -21 -58 -26 -55 -6 4 -19 24 -30 46 -24 46 -41 49 -69 12 -40 -50 -38 -70 12 -121 28 -29 47 -59 50 -77 l4 -30 2 34 c1 28 -7 40 -45 76 -38 34 -46 47 -41 66 6 25 42 69 55 69 4 0 20 -23 35 -51 16 -29 32 -48 37 -43 4 5 15 33 24 63 9 30 22 58 29 63 9 6 8 8 -4 8 -11 0 -21 -19 -33 -60z"/>
 <path d="M1993 1920 c0 -30 2 -43 4 -27 2 15 2 39 0 55 -2 15 -4 2 -4 -28z"/>
 <path d="M2053 1830 c0 -36 2 -50 4 -32 2 17 2 47 0 65 -2 17 -4 3 -4 -33z"/>
 <path d="M1984 1740 c0 -69 1 -97 3 -62 2 34 2 90 0 125 -2 34 -3 6 -3 -63z"/>
 <path d="M2326 1739 c-4 -23 -5 -44 -2 -46 2 -2 7 14 11 37 4 23 5 43 2 46 -2 3 -7 -14 -11 -37z"/>
 <path d="M2063 1725 c0 -22 2 -30 4 -17 2 12 2 30 0 40 -3 9 -5 -1 -4 -23z"/>
 <path d="M2650 1687 c0 -12 -18 -46 -39 -75 -22 -28 -42 -66 -46 -83 -10 -43 -25 -18 -25 40 l0 44 -21 -19 c-31 -27 -49 -76 -49 -131 0 -51 17 -87 76 -159 18 -22 42 -60 53 -85 11 -24 21 -38 21 -31 0 21 -36 86 -75 132 -20 24 -43 57 -52 73 -20 40 -14 132 13 172 l19 29 6 -39 c10 -70 60 -136 101 -134 7 0 3 4 -9 9 -12 5 -29 20 -39 34 -23 37 -12 84 36 148 34 44 53 98 35 98 -3 0 -5 -10 -5 -23z"/>
 <path d="M2072 1660 c0 -14 4 -36 8 -50 6 -20 8 -21 8 -5 0 11 -4 34 -8 50 -7 27 -8 27 -8 5z"/>
 <path d="M2303 1575 c0 -22 2 -30 4 -17 2 12 2 30 0 40 -3 9 -5 -1 -4 -23z"/>
 <path d="M1993 1555 c0 -27 2 -38 4 -22 2 15 2 37 0 50 -2 12 -4 0 -4 -28z"/>
 <path d="M2096 1550 c17 -95 101 -269 178 -369 66 -86 69 -87 100 -51 14 18 26 36 26 42 0 6 -10 -4 -23 -23 -12 -19 -27 -34 -32 -34 -15 0 -114 138 -155 217 -22 42 -54 116 -70 165 -17 48 -27 72 -24 53z"/>
 <path d="M2312 1500 c0 -19 2 -27 5 -17 2 9 2 25 0 35 -3 9 -5 1 -5 -18z"/>
 <path d="M2001 1469 c1 -19 5 -47 10 -64 5 -20 6 -9 2 30 -6 66 -14 88 -12 34z"/>
 <path d="M2331 1410 c0 -17 68 -180 68 -165 1 6 -15 48 -34 95 -19 47 -35 78 -34 70z"/>
 <path d="M2051 1233 c-2 -25 64 -193 111 -288 120 -239 318 -472 501 -590 27 -17 27 -17 -8 35 -19 28 -35 57 -35 63 0 6 -3 8 -6 5 -3 -4 2 -21 11 -38 22 -42 10 -37 -74 34 -190 158 -366 420 -462 686 -21 58 -38 100 -38 93z"/>
 <path d="M2623 1105 c0 -38 2 -53 4 -32 2 20 2 52 0 70 -2 17 -4 1 -4 -38z"/>
 <path d="M2606 1004 c-4 -14 -5 -28 -3 -31 3 -2 8 8 11 23 4 14 5 28 3 31 -3 2 -8 -8 -11 -23z"/>
 <path d="M2582 870 c0 -19 2 -27 5 -17 2 9 2 25 0 35 -3 9 -5 1 -5 -18z"/>
 <path d="M2574 710 c0 -63 1 -89 3 -57 2 31 2 83 0 115 -2 31 -3 5 -3 -58z"/>
 </g>
<g id="layer108" fill="#dabdb0" stroke="none">
 <path d="M2465 4710 c14 -26 48 -60 59 -60 6 0 40 -28 76 -62 35 -35 49 -46 30 -25 -46 50 -176 166 -165 147z"/>
 <path d="M2043 4428 c3 -9 9 -33 13 -52 3 -20 10 -33 15 -30 5 3 9 0 9 -7 0 -7 2 -10 5 -8 6 6 -27 95 -39 106 -5 4 -7 0 -3 -9z"/>
 <path d="M2423 4270 c0 -30 2 -43 4 -27 2 15 2 39 0 55 -2 15 -4 2 -4 -28z"/>
 <path d="M1670 4245 c0 -9 35 -62 41 -61 3 1 14 -6 25 -14 10 -8 1 6 -20 33 -36 44 -46 53 -46 42z"/>
 <path d="M2198 4175 c-20 -7 -39 -11 -41 -8 -3 3 7 -26 22 -64 15 -37 39 -98 52 -135 26 -75 45 -86 73 -43 16 24 15 26 -24 76 -35 44 -80 128 -80 148 0 4 15 15 33 24 39 19 16 21 -35 2z"/>
 <path d="M2932 4115 c18 -35 34 -63 36 -61 4 5 -56 126 -63 126 -3 0 10 -29 27 -65z"/>
 <path d="M2111 4153 c0 -7 -25 -25 -53 -39 -29 -15 -81 -45 -115 -66 -35 -22 -68 -36 -74 -32 -7 4 6 -11 27 -33 21 -22 68 -76 103 -120 62 -77 65 -79 82 -62 24 24 96 61 102 51 2 -4 2 0 -1 8 -11 37 -61 248 -65 275 -2 17 -5 24 -6 18z"/>
 <path d="M1770 4072 c6 -12 8 -28 4 -34 -4 -7 -3 -8 4 -4 16 10 15 18 -4 42 -14 18 -15 18 -4 -4z"/>
 <path d="M1825 3980 c4 -6 -28 -47 -69 -91 -113 -120 -112 -109 -5 -176 50 -32 111 -72 134 -89 23 -17 55 -39 71 -49 29 -16 29 -16 5 2 -67 49 -65 43 -22 93 39 44 40 45 56 25 16 -19 16 -19 1 5 -65 103 -147 241 -155 263 -6 15 -13 27 -16 27 -4 0 -3 -5 0 -10z"/>
 <path d="M2653 3920 c0 -36 2 -50 4 -32 2 17 2 47 0 65 -2 17 -4 3 -4 -33z"/>
 <path d="M1362 3953 c1 -4 37 -39 78 -78 46 -42 57 -50 28 -20 -26 28 -48 55 -49 60 -1 6 -15 18 -31 28 -17 10 -28 14 -26 10z"/>
 <path d="M2127 3700 c112 -136 132 -157 133 -137 0 10 -4 16 -8 13 -5 -3 -44 38 -87 90 -43 52 -83 98 -89 101 -6 4 17 -26 51 -67z"/>
 <path d="M1594 3727 c17 -12 16 -18 -24 -97 -23 -47 -48 -101 -55 -121 l-13 -37 81 -22 c45 -12 112 -30 149 -40 l67 -18 17 54 c9 30 19 54 22 54 2 0 43 -34 89 -77 53 -48 80 -79 73 -83 -7 -5 -3 -9 11 -13 13 -4 25 -5 27 -3 4 5 -74 78 -228 214 -69 60 -145 131 -170 156 -24 25 -49 46 -54 46 -5 0 -2 -6 8 -13z"/>
 <path d="M2581 3717 c-1 -25 43 -117 56 -117 3 0 -5 17 -18 38 -12 20 -25 53 -29 72 -7 32 -8 33 -9 7z"/>
 <path d="M2392 3645 c-3 -78 -3 -79 -17 -50 -12 25 -14 26 -9 5 20 -82 36 -56 31 51 l-3 74 -2 -80z"/>
 <path d="M1461 3664 c-15 -33 -10 -40 12 -16 9 10 13 23 8 30 -5 9 -11 5 -20 -14z"/>
 <path d="M2052 3598 c67 -106 71 -126 21 -91 -38 26 -53 35 -53 30 0 -8 112 -79 116 -74 6 5 -85 157 -93 157 -3 0 1 -10 9 -22z"/>
 <path d="M1020 3595 c0 -10 72 -35 83 -28 6 3 -10 12 -34 19 -51 16 -49 15 -49 9z"/>
 <path d="M2641 3590 c0 -3 6 -25 13 -50 8 -25 15 -36 15 -25 0 17 -26 88 -28 75z"/>
 <path d="M2893 3485 c0 -22 2 -30 4 -17 2 12 2 30 0 40 -3 9 -5 -1 -4 -23z"/>
 <path d="M3123 3425 c0 -27 2 -38 4 -22 2 15 2 37 0 50 -2 12 -4 0 -4 -28z"/>
 <path d="M2180 3413 c-14 -9 -34 -27 -45 -38 -97 -106 -108 -119 -141 -173 -1 -2 -25 6 -55 17 -75 29 -73 19 3 -12 l63 -26 -60 -2 c-33 -1 -46 -4 -30 -6 54 -7 57 -10 40 -37 -15 -22 -14 -26 20 -70 l35 -46 -78 -1 c-46 -1 1 -7 118 -14 221 -13 251 -22 270 -80 10 -32 9 -41 -19 -97 -59 -118 -38 -238 64 -368 34 -45 41 -60 33 -74 -5 -9 -8 -19 -6 -22 3 -2 10 7 16 21 10 21 8 29 -12 52 -44 54 -106 163 -91 163 3 0 13 -17 24 -39 27 -52 43 -56 81 -16 45 47 70 49 133 9 28 -18 66 -40 83 -49 19 -9 39 -32 49 -56 23 -49 32 -44 11 6 -29 68 -17 52 60 -83 42 -73 78 -131 80 -129 2 1 -21 86 -51 187 -30 101 -53 185 -51 187 2 2 68 -79 146 -181 79 -102 145 -186 147 -186 3 0 -12 21 -32 48 -20 26 -49 74 -65 107 -15 33 -49 85 -74 116 -25 31 -62 91 -82 134 -30 64 -34 82 -25 101 13 29 72 55 126 57 63 3 89 42 72 110 -8 30 -24 50 -71 88 -76 61 -106 92 -141 148 -15 25 -35 52 -44 62 -26 28 -173 106 -212 112 -13 2 -37 9 -54 17 -16 7 -39 16 -50 20 -11 4 -31 12 -45 18 -48 21 -102 42 -109 42 -4 0 -18 -8 -31 -17z m362 -190 c53 -26 83 -99 66 -160 -29 -105 -161 -141 -239 -64 -75 76 -46 200 56 236 42 14 72 11 117 -12z m244 -869 c21 -51 10 -54 -16 -5 -11 23 -16 41 -10 41 6 0 18 -16 26 -36z"/>
 <path d="M2647 3385 l-19 -44 33 -61 c54 -102 121 -119 192 -49 l42 42 -43 -37 c-51 -44 -88 -47 -132 -10 -17 15 -42 48 -55 74 -23 45 -23 50 -9 79 9 17 14 36 12 41 -2 5 -11 -10 -21 -35z"/>
 <path d="M2903 3370 c0 -30 2 -43 4 -27 2 15 2 39 0 55 -2 15 -4 2 -4 -28z"/>
 <path d="M1472 3405 c3 -5 0 -44 -8 -85 -7 -41 -13 -98 -14 -127 l0 -52 33 5 c17 3 113 9 212 13 99 4 156 9 128 9 l-53 2 0 51 c0 51 0 51 28 45 34 -7 29 -5 -158 70 -80 31 -151 62 -159 68 -8 6 -12 7 -9 1z"/>
 <path d="M1353 3350 c0 -30 2 -43 4 -27 2 15 2 39 0 55 -2 15 -4 2 -4 -28z"/>
 <path d="M1348 3133 c12 -2 32 -2 45 0 12 2 2 4 -23 4 -25 0 -35 -2 -22 -4z"/>
 <path d="M1208 3123 c12 -2 32 -2 45 0 12 2 2 4 -23 4 -25 0 -35 -2 -22 -4z"/>
 <path d="M3178 3123 c12 -2 32 -2 45 0 12 2 2 4 -23 4 -25 0 -35 -2 -22 -4z"/>
 <path d="M1063 3113 c15 -2 37 -2 50 0 12 2 0 4 -28 4 -27 0 -38 -2 -22 -4z"/>
 <path d="M3308 3113 c12 -2 32 -2 45 0 12 2 2 4 -23 4 -25 0 -35 -2 -22 -4z"/>
 <path d="M923 3103 c15 -2 37 -2 50 0 12 2 0 4 -28 4 -27 0 -38 -2 -22 -4z"/>
 <path d="M3438 3103 c12 -2 32 -2 45 0 12 2 2 4 -23 4 -25 0 -35 -2 -22 -4z"/>
 <path d="M720 3090 c-41 -6 -42 -7 -10 -8 19 0 58 3 85 8 47 7 48 7 10 7 -22 0 -60 -3 -85 -7z"/>
 <path d="M3568 3093 c12 -2 32 -2 45 0 12 2 2 4 -23 4 -25 0 -35 -2 -22 -4z"/>
 <path d="M3698 3083 c12 -2 32 -2 45 0 12 2 2 4 -23 4 -25 0 -35 -2 -22 -4z"/>
 <path d="M813 3073 c15 -2 39 -2 55 0 15 2 2 4 -28 4 -30 0 -43 -2 -27 -4z"/>
 <path d="M3828 3073 c12 -2 32 -2 45 0 12 2 2 4 -23 4 -25 0 -35 -2 -22 -4z"/>
 <path d="M993 3063 c15 -2 39 -2 55 0 15 2 2 4 -28 4 -30 0 -43 -2 -27 -4z"/>
 <path d="M3958 3063 c12 -2 32 -2 45 0 12 2 2 4 -23 4 -25 0 -35 -2 -22 -4z"/>
 <path d="M1173 3053 c15 -2 39 -2 55 0 15 2 2 4 -28 4 -30 0 -43 -2 -27 -4z"/>
 <path d="M4088 3053 c12 -2 32 -2 45 0 12 2 2 4 -23 4 -25 0 -35 -2 -22 -4z"/>
 <path d="M4240 3039 c25 -4 61 -7 80 -7 29 1 26 2 -15 8 -69 11 -126 10 -65 -1z"/>
 <path d="M1450 3032 c0 -6 5 -46 11 -88 11 -68 10 -78 -5 -86 -11 -6 -16 -23 -16 -61 0 -63 -9 -78 -44 -80 -14 -1 -26 -6 -26 -10 0 -35 91 -147 120 -147 6 0 25 -7 42 -16 21 -11 28 -12 22 -3 -4 7 -9 28 -11 47 -6 52 14 36 82 -64 73 -109 215 -253 315 -318 41 -27 78 -54 82 -60 4 -6 8 5 8 24 0 19 4 51 9 70 6 19 15 55 21 80 20 73 29 25 14 -70 -8 -47 -16 -116 -18 -155 -2 -38 -1 -46 1 -17 3 37 8 52 16 48 72 -31 176 -67 239 -82 l77 -17 -20 -40 c-11 -21 -19 -41 -16 -43 2 -2 14 19 28 48 14 30 20 53 14 55 -7 2 -10 39 -9 96 1 50 -1 82 -3 69 -4 -18 -9 -22 -26 -16 -95 29 -261 131 -272 165 -4 11 -9 18 -12 15 -12 -11 -43 17 -102 90 -106 131 -179 313 -197 486 l-7 67 34 3 c19 2 -29 4 -106 5 -77 2 -164 5 -192 9 -35 4 -53 3 -53 -4z"/>
 <path d="M4138 3023 c17 -2 47 -2 65 0 17 2 3 4 -33 4 -36 0 -50 -2 -32 -4z"/>
 <path d="M3948 3013 c17 -2 47 -2 65 0 17 2 3 4 -33 4 -36 0 -50 -2 -32 -4z"/>
 <path d="M3758 3003 c18 -2 45 -2 60 0 15 2 0 4 -33 4 -33 0 -45 -2 -27 -4z"/>
 <path d="M3553 2993 c15 -2 39 -2 55 0 15 2 2 4 -28 4 -30 0 -43 -2 -27 -4z"/>
 <path d="M3358 2983 c17 -2 47 -2 65 0 17 2 3 4 -33 4 -36 0 -50 -2 -32 -4z"/>
 <path d="M3102 2972 c-9 -6 -5 -12 14 -21 15 -6 29 -10 31 -7 2 2 -6 8 -19 13 -17 6 -3 9 57 14 l80 5 -75 2 c-41 1 -81 -2 -88 -6z"/>
 <path d="M3044 2835 c-3 -8 -4 -20 -1 -27 3 -7 6 -3 6 10 1 19 5 22 29 17 22 -4 24 -4 7 4 -28 14 -35 13 -41 -4z"/>
 <path d="M3125 2820 c11 -5 27 -9 35 -9 9 0 8 4 -5 9 -11 5 -27 9 -35 9 -9 0 -8 -4 5 -9z"/>
 <path d="M3013 2760 c-21 -26 -22 -29 -5 -41 14 -11 15 -11 5 1 -10 11 -9 18 9 37 12 13 20 25 17 27 -2 2 -14 -9 -26 -24z"/>
 <path d="M1401 2754 c13 -16 29 -19 29 -5 0 5 -9 11 -21 14 -16 4 -18 3 -8 -9z"/>
 <path d="M2840 2687 c0 -7 7 -22 16 -33 14 -18 14 -18 3 5 -10 21 -9 23 5 18 23 -9 20 0 -4 13 -15 8 -20 8 -20 -3z"/>
 <path d="M3960 2599 c-12 -9 -11 -10 8 -6 12 3 22 2 22 -3 0 -4 18 -12 40 -18 53 -13 51 -6 -6 18 -53 23 -45 22 -64 9z"/>
 <path d="M2910 2550 c11 -22 23 -40 25 -40 3 0 -4 18 -15 40 -11 22 -23 40 -25 40 -3 0 4 -18 15 -40z"/>
 <path d="M2106 2491 c-21 -68 -25 -94 -17 -108 10 -17 10 -17 11 3 0 11 9 57 21 103 11 45 19 84 17 87 -3 2 -17 -36 -32 -85z"/>
 <path d="M2985 2410 c14 -27 28 -50 30 -50 3 0 -6 23 -20 50 -14 28 -28 50 -30 50 -3 0 6 -22 20 -50z"/>
 <path d="M2715 2355 c16 -46 17 -56 4 -73 -13 -15 -12 -16 4 -3 21 16 21 38 1 71 -10 17 -13 18 -9 5z"/>
 <path d="M3045 2300 c9 -16 18 -30 21 -30 2 0 -2 14 -11 30 -9 17 -18 30 -21 30 -2 0 2 -13 11 -30z"/>
 <path d="M3635 2240 c6 -8 10 -18 10 -22 0 -6 38 -33 103 -72 6 -4 12 -4 12 1 -1 13 -84 68 -98 65 -8 -2 -11 1 -8 6 3 5 -2 16 -11 23 -15 12 -16 12 -8 -1z"/>
 <path d="M3178 2034 c14 -18 28 -31 30 -29 8 8 -28 62 -41 62 -11 0 -8 -10 11 -33z"/>
 <path d="M2655 1960 c9 -16 18 -30 21 -30 2 0 -2 14 -11 30 -9 17 -18 30 -21 30 -2 0 2 -13 11 -30z"/>
 <path d="M1992 1940 c0 -19 2 -27 5 -17 2 9 2 25 0 35 -3 9 -5 1 -5 -18z"/>
 <path d="M2053 1840 c0 -30 2 -43 4 -27 2 15 2 39 0 55 -2 15 -4 2 -4 -28z"/>
 <path d="M1984 1740 c0 -69 1 -97 3 -62 2 34 2 90 0 125 -2 34 -3 6 -3 -63z"/>
 <path d="M2633 1844 c5 -7 12 -25 17 -41 7 -23 8 -24 9 -7 1 12 -7 30 -16 41 -10 10 -14 13 -10 7z"/>
 <path d="M2062 1730 c0 -19 2 -27 5 -17 2 9 2 25 0 35 -3 9 -5 1 -5 -18z"/>
 <path d="M2303 1575 c0 -22 2 -30 4 -17 2 12 2 30 0 40 -3 9 -5 -1 -4 -23z"/>
 <path d="M2513 1588 c-20 -26 -24 -42 -4 -18 l21 25 1 -40 c2 -39 2 -39 6 -6 5 38 -8 59 -24 39z"/>
 <path d="M1992 1540 c0 -19 2 -27 5 -17 2 9 2 25 0 35 -3 9 -5 1 -5 -18z"/>
 <path d="M2557 1501 c-4 -19 1 -31 25 -52 16 -16 38 -29 47 -28 12 0 11 2 -4 9 -27 10 -45 32 -54 67 -7 28 -7 28 -14 4z"/>
 <path d="M2473 1465 c0 -27 2 -38 4 -22 2 15 2 37 0 50 -2 12 -4 0 -4 -28z"/>
 <path d="M2160 1376 c0 -11 40 -86 45 -86 3 0 -4 19 -16 43 -23 45 -29 54 -29 43z"/>
 <path d="M2361 1325 c0 -5 6 -21 14 -35 8 -14 14 -20 14 -15 0 6 -6 21 -14 35 -8 14 -14 21 -14 15z"/>
 <path d="M2227 1249 c10 -17 24 -36 32 -42 8 -7 2 7 -14 31 -32 49 -45 57 -18 11z"/>
 <path d="M2372 1142 l-23 -37 26 28 c14 15 25 32 25 38 0 14 -3 11 -28 -29z"/>
 <path d="M2573 710 c0 -47 2 -66 4 -42 2 23 2 61 0 85 -2 23 -4 4 -4 -43z"/>
 <path d="M2465 520 c38 -38 72 -70 74 -70 3 0 -26 32 -64 70 -38 39 -72 70 -74 70 -3 0 26 -31 64 -70z"/>
 <path d="M2612 395 c9 -11 31 -28 49 -39 l32 -19 -24 32 c-21 29 -38 43 -24 21 10 -16 -6 -12 -29 8 -21 17 -21 17 -4 -3z"/>
 </g>
<g id="layer109" fill="#b7c4ce" stroke="none">
 <path d="M2202 4173 c-24 -8 -42 -18 -40 -22 2 -4 23 -62 48 -129 48 -130 63 -145 94 -97 16 24 15 26 -24 76 -35 44 -80 128 -80 148 0 4 15 15 33 24 40 20 25 20 -31 0z"/>
 <path d="M2030 4097 c-41 -23 -91 -54 -111 -67 l-37 -25 91 -108 c80 -95 92 -106 106 -93 9 7 35 23 59 35 24 12 42 28 39 34 -2 7 -17 69 -33 140 -16 70 -31 127 -34 127 -3 0 -39 -19 -80 -43z"/>
 <path d="M1766 3898 c-35 -37 -73 -80 -85 -96 l-21 -30 112 -71 c61 -40 115 -73 119 -74 10 -2 90 95 84 102 -3 2 -22 -16 -44 -40 l-39 -44 -46 25 c-26 14 -71 45 -101 69 -65 52 -64 53 32 150 35 35 61 66 58 69 -3 3 -34 -24 -69 -60z"/>
 <path d="M1577 3643 c-19 -37 -44 -91 -56 -119 l-20 -52 147 -39 147 -39 17 49 c21 59 24 63 41 51 7 -5 -3 4 -23 21 -19 16 -66 59 -105 95 -123 114 -107 111 -148 33z"/>
 <path d="M2294 3376 c41 -39 40 -60 -5 -63 -17 -1 -37 -8 -45 -14 -11 -9 -14 -8 -14 2 0 12 -2 12 -9 0 -5 -8 -11 -9 -15 -3 -10 16 -66 -4 -84 -30 -9 -13 -29 -35 -44 -50 -29 -27 -36 -52 -18 -63 6 -3 10 -15 10 -26 0 -11 -4 -18 -9 -15 -5 3 -7 -12 -5 -34 5 -46 -7 -49 -47 -10 -14 14 -37 31 -49 39 l-24 14 18 -29 c10 -16 28 -39 39 -51 l19 -22 -58 -3 c-33 -2 13 -7 101 -11 197 -10 230 -18 255 -60 26 -42 25 -55 -7 -117 -17 -33 -28 -73 -31 -111 -5 -62 13 -149 30 -149 6 0 8 7 4 15 -10 26 3 16 19 -15 19 -37 19 -41 -2 -33 -11 4 -14 3 -9 -6 4 -7 13 -10 19 -8 7 2 19 1 28 -4 12 -6 25 2 49 26 19 19 43 36 54 36 15 1 16 3 5 6 -21 5 -91 -36 -83 -49 4 -6 -5 -2 -20 7 -20 13 -26 25 -26 54 l0 36 80 3 79 4 48 -45 c26 -24 59 -53 72 -63 13 -10 32 -32 43 -49 11 -16 17 -22 14 -12 -3 9 -9 25 -12 35 -3 9 10 -10 30 -43 27 -45 40 -59 55 -57 13 2 22 -4 26 -18 4 -12 9 -20 11 -18 2 2 -14 62 -36 133 -21 71 -38 131 -36 132 2 2 42 -49 91 -112 48 -63 89 -115 92 -115 2 0 -4 12 -15 28 -11 15 -27 43 -36 63 -9 20 -25 45 -35 55 -32 35 -101 157 -101 180 0 13 14 32 38 50 20 15 40 32 43 37 4 5 23 8 42 5 20 -2 33 0 31 4 -8 13 14 9 28 -5 29 -29 60 37 45 96 -8 30 -24 50 -71 88 -34 27 -73 61 -87 76 -37 39 -81 112 -74 123 3 5 0 12 -6 16 -8 4 -9 3 -5 -4 10 -17 -5 -15 -18 2 -18 24 -169 103 -207 109 -13 2 -37 9 -54 17 -16 7 -39 16 -50 20 -11 4 -36 15 -57 24 -53 23 -55 20 -14 -18z m215 -136 c107 -30 142 -167 63 -243 -57 -55 -139 -57 -198 -5 -97 85 -40 246 91 257 6 1 26 -3 44 -9z m255 -157 c25 -27 46 -52 45 -58 0 -5 -3 -4 -6 3 -2 6 -11 12 -19 12 -8 0 -14 5 -14 10 0 6 -10 15 -22 21 -13 6 -31 21 -41 35 -33 44 7 28 57 -23z"/>
 <path d="M1470 3347 c-6 -29 -14 -87 -17 -131 -6 -74 -5 -78 13 -73 20 6 283 22 297 19 4 -1 7 25 5 59 l-3 61 -142 58 -142 58 -11 -51z"/>
 <path d="M2903 3365 c0 -22 2 -30 4 -17 2 12 2 30 0 40 -3 9 -5 -1 -4 -23z"/>
 <path d="M2660 3283 c0 -13 27 -49 33 -43 3 3 -3 16 -14 29 -10 13 -19 19 -19 14z"/>
 <path d="M1960 3180 l-45 -7 48 -1 c26 -1 47 3 47 8 0 6 -1 9 -2 8 -2 0 -23 -4 -48 -8z"/>
 <path d="M1456 2987 c3 -28 12 -81 20 -116 13 -56 13 -66 -1 -81 -19 -21 -14 -102 8 -125 10 -9 18 -14 18 -11 1 3 3 11 4 16 1 6 3 13 4 16 3 15 33 -23 75 -94 60 -102 159 -224 236 -291 69 -60 185 -141 203 -141 17 0 -2 15 -70 57 -75 46 -185 142 -224 196 l-29 40 71 28 c40 16 77 33 83 39 20 20 44 9 81 -37 53 -67 117 -133 129 -133 5 0 -16 26 -47 58 -72 76 -139 181 -178 279 -33 82 -69 234 -69 295 l0 36 -87 6 c-49 3 -121 8 -161 11 l-73 5 7 -53z"/>
 <path d="M1370 2705 c0 -18 43 -84 73 -112 58 -54 58 -37 1 21 -30 30 -54 61 -54 70 0 8 -4 18 -10 21 -5 3 -10 3 -10 0z"/>
 <path d="M2090 2330 c0 -5 9 -16 21 -24 l21 -14 -32 -46 c-17 -26 -34 -61 -37 -79 -4 -29 -1 -35 24 -46 96 -45 298 -100 311 -86 4 4 2 9 -3 11 -6 3 -10 38 -9 85 1 45 -2 75 -6 68 -11 -17 -118 28 -216 92 -41 27 -74 44 -74 39z"/>
 <path d="M1983 1730 c0 -41 2 -58 4 -37 2 20 2 54 0 75 -2 20 -4 3 -4 -38z"/>
 <path d="M2573 710 c0 -30 2 -43 4 -27 2 15 2 39 0 55 -2 15 -4 2 -4 -28z"/>
 </g>
<g id="layer110" fill="#efdbb8" stroke="none">
 <path d="M2030 4097 c-41 -23 -91 -54 -111 -67 l-36 -25 90 -108 c80 -94 92 -105 106 -93 9 7 36 24 61 36 25 13 39 25 32 27 -7 3 -32 -7 -57 -21 -54 -32 -55 -32 -147 73 l-67 76 27 22 c15 12 62 43 105 68 66 40 87 55 74 55 -1 0 -36 -19 -77 -43z"/>
 <path d="M1766 3898 c-35 -37 -73 -80 -85 -96 l-21 -30 112 -71 c61 -40 115 -73 119 -74 10 -2 90 95 84 102 -3 2 -22 -16 -44 -40 l-39 -44 -46 25 c-26 14 -71 45 -101 69 -65 52 -64 53 32 150 35 35 61 66 58 69 -3 3 -34 -24 -69 -60z"/>
 <path d="M1577 3643 c-19 -37 -44 -91 -56 -119 l-20 -52 147 -39 147 -39 17 49 c21 59 24 63 41 51 7 -5 -3 4 -23 21 -19 16 -66 59 -105 95 -123 114 -107 111 -148 33z"/>
 <path d="M1470 3347 c-6 -29 -14 -87 -17 -131 -6 -74 -5 -78 13 -73 20 6 283 22 297 19 4 -1 7 25 5 59 l-3 61 -142 58 -142 58 -11 -51z"/>
 <path d="M2903 3365 c0 -22 2 -30 4 -17 2 12 2 30 0 40 -3 9 -5 -1 -4 -23z"/>
 <path d="M2165 3299 c-17 -5 -40 -24 -54 -44 -13 -20 -33 -40 -43 -46 -28 -15 -22 -39 32 -124 42 -66 42 -62 7 -70 -26 -7 -15 -10 58 -15 102 -7 128 -18 150 -60 20 -39 19 -50 -12 -110 -32 -62 -41 -150 -23 -216 l13 -46 23 48 c27 56 52 75 66 50 8 -14 13 -15 24 -5 11 9 18 8 32 -5 10 -9 29 -16 41 -16 12 0 43 -19 69 -43 26 -24 58 -53 71 -63 13 -10 32 -32 43 -49 11 -16 17 -22 14 -12 -3 9 -9 25 -12 35 -3 9 10 -10 30 -43 27 -45 40 -59 55 -57 13 2 22 -4 26 -18 4 -12 9 -20 11 -18 2 2 -14 62 -36 133 -21 71 -38 131 -36 132 2 2 42 -49 91 -112 48 -63 89 -115 92 -115 2 0 -4 12 -15 28 -11 15 -27 43 -36 63 -9 20 -25 45 -35 55 -32 35 -101 157 -101 180 0 13 14 32 38 50 20 15 39 32 40 36 2 4 14 8 27 8 29 0 49 32 40 63 -18 66 -42 96 -130 167 -52 41 -94 80 -94 87 -2 21 -53 74 -92 93 -23 12 -59 20 -91 20 -29 1 -88 9 -130 19 -43 10 -78 16 -78 12 0 -3 -5 1 -10 9 -8 12 -10 12 -10 1 0 -9 -4 -10 -12 -4 -8 6 -25 7 -43 2z m344 -59 c107 -30 142 -167 63 -243 -57 -55 -139 -57 -198 -5 -97 85 -40 246 91 257 6 1 26 -3 44 -9z"/>
 <path d="M1960 3180 l-45 -7 48 -1 c26 -1 47 3 47 8 0 6 -1 9 -2 8 -2 0 -23 -4 -48 -8z"/>
 <path d="M1456 2987 c3 -28 12 -81 20 -116 13 -56 13 -66 -1 -81 -19 -21 -14 -102 8 -125 10 -9 18 -14 18 -11 1 3 3 11 4 16 1 6 3 13 4 16 3 15 33 -23 75 -94 59 -101 159 -224 232 -288 97 -84 204 -155 204 -136 0 5 -28 26 -62 46 -73 43 -189 144 -230 200 l-28 39 71 28 c40 16 77 33 83 39 20 20 44 9 81 -37 53 -67 117 -133 129 -133 5 0 -16 26 -47 58 -72 76 -139 181 -178 279 -33 82 -69 234 -69 295 l0 36 -87 6 c-49 3 -121 8 -161 11 l-73 5 7 -53z"/>
 <path d="M1928 3013 c18 -2 45 -2 60 0 15 2 0 4 -33 4 -33 0 -45 -2 -27 -4z"/>
 <path d="M1370 2705 c0 -18 43 -84 73 -112 58 -54 58 -37 1 21 -30 30 -54 61 -54 70 0 8 -4 18 -10 21 -5 3 -10 3 -10 0z"/>
 <path d="M2350 2660 c-13 -9 -13 -11 0 -20 15 -10 25 0 18 20 -2 6 -8 6 -18 0z"/>
 <path d="M2090 2330 c0 -15 100 -77 180 -111 93 -39 102 -36 14 5 -40 19 -99 52 -133 75 -33 23 -61 37 -61 31z"/>
 <path d="M2066 2168 c-3 -13 -6 -26 -6 -29 0 -14 190 -83 255 -93 25 -4 14 2 -29 14 -38 12 -102 36 -142 54 -62 29 -72 37 -67 55 3 12 3 21 0 21 -2 0 -7 -10 -11 -22z"/>
 <path d="M1983 1730 c0 -41 2 -58 4 -37 2 20 2 54 0 75 -2 20 -4 3 -4 -38z"/>
 <path d="M2573 710 c0 -30 2 -43 4 -27 2 15 2 39 0 55 -2 15 -4 2 -4 -28z"/>
 </g>
<g id="layer111" fill="#e5e1dd" stroke="none">
 <path d="M2040 4104 c-89 -50 -152 -94 -148 -104 5 -16 162 -200 170 -200 4 0 33 16 65 35 32 19 52 35 44 35 -8 0 -34 -11 -57 -25 -53 -31 -54 -30 -146 74 l-67 76 27 22 c15 12 62 43 105 68 42 26 77 48 77 51 0 6 -1 6 -70 -32z"/>
 <path d="M1564 3619 c-14 -28 -24 -53 -22 -55 2 -2 16 21 31 51 15 30 25 55 22 55 -3 0 -16 -23 -31 -51z"/>
 <path d="M1806 3454 c-9 -26 -16 -52 -15 -58 0 -6 9 13 20 43 10 30 17 56 15 58 -2 2 -11 -17 -20 -43z"/>
 <path d="M2235 3281 c5 -5 -29 -27 -57 -37 -10 -3 -18 -13 -18 -20 0 -13 -13 -19 -34 -15 -5 1 -3 -5 4 -14 11 -13 10 -15 -2 -10 -8 3 -23 -4 -33 -15 -16 -18 -17 -23 -5 -30 14 -9 6 -15 -15 -10 -5 1 -2 -7 8 -18 9 -10 17 -22 17 -26 0 -4 9 -20 21 -34 l21 -27 -34 -9 c-29 -9 -22 -11 59 -16 104 -6 141 -25 157 -79 7 -26 3 -43 -24 -102 -29 -64 -32 -78 -28 -138 3 -37 10 -76 15 -85 9 -16 13 -12 32 27 24 50 50 67 64 42 7 -13 12 -14 23 -4 11 9 18 8 32 -4 14 -13 21 -14 30 -5 8 8 18 7 37 -6 31 -20 122 -110 149 -146 10 -14 16 -17 12 -7 -17 49 -14 46 25 -20 24 -40 46 -68 50 -62 4 7 12 5 23 -6 21 -22 21 -18 -19 115 -19 62 -33 116 -31 117 2 2 38 -41 80 -97 43 -55 79 -100 81 -100 8 0 -52 104 -72 125 -13 12 -43 53 -67 89 -40 61 -43 70 -33 96 6 17 15 30 20 30 5 0 23 11 41 25 18 14 42 25 54 25 26 0 45 33 37 63 -18 66 -42 96 -130 167 -52 41 -94 80 -94 87 -2 21 -53 74 -92 93 -23 12 -58 20 -88 20 -27 0 -78 7 -113 15 -59 13 -113 17 -103 6z m282 -42 c67 -25 111 -99 98 -165 -8 -45 -57 -100 -101 -114 -100 -33 -209 62 -190 165 12 62 82 124 143 125 12 0 34 -5 50 -11z"/>
 <path d="M1762 3240 c0 -19 2 -27 5 -17 2 9 2 25 0 35 -3 9 -5 1 -5 -18z"/>
 <path d="M1453 3190 c0 -25 2 -35 4 -22 2 12 2 32 0 45 -2 12 -4 2 -4 -23z"/>
 <path d="M1948 3013 c12 -2 30 -2 40 0 9 3 -1 5 -23 4 -22 0 -30 -2 -17 -4z"/>
 <path d="M1763 2975 c0 -22 2 -30 4 -17 2 12 2 30 0 40 -3 9 -5 -1 -4 -23z"/>
 <path d="M2350 2660 c-13 -9 -13 -11 0 -20 15 -10 25 0 18 20 -2 6 -8 6 -18 0z"/>
 <path d="M2010 2408 c41 -45 50 -53 50 -45 0 2 -21 23 -47 47 l-48 45 45 -47z"/>
 <path d="M2090 2336 c0 -16 61 -58 137 -96 108 -54 119 -51 16 5 -46 24 -99 56 -118 71 -19 14 -35 23 -35 20z"/>
 <path d="M1930 2218 c26 -26 90 -60 90 -49 0 6 -5 11 -10 11 -6 0 -29 12 -53 26 -23 15 -35 20 -27 12z"/>
 <path d="M2070 2181 c0 -5 -3 -16 -6 -25 -4 -10 7 -21 37 -37 51 -26 176 -69 198 -69 9 0 -17 12 -57 25 -40 14 -95 36 -122 50 -39 20 -47 28 -43 45 3 11 3 20 -1 20 -3 0 -6 -4 -6 -9z"/>
 </g>

</svg>